SplineFontDB: 3.2
FontName: Nunito-Light
FullName: Nunito Light
FamilyName: Nunito Light
Weight: Light
Copyright: Copyright 2014 The Nunito Project Authors (https://github.com/googlefonts/nunito)
Version: 3.602-ef
ItalicAngle: 0
UnderlinePosition: -94
UnderlineWidth: 28
Ascent: 800
Descent: 200
InvalidEm: 0
sfntRevision: 0x00039a1d
LayerCount: 2
Layer: 0 1 "Back" 1
Layer: 1 1 "Fore" 0
XUID: [1021 965 1680887925 6724760]
StyleMap: 0x0040
FSType: 0
OS2Version: 4
OS2_WeightWidthSlopeOnly: 0
OS2_UseTypoMetrics: 1
CreationTime: 1592915285
ModificationTime: 1719074364
PfmFamily: 81
TTFWeight: 300
TTFWidth: 5
LineGap: 0
VLineGap: 0
Panose: 0 0 0 0 0 0 0 0 0 0
OS2TypoAscent: 1011
OS2TypoAOffset: 0
OS2TypoDescent: -353
OS2TypoDOffset: 0
OS2TypoLinegap: 0
OS2WinAscent: 1077
OS2WinAOffset: 0
OS2WinDescent: 300
OS2WinDOffset: 0
HheadAscent: 1011
HheadAOffset: 0
HheadDescent: -353
HheadDOffset: 0
OS2SubXSize: 650
OS2SubYSize: 600
OS2SubXOff: 0
OS2SubYOff: 75
OS2SupXSize: 650
OS2SupYSize: 600
OS2SupXOff: 0
OS2SupYOff: 350
OS2StrikeYSize: 28
OS2StrikeYPos: 290
OS2CapHeight: 705
OS2XHeight: 484
OS2Vendor: 'NONE'
OS2CodePages: 20000197.00000000
OS2UnicodeRanges: a00002ff.5000204b.00000000.00000000
Lookup: 1 0 0 "'aalt' Access All Alternates lookup 0" { "'aalt' Access All Alternates lookup 0 subtable"  } ['aalt' ('DFLT' <'dflt' > 'cyrl' <'BSH ' 'CHU ' 'dflt' > 'latn' <'AZE ' 'CAT ' 'CRT ' 'KAZ ' 'MOL ' 'NLD ' 'ROM ' 'TAT ' 'TRK ' 'dflt' > ) ]
Lookup: 3 0 0 "'aalt' Access All Alternates lookup 1" { "'aalt' Access All Alternates lookup 1 subtable"  } ['aalt' ('DFLT' <'dflt' > 'cyrl' <'BSH ' 'CHU ' 'dflt' > 'latn' <'AZE ' 'CAT ' 'CRT ' 'KAZ ' 'MOL ' 'NLD ' 'ROM ' 'TAT ' 'TRK ' 'dflt' > ) ]

StartChar: .notdef
Encoding: 65536 -1 0
Width: 500
GlyphClass: 1
Flags: W
LayerCount: 2
Fore
SplineSet
50 -180 m 1,0,-1
 50 705 l 1,1,-1
 450 705 l 1,2,-1
 450 -180 l 1,3,-1
 50 -180 l 1,0,-1
100 -130 m 1,4,-1
 400 -130 l 1,5,-1
 400 655 l 1,6,-1
 100 655 l 1,7,-1
 100 -130 l 1,4,-1
EndSplineSet
EndChar

StartChar: A
Encoding: 65 65 1
Width: 722
GlyphClass: 2
Flags: W
AnchorPoint: "Anchor-3" 687 0 basechar 0
AnchorPoint: "Anchor-2" 362 0 basechar 0
AnchorPoint: "Anchor-0" 362 705 basechar 0
LayerCount: 2
Fore
SplineSet
67 -6 m 0,0,1
 54 -6 54 -6 46.5 -0.5 c 128,-1,2
 39 5 39 5 38.5 15 c 128,-1,3
 38 25 38 25 43 37 c 2,4,-1
 324 683 l 2,5,6
 331 698 331 698 341 704.5 c 128,-1,7
 351 711 351 711 361 711 c 0,8,9
 373 711 373 711 382.5 704.5 c 128,-1,10
 392 698 392 698 398 683 c 2,11,-1
 679 37 l 2,12,13
 685 25 685 25 684.5 15 c 128,-1,14
 684 5 684 5 677.5 -0.5 c 128,-1,15
 671 -6 671 -6 658 -6 c 0,16,17
 644 -6 644 -6 635.5 1.5 c 128,-1,18
 627 9 627 9 621 22 c 2,19,-1
 544 203 l 1,20,-1
 577 188 l 1,21,-1
 144 188 l 1,22,-1
 178 203 l 1,23,-1
 101 22 l 2,24,25
 95 7 95 7 86.5 0.5 c 128,-1,26
 78 -6 78 -6 67 -6 c 0,0,1
360 629 m 1,27,-1
 190 229 l 1,28,-1
 167 241 l 1,29,-1
 554 241 l 1,30,-1
 533 229 l 1,31,-1
 362 629 l 1,32,-1
 360 629 l 1,27,-1
EndSplineSet
Substitution2: "Single Substitution lookup 29 subtable" ordfeminine
Substitution2: "'aalt' Access All Alternates lookup 0 subtable" ordfeminine
EndChar

StartChar: Aogonek
Encoding: 260 260 24
Width: 722
GlyphClass: 1
Flags: W
LayerCount: 2
Fore
SplineSet
669 -191 m 0,0,1
 625 -191 625 -191 597.5 -165.5 c 128,-1,2
 570 -140 570 -140 570 -96 c 0,3,4
 570 -64 570 -64 586.5 -34.5 c 128,-1,5
 603 -5 603 -5 632 17 c 1,6,-1
 633 4 l 1,7,8
 630 7 630 7 627 12 c 128,-1,9
 624 17 624 17 621 22 c 2,10,-1
 544 203 l 1,11,-1
 577 188 l 1,12,-1
 144 188 l 1,13,-1
 178 203 l 1,14,-1
 101 22 l 2,15,16
 95 7 95 7 86.5 0.5 c 128,-1,17
 78 -6 78 -6 67 -6 c 0,18,19
 54 -6 54 -6 46.5 -0.5 c 128,-1,20
 39 5 39 5 38.5 15 c 128,-1,21
 38 25 38 25 43 37 c 2,22,-1
 324 683 l 2,23,24
 331 698 331 698 341 704.5 c 128,-1,25
 351 711 351 711 361 711 c 0,26,27
 373 711 373 711 382.5 704.5 c 128,-1,28
 392 698 392 698 398 683 c 2,29,-1
 679 37 l 2,30,31
 686 24 686 24 684.5 13.5 c 128,-1,32
 683 3 683 3 673 -3 c 0,33,34
 664 -9 664 -9 651 -21 c 128,-1,35
 638 -33 638 -33 628 -50.5 c 128,-1,36
 618 -68 618 -68 618 -90 c 0,37,38
 618 -120 618 -120 635 -134 c 128,-1,39
 652 -148 652 -148 677 -148 c 0,40,41
 687 -148 687 -148 696 -146.5 c 128,-1,42
 705 -145 705 -145 714 -142 c 0,43,44
 726 -138 726 -138 732.5 -142.5 c 128,-1,45
 739 -147 739 -147 740.5 -155 c 128,-1,46
 742 -163 742 -163 738.5 -170.5 c 128,-1,47
 735 -178 735 -178 726 -182 c 0,48,49
 711 -187 711 -187 697 -189 c 128,-1,50
 683 -191 683 -191 669 -191 c 0,0,1
360 629 m 1,51,-1
 190 229 l 1,52,-1
 167 241 l 1,53,-1
 554 241 l 1,54,-1
 533 229 l 1,55,-1
 362 629 l 1,56,-1
 360 629 l 1,51,-1
EndSplineSet
EndChar

StartChar: AE
Encoding: 198 198 28
Width: 976
GlyphClass: 2
Flags: W
AnchorPoint: "Anchor-2" 487 0 basechar 0
AnchorPoint: "Anchor-0" 486 705 basechar 0
LayerCount: 2
Fore
SplineSet
36 -6 m 0,0,1
 23 -6 23 -6 15.5 -0.5 c 128,-1,2
 8 5 8 5 8 14 c 128,-1,3
 8 23 8 23 14 33 c 2,4,-1
 405 685 l 2,5,6
 412 695 412 695 420.5 700 c 128,-1,7
 429 705 429 705 441 705 c 2,8,-1
 902 705 l 2,9,10
 917 705 917 705 924.5 698 c 128,-1,11
 932 691 932 691 932 679 c 0,12,13
 932 665 932 665 924.5 658.5 c 128,-1,14
 917 652 917 652 902 652 c 2,15,-1
 469 652 l 1,16,-1
 481 678 l 1,17,-1
 547 368 l 1,18,-1
 524 384 l 1,19,-1
 882 384 l 2,20,21
 896 384 896 384 904 377.5 c 128,-1,22
 912 371 912 371 912 358 c 256,23,24
 912 345 912 345 904 338 c 128,-1,25
 896 331 896 331 882 331 c 2,26,-1
 535 331 l 1,27,-1
 552 347 l 1,28,-1
 618 30 l 1,29,-1
 592 53 l 1,30,-1
 902 53 l 2,31,32
 917 53 917 53 924.5 46.5 c 128,-1,33
 932 40 932 40 932 27 c 256,34,35
 932 14 932 14 924.5 7 c 128,-1,36
 917 0 917 0 902 0 c 2,37,-1
 595 0 l 2,38,39
 569 0 569 0 562 26 c 2,40,-1
 525 206 l 1,41,-1
 550 188 l 1,42,-1
 157 188 l 1,43,-1
 182 205 l 1,44,-1
 70 15 l 2,45,46
 64 5 64 5 56 -0.5 c 128,-1,47
 48 -6 48 -6 36 -6 c 0,0,1
433 628 m 1,48,-1
 195 226 l 1,49,-1
 186 241 l 1,50,-1
 530 241 l 1,51,-1
 520 226 l 1,52,-1
 435 628 l 1,53,-1
 433 628 l 1,48,-1
EndSplineSet
EndChar

StartChar: B
Encoding: 66 66 30
Width: 671
GlyphClass: 2
Flags: W
AnchorPoint: "Anchor-2" 339 0 basechar 0
AnchorPoint: "Anchor-0" 338 705 basechar 0
LayerCount: 2
Fore
SplineSet
126 0 m 2,0,1
 110 0 110 0 101 9 c 128,-1,2
 92 18 92 18 92 35 c 2,3,-1
 92 670 l 2,4,5
 92 687 92 687 101 696 c 128,-1,6
 110 705 110 705 126 705 c 2,7,-1
 361 705 l 2,8,9
 434 705 434 705 484 683.5 c 128,-1,10
 534 662 534 662 561 621 c 128,-1,11
 588 580 588 580 588 520 c 0,12,13
 588 454 588 454 548.5 410 c 128,-1,14
 509 366 509 366 442 352 c 1,15,-1
 442 366 l 1,16,17
 517 358 517 358 560.5 312.5 c 128,-1,18
 604 267 604 267 604 192 c 0,19,20
 604 98 604 98 544 49 c 128,-1,21
 484 0 484 0 374 0 c 2,22,-1
 126 0 l 2,0,1
152 52 m 1,23,-1
 369 52 l 2,24,25
 456 52 456 52 499 86.5 c 128,-1,26
 542 121 542 121 542 191 c 0,27,28
 542 263 542 263 499 297 c 128,-1,29
 456 331 456 331 369 331 c 2,30,-1
 152 331 l 1,31,-1
 152 52 l 1,23,-1
152 383 m 1,32,-1
 354 383 l 2,33,34
 438 383 438 383 482 417.5 c 128,-1,35
 526 452 526 452 526 518 c 256,36,37
 526 584 526 584 482 618.5 c 128,-1,38
 438 653 438 653 354 653 c 2,39,-1
 152 653 l 1,40,-1
 152 383 l 1,32,-1
EndSplineSet
EndChar

StartChar: uni0181
Encoding: 385 385 31
Width: 783
GlyphClass: 1
Flags: W
LayerCount: 2
Fore
SplineSet
239 0 m 2,0,1
 222 0 222 0 213 9 c 128,-1,2
 204 18 204 18 204 35 c 2,3,-1
 204 654 l 1,4,-1
 169 654 l 2,5,6
 111 654 111 654 82.5 627 c 128,-1,7
 54 600 54 600 54 542 c 2,8,-1
 54 521 l 2,9,10
 54 512 54 512 51.5 505.5 c 128,-1,11
 49 499 49 499 42.5 495 c 128,-1,12
 36 491 36 491 28 491 c 0,13,14
 19 491 19 491 13 495 c 128,-1,15
 7 499 7 499 3.5 506 c 128,-1,16
 0 513 0 513 0 521 c 2,17,-1
 0 546 l 2,18,19
 0 625 0 625 43.5 665 c 128,-1,20
 87 705 87 705 179 705 c 2,21,-1
 473 705 l 2,22,23
 546 705 546 705 596.5 683.5 c 128,-1,24
 647 662 647 662 673.5 621 c 128,-1,25
 700 580 700 580 700 520 c 0,26,27
 700 454 700 454 661 410 c 128,-1,28
 622 366 622 366 554 352 c 1,29,-1
 554 366 l 1,30,31
 629 358 629 358 673 312.5 c 128,-1,32
 717 267 717 267 717 192 c 0,33,34
 717 98 717 98 657 49 c 128,-1,35
 597 0 597 0 486 0 c 2,36,-1
 239 0 l 2,0,1
264 52 m 1,37,-1
 481 52 l 2,38,39
 568 52 568 52 611 86.5 c 128,-1,40
 654 121 654 121 654 191 c 0,41,42
 654 263 654 263 611 297 c 128,-1,43
 568 331 568 331 481 331 c 2,44,-1
 264 331 l 1,45,-1
 264 52 l 1,37,-1
264 383 m 1,46,-1
 466 383 l 2,47,48
 550 383 550 383 594 417.5 c 128,-1,49
 638 452 638 452 638 518 c 256,50,51
 638 584 638 584 594 618.5 c 128,-1,52
 550 653 550 653 466 653 c 2,53,-1
 264 653 l 1,54,-1
 264 383 l 1,46,-1
EndSplineSet
EndChar

StartChar: C
Encoding: 67 67 32
Width: 670
GlyphClass: 2
Flags: W
AnchorPoint: "Anchor-2" 383 0 basechar 0
AnchorPoint: "Anchor-0" 384 705 basechar 0
LayerCount: 2
Fore
SplineSet
386 -8 m 0,0,1
 285 -8 285 -8 213 35.5 c 128,-1,2
 141 79 141 79 102.5 160 c 128,-1,3
 64 241 64 241 64 353 c 0,4,5
 64 437 64 437 85.5 503.5 c 128,-1,6
 107 570 107 570 148.5 616.5 c 128,-1,7
 190 663 190 663 250.5 688 c 128,-1,8
 311 713 311 713 386 713 c 0,9,10
 452 713 452 713 509 694 c 128,-1,11
 566 675 566 675 607 638 c 0,12,13
 617 629 617 629 620 619 c 128,-1,14
 623 609 623 609 620.5 600.5 c 128,-1,15
 618 592 618 592 611 586.5 c 128,-1,16
 604 581 604 581 594.5 581.5 c 128,-1,17
 585 582 585 582 574 591 c 0,18,19
 536 624 536 624 489.5 640 c 128,-1,20
 443 656 443 656 387 656 c 0,21,22
 304 656 304 656 246.5 620.5 c 128,-1,23
 189 585 189 585 159.5 517 c 128,-1,24
 130 449 130 449 130 353 c 0,25,26
 130 256 130 256 159.5 188 c 128,-1,27
 189 120 189 120 246.5 84.5 c 128,-1,28
 304 49 304 49 387 49 c 0,29,30
 442 49 442 49 489 65.5 c 128,-1,31
 536 82 536 82 575 115 c 0,32,33
 586 124 586 124 595.5 124 c 128,-1,34
 605 124 605 124 611.5 118.5 c 128,-1,35
 618 113 618 113 621 104.5 c 128,-1,36
 624 96 624 96 621.5 87 c 128,-1,37
 619 78 619 78 610 70 c 0,38,39
 567 31 567 31 510.5 11.5 c 128,-1,40
 454 -8 454 -8 386 -8 c 0,0,1
EndSplineSet
EndChar

StartChar: D
Encoding: 68 68 39
Width: 733
GlyphClass: 2
Flags: W
AnchorPoint: "Anchor-5" 178 358 basechar 0
AnchorPoint: "Anchor-2" 367 0 basechar 0
AnchorPoint: "Anchor-0" 366 705 basechar 0
LayerCount: 2
Fore
SplineSet
126 0 m 2,0,1
 110 0 110 0 101 9 c 128,-1,2
 92 18 92 18 92 35 c 2,3,-1
 92 670 l 2,4,5
 92 687 92 687 101 696 c 128,-1,6
 110 705 110 705 126 705 c 2,7,-1
 319 705 l 2,8,9
 487 705 487 705 578.5 615 c 128,-1,10
 670 525 670 525 670 353 c 0,11,12
 670 267 670 267 646.5 201 c 128,-1,13
 623 135 623 135 578 90.5 c 128,-1,14
 533 46 533 46 468 23 c 128,-1,15
 403 0 403 0 319 0 c 2,16,-1
 126 0 l 2,0,1
153 54 m 1,17,-1
 314 54 l 2,18,19
 387 54 387 54 441.5 73 c 128,-1,20
 496 92 496 92 532 129 c 128,-1,21
 568 166 568 166 586 222.5 c 128,-1,22
 604 279 604 279 604 353 c 0,23,24
 604 502 604 502 531.5 576.5 c 128,-1,25
 459 651 459 651 314 651 c 2,26,-1
 153 651 l 1,27,-1
 153 54 l 1,17,-1
EndSplineSet
EndChar

StartChar: uni018A
Encoding: 394 394 45
Width: 846
GlyphClass: 1
Flags: W
LayerCount: 2
Fore
SplineSet
239 0 m 2,0,1
 222 0 222 0 213 9 c 128,-1,2
 204 18 204 18 204 35 c 2,3,-1
 204 654 l 1,4,-1
 169 654 l 2,5,6
 111 654 111 654 82.5 627 c 128,-1,7
 54 600 54 600 54 542 c 2,8,-1
 54 521 l 2,9,10
 54 512 54 512 51.5 505.5 c 128,-1,11
 49 499 49 499 42.5 495 c 128,-1,12
 36 491 36 491 28 491 c 0,13,14
 19 491 19 491 13 495 c 128,-1,15
 7 499 7 499 3.5 506 c 128,-1,16
 0 513 0 513 0 521 c 2,17,-1
 0 546 l 2,18,19
 0 625 0 625 42.5 665 c 128,-1,20
 85 705 85 705 170 705 c 2,21,-1
 431 705 l 2,22,23
 600 705 600 705 691 615 c 128,-1,24
 782 525 782 525 782 353 c 0,25,26
 782 267 782 267 758.5 201 c 128,-1,27
 735 135 735 135 690.5 90.5 c 128,-1,28
 646 46 646 46 581 23 c 128,-1,29
 516 0 516 0 431 0 c 2,30,-1
 239 0 l 2,0,1
266 54 m 1,31,-1
 426 54 l 2,32,33
 499 54 499 54 553.5 73 c 128,-1,34
 608 92 608 92 644 129 c 128,-1,35
 680 166 680 166 698.5 222.5 c 128,-1,36
 717 279 717 279 717 353 c 0,37,38
 717 502 717 502 644 576.5 c 128,-1,39
 571 651 571 651 426 651 c 2,40,-1
 266 651 l 1,41,-1
 266 54 l 1,31,-1
EndSplineSet
EndChar

StartChar: E
Encoding: 69 69 48
Width: 576
GlyphClass: 2
Flags: W
AnchorPoint: "Anchor-3" 492 0 basechar 0
AnchorPoint: "Anchor-2" 322 0 basechar 0
AnchorPoint: "Anchor-0" 322 705 basechar 0
LayerCount: 2
Fore
SplineSet
126 0 m 2,0,1
 110 0 110 0 101 9 c 128,-1,2
 92 18 92 18 92 35 c 2,3,-1
 92 670 l 2,4,5
 92 687 92 687 101 696 c 128,-1,6
 110 705 110 705 126 705 c 2,7,-1
 504 705 l 2,8,9
 518 705 518 705 525 698 c 128,-1,10
 532 691 532 691 532 679 c 0,11,12
 532 665 532 665 525 658.5 c 128,-1,13
 518 652 518 652 504 652 c 2,14,-1
 152 652 l 1,15,-1
 152 384 l 1,16,-1
 484 384 l 2,17,18
 498 384 498 384 505 377.5 c 128,-1,19
 512 371 512 371 512 358 c 256,20,21
 512 345 512 345 505 338 c 128,-1,22
 498 331 498 331 484 331 c 2,23,-1
 152 331 l 1,24,-1
 152 53 l 1,25,-1
 504 53 l 2,26,27
 518 53 518 53 525 46.5 c 128,-1,28
 532 40 532 40 532 27 c 256,29,30
 532 14 532 14 525 7 c 128,-1,31
 518 0 518 0 504 0 c 2,32,-1
 126 0 l 2,0,1
EndSplineSet
EndChar

StartChar: uni018F
Encoding: 399 399 72
Width: 759
GlyphClass: 2
Flags: W
AnchorPoint: "Anchor-2" 376 0 basechar 0
AnchorPoint: "Anchor-0" 376 705 basechar 0
LayerCount: 2
Fore
SplineSet
385 -8 m 0,0,1
 304 -8 304 -8 244 17 c 128,-1,2
 184 42 184 42 144 89.5 c 128,-1,3
 104 137 104 137 84 203.5 c 128,-1,4
 64 270 64 270 64 351 c 0,5,6
 64 368 64 368 70.5 375.5 c 128,-1,7
 77 383 77 383 90 383 c 2,8,-1
 649 383 l 1,9,-1
 649 329 l 1,10,-1
 111 329 l 1,11,-1
 128 353 l 1,12,13
 128 255 128 255 156 186.5 c 128,-1,14
 184 118 184 118 240.5 82.5 c 128,-1,15
 297 47 297 47 382 47 c 0,16,17
 460 47 460 47 515.5 83.5 c 128,-1,18
 571 120 571 120 600.5 188 c 128,-1,19
 630 256 630 256 630 353 c 256,20,21
 630 450 630 450 597.5 518 c 128,-1,22
 565 586 565 586 503.5 621.5 c 128,-1,23
 442 657 442 657 354 657 c 0,24,25
 286 657 286 657 234 640.5 c 128,-1,26
 182 624 182 624 136 587 c 0,27,28
 126 580 126 580 117.5 580.5 c 128,-1,29
 109 581 109 581 102.5 586.5 c 128,-1,30
 96 592 96 592 93.5 600 c 128,-1,31
 91 608 91 608 93.5 617 c 128,-1,32
 96 626 96 626 106 634 c 0,33,34
 154 673 154 673 218.5 693 c 128,-1,35
 283 713 283 713 358 713 c 0,36,37
 462 713 462 713 537.5 669.5 c 128,-1,38
 613 626 613 626 654 545.5 c 128,-1,39
 695 465 695 465 695 353 c 0,40,41
 695 269 695 269 673.5 202 c 128,-1,42
 652 135 652 135 611 88.5 c 128,-1,43
 570 42 570 42 512.5 17 c 128,-1,44
 455 -8 455 -8 385 -8 c 0,0,1
EndSplineSet
EndChar

StartChar: F
Encoding: 70 70 73
Width: 542
GlyphClass: 2
Flags: W
AnchorPoint: "Anchor-2" 295 0 basechar 0
AnchorPoint: "Anchor-0" 295 705 basechar 0
LayerCount: 2
Fore
SplineSet
126 -6 m 0,0,1
 110 -6 110 -6 101 3 c 128,-1,2
 92 12 92 12 92 28 c 2,3,-1
 92 670 l 2,4,5
 92 687 92 687 101 696 c 128,-1,6
 110 705 110 705 126 705 c 2,7,-1
 495 705 l 2,8,9
 508 705 508 705 515.5 698 c 128,-1,10
 523 691 523 691 523 679 c 0,11,12
 523 665 523 665 515.5 658.5 c 128,-1,13
 508 652 508 652 495 652 c 2,14,-1
 153 652 l 1,15,-1
 153 383 l 1,16,-1
 475 383 l 2,17,18
 488 383 488 383 495.5 376.5 c 128,-1,19
 503 370 503 370 503 357 c 256,20,21
 503 344 503 344 495.5 337 c 128,-1,22
 488 330 488 330 475 330 c 2,23,-1
 153 330 l 1,24,-1
 153 28 l 2,25,26
 153 -6 153 -6 126 -6 c 0,0,1
EndSplineSet
EndChar

StartChar: G
Encoding: 71 71 74
Width: 722
GlyphClass: 2
Flags: W
AnchorPoint: "Anchor-2" 394 0 basechar 0
AnchorPoint: "Anchor-0" 387 705 basechar 0
LayerCount: 2
Fore
SplineSet
405 -8 m 0,0,1
 294 -8 294 -8 218 34.5 c 128,-1,2
 142 77 142 77 103 158 c 128,-1,3
 64 239 64 239 64 353 c 0,4,5
 64 437 64 437 86 503.5 c 128,-1,6
 108 570 108 570 149.5 616.5 c 128,-1,7
 191 663 191 663 251.5 688 c 128,-1,8
 312 713 312 713 389 713 c 0,9,10
 456 713 456 713 516 694 c 128,-1,11
 576 675 576 675 620 634 c 0,12,13
 629 626 629 626 631 617.5 c 128,-1,14
 633 609 633 609 630 600.5 c 128,-1,15
 627 592 627 592 620.5 586.5 c 128,-1,16
 614 581 614 581 605.5 580.5 c 128,-1,17
 597 580 597 580 587 587 c 0,18,19
 546 624 546 624 496.5 640 c 128,-1,20
 447 656 447 656 388 656 c 0,21,22
 305 656 305 656 247 620.5 c 128,-1,23
 189 585 189 585 159 517 c 128,-1,24
 129 449 129 449 129 353 c 0,25,26
 129 204 129 204 198 126 c 128,-1,27
 267 48 267 48 406 48 c 0,28,29
 458 48 458 48 506 58 c 128,-1,30
 554 68 554 68 596 86 c 1,31,-1
 581 44 l 1,32,-1
 581 309 l 1,33,-1
 423 309 l 2,34,35
 409 309 409 309 401.5 316.5 c 128,-1,36
 394 324 394 324 394 336 c 256,37,38
 394 348 394 348 401.5 354.5 c 128,-1,39
 409 361 409 361 423 361 c 2,40,-1
 608 361 l 2,41,42
 622 361 622 361 629 353.5 c 128,-1,43
 636 346 636 346 636 333 c 2,44,-1
 636 64 l 2,45,46
 636 52 636 52 632.5 44 c 128,-1,47
 629 36 629 36 620 32 c 0,48,49
 580 15 580 15 520.5 3.5 c 128,-1,50
 461 -8 461 -8 405 -8 c 0,0,1
EndSplineSet
EndChar

StartChar: H
Encoding: 72 72 81
Width: 756
GlyphClass: 2
Flags: W
AnchorPoint: "Anchor-5" 379 549 basechar 0
AnchorPoint: "Anchor-2" 379 0 basechar 0
AnchorPoint: "Anchor-0" 378 705 basechar 0
LayerCount: 2
Fore
SplineSet
122 -6 m 0,0,1
 108 -6 108 -6 100 2.5 c 128,-1,2
 92 11 92 11 92 26 c 2,3,-1
 92 679 l 2,4,5
 92 695 92 695 100 703 c 128,-1,6
 108 711 108 711 122 711 c 0,7,8
 137 711 137 711 145 703 c 128,-1,9
 153 695 153 695 153 679 c 2,10,-1
 153 385 l 1,11,-1
 603 385 l 1,12,-1
 603 679 l 2,13,14
 603 695 603 695 611 703 c 128,-1,15
 619 711 619 711 634 711 c 0,16,17
 648 711 648 711 656 703 c 128,-1,18
 664 695 664 695 664 679 c 2,19,-1
 664 26 l 2,20,21
 664 11 664 11 656 2.5 c 128,-1,22
 648 -6 648 -6 634 -6 c 0,23,24
 619 -6 619 -6 611 2.5 c 128,-1,25
 603 11 603 11 603 26 c 2,26,-1
 603 330 l 1,27,-1
 153 330 l 1,28,-1
 153 26 l 2,29,30
 153 11 153 11 145.5 2.5 c 128,-1,31
 138 -6 138 -6 122 -6 c 0,0,1
EndSplineSet
EndChar

StartChar: Hbar
Encoding: 294 294 82
Width: 789
GlyphClass: 1
Flags: W
LayerCount: 2
Fore
SplineSet
139 -6 m 0,0,1
 125 -6 125 -6 116.5 2.5 c 128,-1,2
 108 11 108 11 108 26 c 2,3,-1
 108 534 l 1,4,-1
 124 523 l 1,5,-1
 36 523 l 2,6,7
 8 523 8 523 8 549 c 0,8,9
 8 561 8 561 16 567.5 c 128,-1,10
 24 574 24 574 36 574 c 2,11,-1
 120 574 l 1,12,-1
 108 559 l 1,13,-1
 108 679 l 2,14,15
 108 695 108 695 116.5 703 c 128,-1,16
 125 711 125 711 139 711 c 0,17,18
 154 711 154 711 162 703 c 128,-1,19
 170 695 170 695 170 679 c 2,20,-1
 170 559 l 1,21,-1
 159 574 l 1,22,-1
 630 574 l 1,23,-1
 619 559 l 1,24,-1
 619 679 l 2,25,26
 619 695 619 695 627.5 703 c 128,-1,27
 636 711 636 711 650 711 c 0,28,29
 665 711 665 711 673 703 c 128,-1,30
 681 695 681 695 681 679 c 2,31,-1
 681 559 l 1,32,-1
 668 574 l 1,33,-1
 753 574 l 2,34,35
 781 574 781 574 781 549 c 0,36,37
 781 537 781 537 774 530 c 128,-1,38
 767 523 767 523 753 523 c 2,39,-1
 664 523 l 1,40,-1
 681 534 l 1,41,-1
 681 26 l 2,42,43
 681 11 681 11 673 2.5 c 128,-1,44
 665 -6 665 -6 650 -6 c 0,45,46
 636 -6 636 -6 627.5 2.5 c 128,-1,47
 619 11 619 11 619 26 c 2,48,-1
 619 328 l 1,49,-1
 170 328 l 1,50,-1
 170 26 l 2,51,52
 170 11 170 11 162.5 2.5 c 128,-1,53
 155 -6 155 -6 139 -6 c 0,0,1
170 382 m 1,54,-1
 619 382 l 1,55,-1
 619 523 l 1,56,-1
 170 523 l 1,57,-1
 170 382 l 1,54,-1
EndSplineSet
EndChar

StartChar: I
Encoding: 73 73 86
Width: 245
GlyphClass: 2
Flags: W
AnchorPoint: "Anchor-3" 147 0 basechar 0
AnchorPoint: "Anchor-2" 122 0 basechar 0
AnchorPoint: "Anchor-0" 122 705 basechar 0
LayerCount: 2
Fore
SplineSet
122 -6 m 0,0,1
 108 -6 108 -6 100 2.5 c 128,-1,2
 92 11 92 11 92 26 c 2,3,-1
 92 679 l 2,4,5
 92 695 92 695 100 703 c 128,-1,6
 108 711 108 711 122 711 c 0,7,8
 137 711 137 711 145 703 c 128,-1,9
 153 695 153 695 153 679 c 2,10,-1
 153 26 l 2,11,12
 153 11 153 11 145.5 2.5 c 128,-1,13
 138 -6 138 -6 122 -6 c 0,0,1
EndSplineSet
EndChar

StartChar: Iogonek
Encoding: 302 302 100
Width: 245
GlyphClass: 1
Flags: W
LayerCount: 2
Fore
SplineSet
129 -191 m 0,0,1
 85 -191 85 -191 57.5 -165.5 c 128,-1,2
 30 -140 30 -140 30 -96 c 0,3,4
 30 -63 30 -63 48 -32.5 c 128,-1,5
 66 -2 66 -2 100 20 c 1,6,-1
 96 8 l 1,7,8
 94 12 94 12 93 17 c 128,-1,9
 92 22 92 22 92 26 c 2,10,-1
 92 679 l 2,11,12
 92 695 92 695 100 703 c 128,-1,13
 108 711 108 711 122 711 c 0,14,15
 137 711 137 711 145 703 c 128,-1,16
 153 695 153 695 153 679 c 2,17,-1
 153 26 l 2,18,19
 153 15 153 15 149 7.5 c 128,-1,20
 145 0 145 0 138 -4 c 0,21,22
 116 -16 116 -16 97 -38 c 128,-1,23
 78 -60 78 -60 78 -90 c 256,24,25
 78 -120 78 -120 95 -134 c 128,-1,26
 112 -148 112 -148 137 -148 c 0,27,28
 147 -148 147 -148 156 -146.5 c 128,-1,29
 165 -145 165 -145 174 -142 c 0,30,31
 186 -138 186 -138 192.5 -142.5 c 128,-1,32
 199 -147 199 -147 200.5 -155 c 128,-1,33
 202 -163 202 -163 198.5 -170.5 c 128,-1,34
 195 -178 195 -178 186 -182 c 0,35,36
 172 -187 172 -187 157.5 -189 c 128,-1,37
 143 -191 143 -191 129 -191 c 0,0,1
EndSplineSet
EndChar

StartChar: J
Encoding: 74 74 102
Width: 310
GlyphClass: 2
Flags: W
AnchorPoint: "Anchor-2" 189 0 basechar 0
AnchorPoint: "Anchor-0" 188 705 basechar 0
LayerCount: 2
Fore
SplineSet
20 -5 m 2,0,1
 5 -6 5 -6 -3.5 2.5 c 128,-1,2
 -12 11 -12 11 -12 23 c 0,3,4
 -12 32 -12 32 -5.5 39.5 c 128,-1,5
 1 47 1 47 13 48 c 2,6,-1
 46 51 l 2,7,8
 99 55 99 55 128 90 c 128,-1,9
 157 125 157 125 157 183 c 2,10,-1
 157 680 l 2,11,12
 157 695 157 695 165 703 c 128,-1,13
 173 711 173 711 188 711 c 256,14,15
 203 711 203 711 211 703 c 128,-1,16
 219 695 219 695 219 680 c 2,17,-1
 219 182 l 2,18,19
 219 127 219 127 200 87 c 128,-1,20
 181 47 181 47 143.5 24.5 c 128,-1,21
 106 2 106 2 52 -3 c 2,22,-1
 20 -5 l 2,0,1
EndSplineSet
EndChar

StartChar: K
Encoding: 75 75 104
Width: 607
GlyphClass: 2
Flags: W
AnchorPoint: "Anchor-2" 309 0 basechar 0
AnchorPoint: "Anchor-0" 308 705 basechar 0
LayerCount: 2
Fore
SplineSet
122 -6 m 0,0,1
 108 -6 108 -6 100 2.5 c 128,-1,2
 92 11 92 11 92 26 c 2,3,-1
 92 680 l 2,4,5
 92 695 92 695 100 703 c 128,-1,6
 108 711 108 711 122 711 c 0,7,8
 137 711 137 711 145 703 c 128,-1,9
 153 695 153 695 153 680 c 2,10,-1
 153 381 l 1,11,-1
 155 381 l 1,12,-1
 498 693 l 2,13,14
 509 702 509 702 519 706.5 c 128,-1,15
 529 711 529 711 540 711 c 0,16,17
 554 711 554 711 560.5 704.5 c 128,-1,18
 567 698 567 698 566 688.5 c 128,-1,19
 565 679 565 679 555 670 c 2,20,-1
 191 341 l 1,21,-1
 193 379 l 1,22,-1
 572 41 l 2,23,24
 584 30 584 30 585 19 c 128,-1,25
 586 8 586 8 578.5 1 c 128,-1,26
 571 -6 571 -6 557 -6 c 0,27,28
 545 -6 545 -6 536.5 -1 c 128,-1,29
 528 4 528 4 517 13 c 2,30,-1
 155 335 l 1,31,-1
 153 335 l 1,32,-1
 153 26 l 2,33,34
 153 11 153 11 145.5 2.5 c 128,-1,35
 138 -6 138 -6 122 -6 c 0,0,1
EndSplineSet
EndChar

StartChar: L
Encoding: 76 76 106
Width: 535
GlyphClass: 2
Flags: W
AnchorPoint: "Anchor-5" 167 387 basechar 0
AnchorPoint: "Anchor-2" 306 0 basechar 0
AnchorPoint: "Anchor-1" 272 705 basechar 0
AnchorPoint: "Anchor-0" 122 705 basechar 0
LayerCount: 2
Fore
SplineSet
123 0 m 2,0,1
 109 0 109 0 100.5 8.5 c 128,-1,2
 92 17 92 17 92 32 c 2,3,-1
 92 678 l 2,4,5
 92 694 92 694 100 702 c 128,-1,6
 108 710 108 710 122 710 c 0,7,8
 137 710 137 710 145 702 c 128,-1,9
 153 694 153 694 153 678 c 2,10,-1
 153 55 l 1,11,-1
 497 55 l 2,12,13
 512 55 512 55 519.5 48 c 128,-1,14
 527 41 527 41 527 28 c 0,15,16
 527 14 527 14 519.5 7 c 128,-1,17
 512 0 512 0 497 0 c 2,18,-1
 123 0 l 2,0,1
EndSplineSet
EndChar

StartChar: M
Encoding: 77 77 116
Width: 849
GlyphClass: 2
Flags: W
AnchorPoint: "Anchor-2" 425 0 basechar 0
AnchorPoint: "Anchor-0" 425 705 basechar 0
LayerCount: 2
Fore
SplineSet
122 -6 m 0,0,1
 109 -6 109 -6 101.5 2 c 128,-1,2
 94 10 94 10 94 24 c 2,3,-1
 94 681 l 2,4,5
 94 696 94 696 101.5 703.5 c 128,-1,6
 109 711 109 711 121 711 c 0,7,8
 134 711 134 711 141 706 c 128,-1,9
 148 701 148 701 154 690 c 2,10,-1
 440 147 l 1,11,-1
 412 147 l 1,12,-1
 696 690 l 2,13,14
 703 701 703 701 709.5 706 c 128,-1,15
 716 711 716 711 729 711 c 0,16,17
 741 711 741 711 748.5 703.5 c 128,-1,18
 756 696 756 696 756 681 c 2,19,-1
 756 24 l 2,20,21
 756 10 756 10 749 2 c 128,-1,22
 742 -6 742 -6 728 -6 c 256,23,24
 714 -6 714 -6 706.5 2 c 128,-1,25
 699 10 699 10 699 24 c 2,26,-1
 699 631 l 1,27,-1
 723 631 l 1,28,-1
 455 123 l 2,29,30
 450 113 450 113 444 108 c 128,-1,31
 438 103 438 103 427 103 c 0,32,33
 415 103 415 103 408.5 108.5 c 128,-1,34
 402 114 402 114 397 123 c 2,35,-1
 126 632 l 1,36,-1
 150 632 l 1,37,-1
 150 24 l 2,38,39
 150 10 150 10 143 2 c 128,-1,40
 136 -6 136 -6 122 -6 c 0,0,1
EndSplineSet
EndChar

StartChar: N
Encoding: 78 78 118
Width: 736
GlyphClass: 2
Flags: W
AnchorPoint: "Anchor-2" 368 0 basechar 0
AnchorPoint: "Anchor-0" 368 705 basechar 0
LayerCount: 2
Fore
SplineSet
121 -6 m 0,0,1
 107 -6 107 -6 99.5 2 c 128,-1,2
 92 10 92 10 92 25 c 2,3,-1
 92 679 l 2,4,5
 92 695 92 695 99 703 c 128,-1,6
 106 711 106 711 118 711 c 0,7,8
 131 711 131 711 137 707 c 128,-1,9
 143 703 143 703 150 692 c 2,10,-1
 610 73 l 1,11,-1
 587 73 l 1,12,-1
 587 681 l 2,13,14
 587 696 587 696 594.5 703.5 c 128,-1,15
 602 711 602 711 616 711 c 0,16,17
 629 711 629 711 636.5 703.5 c 128,-1,18
 644 696 644 696 644 681 c 2,19,-1
 644 25 l 2,20,21
 644 10 644 10 637.5 2 c 128,-1,22
 631 -6 631 -6 619 -6 c 0,23,24
 608 -6 608 -6 601 -1.5 c 128,-1,25
 594 3 594 3 586 13 c 2,26,-1
 127 632 l 1,27,-1
 149 632 l 1,28,-1
 149 25 l 2,29,30
 149 10 149 10 141.5 2 c 128,-1,31
 134 -6 134 -6 121 -6 c 0,0,1
EndSplineSet
EndChar

StartChar: Eng
Encoding: 330 330 128
Width: 736
GlyphClass: 2
Flags: W
AnchorPoint: "Anchor-2" 368 0 basechar 0
AnchorPoint: "Anchor-0" 368 705 basechar 0
LayerCount: 2
Fore
SplineSet
472 -191 m 0,0,1
 460 -192 460 -192 452.5 -187 c 128,-1,2
 445 -182 445 -182 442.5 -174.5 c 128,-1,3
 440 -167 440 -167 441.5 -159.5 c 128,-1,4
 443 -152 443 -152 449 -146.5 c 128,-1,5
 455 -141 455 -141 465 -141 c 0,6,7
 525 -138 525 -138 556 -110 c 128,-1,8
 587 -82 587 -82 587 -19 c 2,9,-1
 587 31 l 1,10,-1
 596 0 l 1,11,-1
 127 632 l 1,12,-1
 149 632 l 1,13,-1
 149 25 l 2,14,15
 149 10 149 10 141.5 2 c 128,-1,16
 134 -6 134 -6 121 -6 c 0,17,18
 107 -6 107 -6 99.5 2 c 128,-1,19
 92 10 92 10 92 25 c 2,20,-1
 92 679 l 2,21,22
 92 695 92 695 99 703 c 128,-1,23
 106 711 106 711 118 711 c 0,24,25
 131 711 131 711 137 707 c 128,-1,26
 143 703 143 703 150 692 c 2,27,-1
 610 73 l 1,28,-1
 587 73 l 1,29,-1
 587 681 l 2,30,31
 587 696 587 696 594.5 703.5 c 128,-1,32
 602 711 602 711 616 711 c 0,33,34
 629 711 629 711 636.5 703.5 c 128,-1,35
 644 696 644 696 644 681 c 2,36,-1
 644 -14 l 2,37,38
 644 -106 644 -106 598.5 -148 c 128,-1,39
 553 -190 553 -190 472 -191 c 0,0,1
EndSplineSet
EndChar

StartChar: O
Encoding: 79 79 129
Width: 759
GlyphClass: 2
Flags: W
AnchorPoint: "Anchor-5" 380 353 basechar 0
AnchorPoint: "Anchor-3" 435 0 basechar 0
AnchorPoint: "Anchor-2" 379 0 basechar 0
AnchorPoint: "Anchor-1" 451 705 basechar 0
AnchorPoint: "Anchor-0" 379 705 basechar 0
LayerCount: 2
Fore
SplineSet
379 -8 m 0,0,1
 283 -8 283 -8 212 36 c 128,-1,2
 141 80 141 80 102.5 161 c 128,-1,3
 64 242 64 242 64 353 c 0,4,5
 64 437 64 437 85.5 503.5 c 128,-1,6
 107 570 107 570 148 616.5 c 128,-1,7
 189 663 189 663 247.5 688 c 128,-1,8
 306 713 306 713 379 713 c 0,9,10
 477 713 477 713 548 669.5 c 128,-1,11
 619 626 619 626 657 545.5 c 128,-1,12
 695 465 695 465 695 354 c 0,13,14
 695 270 695 270 673 203 c 128,-1,15
 651 136 651 136 610 89 c 128,-1,16
 569 42 569 42 510.5 17 c 128,-1,17
 452 -8 452 -8 379 -8 c 0,0,1
379 48 m 0,18,19
 459 48 459 48 515 84 c 128,-1,20
 571 120 571 120 600.5 188 c 128,-1,21
 630 256 630 256 630 353 c 0,22,23
 630 498 630 498 564.5 577.5 c 128,-1,24
 499 657 499 657 379 657 c 0,25,26
 300 657 300 657 244 621 c 128,-1,27
 188 585 188 585 158.5 517 c 128,-1,28
 129 449 129 449 129 353 c 0,29,30
 129 209 129 209 195 128.5 c 128,-1,31
 261 48 261 48 379 48 c 0,18,19
EndSplineSet
Substitution2: "Single Substitution lookup 29 subtable" ordmasculine
Substitution2: "'aalt' Access All Alternates lookup 0 subtable" ordmasculine
EndChar

StartChar: OE
Encoding: 338 338 163
Width: 1042
GlyphClass: 2
Flags: W
AnchorPoint: "Anchor-2" 588 0 basechar 0
AnchorPoint: "Anchor-0" 588 705 basechar 0
LayerCount: 2
Fore
SplineSet
415 0 m 2,0,1
 246 0 246 0 155 91 c 128,-1,2
 64 182 64 182 64 353 c 0,3,4
 64 439 64 439 87.5 505 c 128,-1,5
 111 571 111 571 155.5 615.5 c 128,-1,6
 200 660 200 660 265.5 682.5 c 128,-1,7
 331 705 331 705 415 705 c 2,8,-1
 970 705 l 2,9,10
 984 705 984 705 991 698 c 128,-1,11
 998 691 998 691 998 679 c 0,12,13
 998 665 998 665 991 658.5 c 128,-1,14
 984 652 984 652 970 652 c 2,15,-1
 618 652 l 1,16,-1
 618 384 l 1,17,-1
 950 384 l 2,18,19
 963 384 963 384 970.5 377.5 c 128,-1,20
 978 371 978 371 978 358 c 256,21,22
 978 345 978 345 970.5 338 c 128,-1,23
 963 331 963 331 950 331 c 2,24,-1
 618 331 l 1,25,-1
 618 53 l 1,26,-1
 970 53 l 2,27,28
 984 53 984 53 991 46.5 c 128,-1,29
 998 40 998 40 998 27 c 256,30,31
 998 14 998 14 991 7 c 128,-1,32
 984 0 984 0 970 0 c 2,33,-1
 415 0 l 2,0,1
420 54 m 2,34,-1
 558 54 l 1,35,-1
 558 651 l 1,36,-1
 420 651 l 2,37,38
 347 651 347 651 292.5 632.5 c 128,-1,39
 238 614 238 614 202 576.5 c 128,-1,40
 166 539 166 539 147.5 483 c 128,-1,41
 129 427 129 427 129 353 c 0,42,43
 129 204 129 204 201.5 129 c 128,-1,44
 274 54 274 54 420 54 c 2,34,-1
EndSplineSet
EndChar

StartChar: P
Encoding: 80 80 164
Width: 624
GlyphClass: 2
Flags: W
AnchorPoint: "Anchor-2" 320 0 basechar 0
AnchorPoint: "Anchor-0" 320 705 basechar 0
LayerCount: 2
Fore
SplineSet
122 -6 m 0,0,1
 108 -6 108 -6 100 2.5 c 128,-1,2
 92 11 92 11 92 26 c 2,3,-1
 92 673 l 2,4,5
 92 689 92 689 100.5 697 c 128,-1,6
 109 705 109 705 123 705 c 2,7,-1
 358 705 l 2,8,9
 470 705 470 705 530 651 c 128,-1,10
 590 597 590 597 590 497 c 0,11,12
 590 398 590 398 530 343.5 c 128,-1,13
 470 289 470 289 358 289 c 2,14,-1
 153 289 l 1,15,-1
 153 26 l 2,16,17
 153 11 153 11 145.5 2.5 c 128,-1,18
 138 -6 138 -6 122 -6 c 0,0,1
153 343 m 1,19,-1
 353 343 l 2,20,21
 440 343 440 343 484 382 c 128,-1,22
 528 421 528 421 528 497 c 256,23,24
 528 573 528 573 484 612.5 c 128,-1,25
 440 652 440 652 353 652 c 2,26,-1
 153 652 l 1,27,-1
 153 343 l 1,19,-1
EndSplineSet
EndChar

StartChar: Thorn
Encoding: 222 222 165
Width: 625
GlyphClass: 2
Flags: W
AnchorPoint: "Anchor-2" 320 0 basechar 0
AnchorPoint: "Anchor-0" 320 705 basechar 0
LayerCount: 2
Fore
SplineSet
122 -5 m 0,0,1
 108 -5 108 -5 100 3.5 c 128,-1,2
 92 12 92 12 92 27 c 2,3,-1
 92 678 l 2,4,5
 92 694 92 694 100 702 c 128,-1,6
 108 710 108 710 123 710 c 256,7,8
 138 710 138 710 145.5 702.5 c 128,-1,9
 153 695 153 695 153 680 c 2,10,-1
 153 573 l 1,11,-1
 359 573 l 2,12,13
 471 573 471 573 531 519 c 128,-1,14
 591 465 591 465 591 365 c 0,15,16
 591 266 591 266 531 212 c 128,-1,17
 471 158 471 158 359 158 c 2,18,-1
 153 158 l 1,19,-1
 153 27 l 2,20,21
 153 12 153 12 145.5 3.5 c 128,-1,22
 138 -5 138 -5 122 -5 c 0,0,1
153 211 m 1,23,-1
 353 211 l 2,24,25
 441 211 441 211 484.5 250 c 128,-1,26
 528 289 528 289 528 365 c 256,27,28
 528 441 528 441 484.5 480.5 c 128,-1,29
 441 520 441 520 353 520 c 2,30,-1
 153 520 l 1,31,-1
 153 211 l 1,23,-1
EndSplineSet
EndChar

StartChar: Q
Encoding: 81 81 166
Width: 759
GlyphClass: 2
Flags: W
AnchorPoint: "Anchor-5" 380 353 basechar 0
AnchorPoint: "Anchor-3" 435 0 basechar 0
AnchorPoint: "Anchor-2" 377 0 basechar 0
AnchorPoint: "Anchor-1" 451 705 basechar 0
AnchorPoint: "Anchor-0" 377 705 basechar 0
LayerCount: 2
Fore
SplineSet
611 -142 m 2,0,1
 618 -154 618 -154 617.5 -163.5 c 128,-1,2
 617 -173 617 -173 611 -180 c 128,-1,3
 605 -187 605 -187 595.5 -189 c 128,-1,4
 586 -191 586 -191 576.5 -186.5 c 128,-1,5
 567 -182 567 -182 560 -170 c 2,6,-1
 498 -70 l 2,7,8
 480 -40 480 -40 450 -24 c 128,-1,9
 420 -8 420 -8 379 -8 c 1,10,-1
 432 16 l 1,11,12
 480 16 480 16 507 -0.5 c 128,-1,13
 534 -17 534 -17 561 -63 c 2,14,-1
 611 -142 l 2,0,1
379 -8 m 0,15,16
 283 -8 283 -8 212 36 c 128,-1,17
 141 80 141 80 102.5 161 c 128,-1,18
 64 242 64 242 64 353 c 0,19,20
 64 437 64 437 85.5 503.5 c 128,-1,21
 107 570 107 570 148 616.5 c 128,-1,22
 189 663 189 663 247.5 688 c 128,-1,23
 306 713 306 713 379 713 c 0,24,25
 477 713 477 713 548 669.5 c 128,-1,26
 619 626 619 626 657 545.5 c 128,-1,27
 695 465 695 465 695 354 c 0,28,29
 695 270 695 270 673 203 c 128,-1,30
 651 136 651 136 610 89 c 128,-1,31
 569 42 569 42 510.5 17 c 128,-1,32
 452 -8 452 -8 379 -8 c 0,15,16
379 48 m 0,33,34
 459 48 459 48 515 84 c 128,-1,35
 571 120 571 120 600.5 188 c 128,-1,36
 630 256 630 256 630 353 c 0,37,38
 630 498 630 498 564.5 577.5 c 128,-1,39
 499 657 499 657 379 657 c 0,40,41
 300 657 300 657 244 621 c 128,-1,42
 188 585 188 585 158.5 517 c 128,-1,43
 129 449 129 449 129 353 c 0,44,45
 129 209 129 209 195 128.5 c 128,-1,46
 261 48 261 48 379 48 c 0,33,34
EndSplineSet
EndChar

StartChar: R
Encoding: 82 82 167
Width: 661
GlyphClass: 2
Flags: W
AnchorPoint: "Anchor-2" 337 0 basechar 0
AnchorPoint: "Anchor-0" 337 705 basechar 0
LayerCount: 2
Fore
SplineSet
122 -6 m 0,0,1
 108 -6 108 -6 100 2.5 c 128,-1,2
 92 11 92 11 92 26 c 2,3,-1
 92 673 l 2,4,5
 92 689 92 689 100.5 697 c 128,-1,6
 109 705 109 705 123 705 c 2,7,-1
 358 705 l 2,8,9
 470 705 470 705 530 653 c 128,-1,10
 590 601 590 601 590 505 c 0,11,12
 590 443 590 443 563 398.5 c 128,-1,13
 536 354 536 354 483.5 331 c 128,-1,14
 431 308 431 308 358 308 c 1,15,-1
 369 321 l 1,16,-1
 383 321 l 2,17,18
 421 321 421 321 449.5 301 c 128,-1,19
 478 281 478 281 501 236 c 2,20,-1
 607 39 l 2,21,22
 614 28 614 28 613.5 17.5 c 128,-1,23
 613 7 613 7 606 0.5 c 128,-1,24
 599 -6 599 -6 588 -6 c 0,25,26
 575 -6 575 -6 566.5 0 c 128,-1,27
 558 6 558 6 552 17 c 2,28,-1
 440 226 l 2,29,30
 414 274 414 274 382 289.5 c 128,-1,31
 350 305 350 305 296 305 c 2,32,-1
 153 305 l 1,33,-1
 153 26 l 2,34,35
 153 11 153 11 145.5 2.5 c 128,-1,36
 138 -6 138 -6 122 -6 c 0,0,1
153 357 m 1,37,-1
 350 357 l 2,38,39
 439 357 439 357 483.5 394.5 c 128,-1,40
 528 432 528 432 528 505 c 0,41,42
 528 577 528 577 483.5 614.5 c 128,-1,43
 439 652 439 652 350 652 c 2,44,-1
 153 652 l 1,45,-1
 153 357 l 1,37,-1
EndSplineSet
EndChar

StartChar: S
Encoding: 83 83 175
Width: 607
GlyphClass: 2
Flags: W
AnchorPoint: "Anchor-2" 313 0 basechar 0
AnchorPoint: "Anchor-0" 309 705 basechar 0
LayerCount: 2
Fore
SplineSet
312 -8 m 0,0,1
 264 -8 264 -8 219 0 c 128,-1,2
 174 8 174 8 135.5 24.5 c 128,-1,3
 97 41 97 41 66 65 c 0,4,5
 56 72 56 72 52.5 81.5 c 128,-1,6
 49 91 49 91 51.5 99.5 c 128,-1,7
 54 108 54 108 60.5 114 c 128,-1,8
 67 120 67 120 76 120.5 c 128,-1,9
 85 121 85 121 95 114 c 0,10,11
 141 80 141 80 192.5 64 c 128,-1,12
 244 48 244 48 312 48 c 0,13,14
 407 48 407 48 454.5 85 c 128,-1,15
 502 122 502 122 502 182 c 0,16,17
 502 232 502 232 467.5 260 c 128,-1,18
 433 288 433 288 354 304 c 2,19,-1
 253 325 l 2,20,21
 158 344 158 344 112 389 c 128,-1,22
 66 434 66 434 66 509 c 0,23,24
 66 555 66 555 84 592.5 c 128,-1,25
 102 630 102 630 135 657 c 128,-1,26
 168 684 168 684 213.5 698.5 c 128,-1,27
 259 713 259 713 314 713 c 0,28,29
 379 713 379 713 433.5 695 c 128,-1,30
 488 677 488 677 533 638 c 0,31,32
 542 631 542 631 545 621.5 c 128,-1,33
 548 612 548 612 545 603.5 c 128,-1,34
 542 595 542 595 536 590 c 128,-1,35
 530 585 530 585 521 584.5 c 128,-1,36
 512 584 512 584 502 592 c 0,37,38
 460 626 460 626 414.5 641.5 c 128,-1,39
 369 657 369 657 314 657 c 0,40,41
 258 657 258 657 216.5 639 c 128,-1,42
 175 621 175 621 152 588 c 128,-1,43
 129 555 129 555 129 510 c 0,44,45
 129 458 129 458 161 427 c 128,-1,46
 193 396 193 396 264 382 c 2,47,-1
 366 361 l 2,48,49
 467 340 467 340 516 298.5 c 128,-1,50
 565 257 565 257 565 185 c 0,51,52
 565 142 565 142 547.5 106.5 c 128,-1,53
 530 71 530 71 497 45 c 128,-1,54
 464 19 464 19 417.5 5.5 c 128,-1,55
 371 -8 371 -8 312 -8 c 0,0,1
EndSplineSet
EndChar

StartChar: uni1E9E
Encoding: 7838 7838 186
Width: 705
GlyphClass: 1
Flags: W
LayerCount: 2
Fore
SplineSet
422 -8 m 0,0,1
 368 -8 368 -8 321 5.5 c 128,-1,2
 274 19 274 19 240 46 c 0,3,4
 231 53 231 53 228.5 61 c 128,-1,5
 226 69 226 69 228.5 77.5 c 128,-1,6
 231 86 231 86 236.5 92 c 128,-1,7
 242 98 242 98 250.5 98.5 c 128,-1,8
 259 99 259 99 268 93 c 0,9,10
 302 67 302 67 339.5 56.5 c 128,-1,11
 377 46 377 46 419 46 c 0,12,13
 496 46 496 46 536 84 c 128,-1,14
 576 122 576 122 576 189 c 0,15,16
 576 255 576 255 534 291.5 c 128,-1,17
 492 328 492 328 405 328 c 2,18,-1
 288 328 l 2,19,20
 275 328 275 328 267 335 c 128,-1,21
 259 342 259 342 259 355 c 0,22,23
 259 367 259 367 267 374 c 128,-1,24
 275 381 275 381 287 381 c 2,25,-1
 380 381 l 2,26,27
 452 381 452 381 495 416.5 c 128,-1,28
 538 452 538 452 538 520 c 256,29,30
 538 588 538 588 493 623.5 c 128,-1,31
 448 659 448 659 363 659 c 0,32,33
 260 659 260 659 206.5 610 c 128,-1,34
 153 561 153 561 153 463 c 2,35,-1
 153 26 l 2,36,37
 153 11 153 11 145 2.5 c 128,-1,38
 137 -6 137 -6 122 -6 c 0,39,40
 108 -6 108 -6 100 2.5 c 128,-1,41
 92 11 92 11 92 26 c 2,42,-1
 92 465 l 2,43,44
 92 547 92 547 124.5 602 c 128,-1,45
 157 657 157 657 218 685 c 128,-1,46
 279 713 279 713 364 713 c 0,47,48
 436 713 436 713 489 690.5 c 128,-1,49
 542 668 542 668 571 627 c 128,-1,50
 600 586 600 586 600 528 c 0,51,52
 600 462 600 462 565 414.5 c 128,-1,53
 530 367 530 367 470 353 c 1,54,-1
 470 368 l 1,55,56
 521 362 521 362 558.5 338.5 c 128,-1,57
 596 315 596 315 617 277 c 128,-1,58
 638 239 638 239 638 187 c 0,59,60
 638 125 638 125 612 81 c 128,-1,61
 586 37 586 37 538 14.5 c 128,-1,62
 490 -8 490 -8 422 -8 c 0,0,1
EndSplineSet
EndChar

StartChar: T
Encoding: 84 84 187
Width: 594
GlyphClass: 2
Flags: W
AnchorPoint: "Anchor-5" 297 358 basechar 0
AnchorPoint: "Anchor-2" 297 0 basechar 0
AnchorPoint: "Anchor-0" 297 705 basechar 0
LayerCount: 2
Fore
SplineSet
297 -6 m 0,0,1
 282 -6 282 -6 274 2.5 c 128,-1,2
 266 11 266 11 266 26 c 2,3,-1
 266 650 l 1,4,-1
 27 650 l 2,5,6
 13 650 13 650 5 658 c 128,-1,7
 -3 666 -3 666 -3 678 c 0,8,9
 -3 691 -3 691 5 698 c 128,-1,10
 13 705 13 705 27 705 c 2,11,-1
 568 705 l 2,12,13
 582 705 582 705 589.5 698 c 128,-1,14
 597 691 597 691 597 678 c 256,15,16
 597 665 597 665 589.5 657.5 c 128,-1,17
 582 650 582 650 568 650 c 2,18,-1
 328 650 l 1,19,-1
 328 26 l 2,20,21
 328 11 328 11 320.5 2.5 c 128,-1,22
 313 -6 313 -6 297 -6 c 0,0,1
EndSplineSet
EndChar

StartChar: U
Encoding: 85 85 194
Width: 724
GlyphClass: 2
Flags: W
AnchorPoint: "Anchor-3" 419 0 basechar 0
AnchorPoint: "Anchor-2" 362 0 basechar 0
AnchorPoint: "Anchor-1" 585 705 basechar 0
AnchorPoint: "Anchor-0" 362 705 basechar 0
LayerCount: 2
Fore
SplineSet
362 -8 m 0,0,1
 295 -8 295 -8 243 10 c 128,-1,2
 191 28 191 28 156.5 64 c 128,-1,3
 122 100 122 100 104.5 153 c 128,-1,4
 87 206 87 206 87 275 c 2,5,-1
 87 680 l 2,6,7
 87 696 87 696 95 703.5 c 128,-1,8
 103 711 103 711 117 711 c 0,9,10
 132 711 132 711 140 703.5 c 128,-1,11
 148 696 148 696 148 680 c 2,12,-1
 148 280 l 2,13,14
 148 163 148 163 202.5 105.5 c 128,-1,15
 257 48 257 48 362 48 c 0,16,17
 468 48 468 48 522 105.5 c 128,-1,18
 576 163 576 163 576 280 c 2,19,-1
 576 680 l 2,20,21
 576 696 576 696 584 703.5 c 128,-1,22
 592 711 592 711 607 711 c 0,23,24
 621 711 621 711 629 703.5 c 128,-1,25
 637 696 637 696 637 680 c 2,26,-1
 637 275 l 2,27,28
 637 183 637 183 606 119.5 c 128,-1,29
 575 56 575 56 513.5 24 c 128,-1,30
 452 -8 452 -8 362 -8 c 0,0,1
EndSplineSet
EndChar

StartChar: V
Encoding: 86 86 217
Width: 678
GlyphClass: 2
Flags: W
AnchorPoint: "Anchor-2" 339 0 basechar 0
AnchorPoint: "Anchor-0" 338 705 basechar 0
LayerCount: 2
Fore
SplineSet
339 -6 m 0,0,1
 325 -6 325 -6 315.5 1.5 c 128,-1,2
 306 9 306 9 299 23 c 2,3,-1
 18 672 l 2,4,5
 14 685 14 685 16 693.5 c 128,-1,6
 18 702 18 702 26 706.5 c 128,-1,7
 34 711 34 711 44 711 c 0,8,9
 58 711 58 711 65 705 c 128,-1,10
 72 699 72 699 78 687 c 2,11,-1
 354 45 l 1,12,-1
 326 45 l 1,13,-1
 602 687 l 2,14,15
 607 699 607 699 615 705 c 128,-1,16
 623 711 623 711 636 711 c 0,17,18
 647 711 647 711 654 706 c 128,-1,19
 661 701 661 701 662.5 692.5 c 128,-1,20
 664 684 664 684 659 672 c 2,21,-1
 378 23 l 2,22,23
 373 9 373 9 363.5 1.5 c 128,-1,24
 354 -6 354 -6 339 -6 c 0,0,1
EndSplineSet
EndChar

StartChar: W
Encoding: 87 87 218
Width: 1096
GlyphClass: 2
Flags: W
AnchorPoint: "Anchor-2" 549 0 basechar 0
AnchorPoint: "Anchor-0" 548 705 basechar 0
LayerCount: 2
Fore
SplineSet
308 -6 m 0,0,1
 294 -6 294 -6 285.5 1.5 c 128,-1,2
 277 9 277 9 271 24 c 2,3,-1
 45 674 l 2,4,5
 40 690 40 690 47.5 700.5 c 128,-1,6
 55 711 55 711 72 711 c 0,7,8
 85 711 85 711 93 705 c 128,-1,9
 101 699 101 699 106 684 c 2,10,-1
 325 44 l 1,11,-1
 293 44 l 1,12,-1
 514 681 l 2,13,14
 520 696 520 696 527.5 703.5 c 128,-1,15
 535 711 535 711 549 711 c 0,16,17
 562 711 562 711 569.5 703.5 c 128,-1,18
 577 696 577 696 582 681 c 2,19,-1
 802 44 l 1,20,-1
 772 44 l 1,21,-1
 993 684 l 2,22,23
 997 698 997 698 1005.5 704.5 c 128,-1,24
 1014 711 1014 711 1027 711 c 0,25,26
 1043 711 1043 711 1050.5 701 c 128,-1,27
 1058 691 1058 691 1051 674 c 2,28,-1
 825 24 l 2,29,30
 819 9 819 9 811 1.5 c 128,-1,31
 803 -6 803 -6 788 -6 c 0,32,33
 774 -6 774 -6 765.5 1.5 c 128,-1,34
 757 9 757 9 751 24 c 2,35,-1
 538 641 l 1,36,-1
 558 641 l 1,37,-1
 344 24 l 2,38,39
 338 9 338 9 330.5 1.5 c 128,-1,40
 323 -6 323 -6 308 -6 c 0,0,1
EndSplineSet
EndChar

StartChar: X
Encoding: 88 88 223
Width: 640
GlyphClass: 2
Flags: W
AnchorPoint: "Anchor-2" 321 0 basechar 0
AnchorPoint: "Anchor-0" 321 705 basechar 0
LayerCount: 2
Fore
SplineSet
67 -6 m 0,0,1
 54 -6 54 -6 46.5 0.5 c 128,-1,2
 39 7 39 7 38 16.5 c 128,-1,3
 37 26 37 26 44 36 c 2,4,-1
 292 371 l 1,5,-1
 292 351 l 1,6,-1
 60 666 l 2,7,8
 52 678 52 678 52.5 688 c 128,-1,9
 53 698 53 698 61 704.5 c 128,-1,10
 69 711 69 711 80 711 c 256,11,12
 91 711 91 711 98.5 706.5 c 128,-1,13
 106 702 106 702 114 691 c 2,14,-1
 331 395 l 1,15,-1
 312 395 l 1,16,-1
 527 691 l 2,17,18
 534 702 534 702 542 706.5 c 128,-1,19
 550 711 550 711 561 711 c 0,20,21
 573 711 573 711 580.5 705 c 128,-1,22
 588 699 588 699 588.5 688.5 c 128,-1,23
 589 678 589 678 581 666 c 2,24,-1
 348 351 l 1,25,-1
 348 371 l 1,26,-1
 596 36 l 2,27,28
 604 26 604 26 603 16.5 c 128,-1,29
 602 7 602 7 594 0.5 c 128,-1,30
 586 -6 586 -6 573 -6 c 0,31,32
 564 -6 564 -6 555.5 -1 c 128,-1,33
 547 4 547 4 539 14 c 2,34,-1
 307 331 l 1,35,-1
 333 331 l 1,36,-1
 101 14 l 2,37,38
 94 4 94 4 85 -1 c 128,-1,39
 76 -6 76 -6 67 -6 c 0,0,1
EndSplineSet
EndChar

StartChar: Y
Encoding: 89 89 224
Width: 586
GlyphClass: 2
Flags: W
AnchorPoint: "Anchor-2" 293 0 basechar 0
AnchorPoint: "Anchor-0" 293 705 basechar 0
LayerCount: 2
Fore
SplineSet
293 -6 m 0,0,1
 278 -6 278 -6 270 2.5 c 128,-1,2
 262 11 262 11 262 27 c 2,3,-1
 262 366 l 1,4,-1
 277 318 l 1,5,-1
 21 667 l 2,6,7
 13 678 13 678 13.5 688.5 c 128,-1,8
 14 699 14 699 21.5 705 c 128,-1,9
 29 711 29 711 40 711 c 256,10,11
 51 711 51 711 59.5 706.5 c 128,-1,12
 68 702 68 702 75 691 c 2,13,-1
 303 379 l 1,14,-1
 285 379 l 1,15,-1
 514 691 l 2,16,17
 522 702 522 702 529.5 706.5 c 128,-1,18
 537 711 537 711 548 711 c 256,19,20
 559 711 559 711 566 705 c 128,-1,21
 573 699 573 699 573.5 688.5 c 128,-1,22
 574 678 574 678 565 666 c 2,23,-1
 310 318 l 1,24,-1
 324 366 l 1,25,-1
 324 27 l 2,26,27
 324 -6 324 -6 293 -6 c 0,0,1
EndSplineSet
EndChar

StartChar: uni01B3
Encoding: 435 435 231
Width: 610
GlyphClass: 1
Flags: W
LayerCount: 2
Fore
SplineSet
293 -6 m 0,0,1
 278 -6 278 -6 270 3 c 128,-1,2
 262 12 262 12 262 28 c 2,3,-1
 262 366 l 1,4,-1
 277 318 l 1,5,-1
 21 667 l 2,6,7
 13 678 13 678 13.5 688.5 c 128,-1,8
 14 699 14 699 21.5 705 c 128,-1,9
 29 711 29 711 40 711 c 0,10,11
 49 711 49 711 54.5 709.5 c 128,-1,12
 60 708 60 708 65 703 c 128,-1,13
 70 698 70 698 76 690 c 2,14,-1
 303 379 l 1,15,-1
 286 379 l 1,16,-1
 468 638 l 2,17,18
 486 664 486 664 508 680.5 c 128,-1,19
 530 697 530 697 554 704.5 c 128,-1,20
 578 712 578 712 605 712 c 0,21,22
 633 712 633 712 647.5 707 c 128,-1,23
 662 702 662 702 662 683 c 0,24,25
 662 676 662 676 659.5 671 c 128,-1,26
 657 666 657 666 652 663.5 c 128,-1,27
 647 661 647 661 639 661 c 0,28,29
 635 661 635 661 625.5 662 c 128,-1,30
 616 663 616 663 612 663 c 0,31,32
 587 663 587 663 562.5 651.5 c 128,-1,33
 538 640 538 640 517 612 c 2,34,-1
 310 318 l 1,35,-1
 324 366 l 1,36,-1
 324 28 l 2,37,38
 324 -6 324 -6 293 -6 c 0,0,1
EndSplineSet
EndChar

StartChar: Z
Encoding: 90 90 235
Width: 582
GlyphClass: 2
Flags: W
AnchorPoint: "Anchor-2" 304 0 basechar 0
AnchorPoint: "Anchor-0" 303 705 basechar 0
LayerCount: 2
Fore
SplineSet
77 0 m 2,0,1
 66 0 66 0 58 5 c 128,-1,2
 50 10 50 10 47 18.5 c 128,-1,3
 44 27 44 27 46.5 38 c 128,-1,4
 49 49 49 49 58 62 c 2,5,-1
 490 678 l 1,6,-1
 490 650 l 1,7,-1
 73 650 l 2,8,9
 58 650 58 650 50 657.5 c 128,-1,10
 42 665 42 665 42 678 c 256,11,12
 42 691 42 691 50 698 c 128,-1,13
 58 705 58 705 73 705 c 2,14,-1
 516 705 l 2,15,16
 528 705 528 705 536 700 c 128,-1,17
 544 695 544 695 547 686.5 c 128,-1,18
 550 678 550 678 547 667 c 128,-1,19
 544 656 544 656 536 643 c 2,20,-1
 104 28 l 1,21,-1
 104 55 l 1,22,-1
 535 55 l 2,23,24
 550 55 550 55 558 48 c 128,-1,25
 566 41 566 41 566 28 c 0,26,27
 566 14 566 14 558 7 c 128,-1,28
 550 0 550 0 535 0 c 2,29,-1
 77 0 l 2,0,1
EndSplineSet
EndChar

StartChar: a
Encoding: 97 97 242
Width: 522
GlyphClass: 2
Flags: W
AnchorPoint: "Anchor-3" 435 0 basechar 0
AnchorPoint: "Anchor-2" 265 0 basechar 0
AnchorPoint: "Anchor-0" 268 484 basechar 0
LayerCount: 2
Fore
SplineSet
230 -8 m 0,0,1
 181 -8 181 -8 142.5 11 c 128,-1,2
 104 30 104 30 81.5 63 c 128,-1,3
 59 96 59 96 59 137 c 0,4,5
 59 191 59 191 86 222 c 128,-1,6
 113 253 113 253 177 265.5 c 128,-1,7
 241 278 241 278 353 278 c 2,8,-1
 396 278 l 1,9,-1
 396 233 l 1,10,-1
 354 233 l 2,11,12
 264 233 264 233 213.5 225.5 c 128,-1,13
 163 218 163 218 143 198 c 128,-1,14
 123 178 123 178 123 142 c 0,15,16
 123 97 123 97 154 69 c 128,-1,17
 185 41 185 41 238 41 c 0,18,19
 281 41 281 41 313.5 61.5 c 128,-1,20
 346 82 346 82 365 118 c 128,-1,21
 384 154 384 154 384 200 c 2,22,-1
 384 314 l 2,23,24
 384 381 384 381 357 411.5 c 128,-1,25
 330 442 330 442 271 442 c 0,26,27
 233 442 233 442 197.5 432 c 128,-1,28
 162 422 162 422 122 400 c 0,29,30
 111 394 111 394 102.5 396 c 128,-1,31
 94 398 94 398 89.5 404 c 128,-1,32
 85 410 85 410 83.5 418.5 c 128,-1,33
 82 427 82 427 86 435 c 128,-1,34
 90 443 90 443 100 448 c 0,35,36
 142 471 142 471 185.5 482.5 c 128,-1,37
 229 494 229 494 270 494 c 0,38,39
 329 494 329 494 367.5 474 c 128,-1,40
 406 454 406 454 424.5 414 c 128,-1,41
 443 374 443 374 443 311 c 2,42,-1
 443 25 l 2,43,44
 443 10 443 10 436 2 c 128,-1,45
 429 -6 429 -6 415 -6 c 256,46,47
 401 -6 401 -6 393 2 c 128,-1,48
 385 10 385 10 385 25 c 2,49,-1
 385 117 l 1,50,-1
 395 117 l 1,51,52
 386 78 386 78 363 50 c 128,-1,53
 340 22 340 22 306 7 c 128,-1,54
 272 -8 272 -8 230 -8 c 0,0,1
EndSplineSet
Substitution2: "'ss01' Style Set 1 lookup 35 subtable" a.ss01
Substitution2: "'salt' Stylistic Alternatives lookup 34 subtable" a.ss01
Substitution2: "Single Substitution lookup 29 subtable" ordfeminine
AlternateSubs2: "'aalt' Access All Alternates lookup 1 subtable" a.ss01 ordfeminine
EndChar

StartChar: aogonek
Encoding: 261 261 265
Width: 522
GlyphClass: 1
Flags: W
LayerCount: 2
Fore
SplineSet
417 -191 m 0,0,1
 373 -191 373 -191 345.5 -165.5 c 128,-1,2
 318 -140 318 -140 318 -96 c 0,3,4
 318 -61 318 -61 339.5 -28 c 128,-1,5
 361 5 361 5 399 27 c 1,6,-1
 390 7 l 1,7,8
 387 11 387 11 386 16 c 128,-1,9
 385 21 385 21 385 27 c 2,10,-1
 385 117 l 1,11,-1
 395 117 l 1,12,13
 386 78 386 78 363 50 c 128,-1,14
 340 22 340 22 306 7 c 128,-1,15
 272 -8 272 -8 230 -8 c 0,16,17
 181 -8 181 -8 142.5 11 c 128,-1,18
 104 30 104 30 81.5 63 c 128,-1,19
 59 96 59 96 59 137 c 0,20,21
 59 191 59 191 86 222 c 128,-1,22
 113 253 113 253 177 265.5 c 128,-1,23
 241 278 241 278 353 278 c 2,24,-1
 396 278 l 1,25,-1
 396 233 l 1,26,-1
 354 233 l 2,27,28
 264 233 264 233 213.5 225.5 c 128,-1,29
 163 218 163 218 143 198 c 128,-1,30
 123 178 123 178 123 142 c 0,31,32
 123 97 123 97 154 69 c 128,-1,33
 185 41 185 41 238 41 c 0,34,35
 281 41 281 41 313.5 61.5 c 128,-1,36
 346 82 346 82 365 118 c 128,-1,37
 384 154 384 154 384 200 c 2,38,-1
 384 314 l 2,39,40
 384 381 384 381 357 411.5 c 128,-1,41
 330 442 330 442 271 442 c 0,42,43
 233 442 233 442 197.5 432 c 128,-1,44
 162 422 162 422 122 400 c 0,45,46
 111 394 111 394 102.5 396 c 128,-1,47
 94 398 94 398 89.5 404 c 128,-1,48
 85 410 85 410 83.5 418.5 c 128,-1,49
 82 427 82 427 86 435 c 128,-1,50
 90 443 90 443 100 448 c 0,51,52
 142 471 142 471 185.5 482.5 c 128,-1,53
 229 494 229 494 270 494 c 0,54,55
 329 494 329 494 367.5 474 c 128,-1,56
 406 454 406 454 424.5 414 c 128,-1,57
 443 374 443 374 443 311 c 2,58,-1
 443 25 l 2,59,60
 443 13 443 13 438 5.5 c 128,-1,61
 433 -2 433 -2 425 -6 c 0,62,63
 403 -19 403 -19 384.5 -40 c 128,-1,64
 366 -61 366 -61 366 -90 c 0,65,66
 366 -120 366 -120 383 -134 c 128,-1,67
 400 -148 400 -148 425 -148 c 0,68,69
 435 -148 435 -148 444 -146.5 c 128,-1,70
 453 -145 453 -145 462 -142 c 0,71,72
 474 -138 474 -138 480.5 -142.5 c 128,-1,73
 487 -147 487 -147 488.5 -155 c 128,-1,74
 490 -163 490 -163 486.5 -170.5 c 128,-1,75
 483 -178 483 -178 474 -182 c 0,76,77
 460 -187 460 -187 445.5 -189 c 128,-1,78
 431 -191 431 -191 417 -191 c 0,0,1
EndSplineSet
Substitution2: "'ss01' Style Set 1 lookup 35 subtable" aogonek.ss01
Substitution2: "'salt' Stylistic Alternatives lookup 34 subtable" aogonek.ss01
Substitution2: "'aalt' Access All Alternates lookup 0 subtable" aogonek.ss01
EndChar

StartChar: ae
Encoding: 230 230 269
Width: 859
GlyphClass: 2
Flags: W
AnchorPoint: "Anchor-2" 416 0 basechar 0
AnchorPoint: "Anchor-0" 416 484 basechar 0
LayerCount: 2
Fore
SplineSet
234 -8 m 0,0,1
 183 -8 183 -8 144 11 c 128,-1,2
 105 30 105 30 82 63 c 128,-1,3
 59 96 59 96 59 137 c 0,4,5
 59 191 59 191 86.5 222 c 128,-1,6
 114 253 114 253 178.5 265.5 c 128,-1,7
 243 278 243 278 353 278 c 2,8,-1
 398 278 l 1,9,-1
 398 233 l 1,10,-1
 354 233 l 2,11,12
 264 233 264 233 213.5 225.5 c 128,-1,13
 163 218 163 218 143 198 c 128,-1,14
 123 178 123 178 123 142 c 0,15,16
 123 97 123 97 154.5 69 c 128,-1,17
 186 41 186 41 240 41 c 0,18,19
 285 41 285 41 318 62 c 128,-1,20
 351 83 351 83 369.5 121 c 128,-1,21
 388 159 388 159 388 206 c 2,22,-1
 388 312 l 2,23,24
 388 380 388 380 360 411 c 128,-1,25
 332 442 332 442 273 442 c 0,26,27
 234 442 234 442 198 432 c 128,-1,28
 162 422 162 422 123 400 c 0,29,30
 111 394 111 394 103 396 c 128,-1,31
 95 398 95 398 90 404 c 128,-1,32
 85 410 85 410 83.5 418.5 c 128,-1,33
 82 427 82 427 86 435 c 128,-1,34
 90 443 90 443 100 448 c 0,35,36
 142 471 142 471 186 482.5 c 128,-1,37
 230 494 230 494 272 494 c 0,38,39
 346 494 346 494 387 461 c 128,-1,40
 428 428 428 428 440 364 c 1,41,-1
 418 364 l 1,42,43
 444 427 444 427 495 460.5 c 128,-1,44
 546 494 546 494 614 494 c 0,45,46
 661 494 661 494 697.5 478.5 c 128,-1,47
 734 463 734 463 760.5 432.5 c 128,-1,48
 787 402 787 402 800.5 358.5 c 128,-1,49
 814 315 814 315 814 260 c 2,50,-1
 814 256 l 2,51,52
 814 245 814 245 807 239 c 128,-1,53
 800 233 800 233 786 233 c 2,54,-1
 439 233 l 1,55,-1
 439 278 l 1,56,-1
 776 278 l 1,57,-1
 760 266 l 1,58,59
 760 322 760 322 743 361.5 c 128,-1,60
 726 401 726 401 693.5 423 c 128,-1,61
 661 445 661 445 612 445 c 0,62,63
 562 445 562 445 525 421 c 128,-1,64
 488 397 488 397 468 354 c 128,-1,65
 448 311 448 311 448 252 c 2,66,-1
 448 245 l 2,67,68
 448 148 448 148 493 95.5 c 128,-1,69
 538 43 538 43 623 43 c 0,70,71
 656 43 656 43 691.5 53 c 128,-1,72
 727 63 727 63 760 87 c 0,73,74
 770 94 770 94 779.5 94 c 128,-1,75
 789 94 789 94 795.5 89 c 128,-1,76
 802 84 802 84 804.5 76.5 c 128,-1,77
 807 69 807 69 803.5 60.5 c 128,-1,78
 800 52 800 52 790 45 c 0,79,80
 758 20 758 20 714.5 6 c 128,-1,81
 671 -8 671 -8 626 -8 c 0,82,83
 540 -8 540 -8 482.5 33 c 128,-1,84
 425 74 425 74 404 153 c 1,85,-1
 423 153 l 1,86,87
 410 79 410 79 360 35.5 c 128,-1,88
 310 -8 310 -8 234 -8 c 0,0,1
EndSplineSet
EndChar

StartChar: b
Encoding: 98 98 271
Width: 575
GlyphClass: 2
Flags: W
AnchorPoint: "Anchor-2" 309 0 basechar 0
AnchorPoint: "Anchor-0" 303 705 basechar 0
LayerCount: 2
Fore
SplineSet
311 -8 m 0,0,1
 243 -8 243 -8 195 27 c 128,-1,2
 147 62 147 62 130 121 c 1,3,-1
 141 127 l 1,4,-1
 141 25 l 2,5,6
 141 10 141 10 133 2 c 128,-1,7
 125 -6 125 -6 111 -6 c 0,8,9
 96 -6 96 -6 88 2 c 128,-1,10
 80 10 80 10 80 25 c 2,11,-1
 80 680 l 2,12,13
 80 696 80 696 88 703.5 c 128,-1,14
 96 711 96 711 111 711 c 0,15,16
 125 711 125 711 133 703.5 c 128,-1,17
 141 696 141 696 141 680 c 2,18,-1
 141 365 l 1,19,-1
 130 365 l 1,20,21
 147 424 147 424 195 459 c 128,-1,22
 243 494 243 494 311 494 c 0,23,24
 377 494 377 494 425 463 c 128,-1,25
 473 432 473 432 499.5 376 c 128,-1,26
 526 320 526 320 526 243 c 256,27,28
 526 166 526 166 499.5 109.5 c 128,-1,29
 473 53 473 53 424.5 22.5 c 128,-1,30
 376 -8 376 -8 311 -8 c 0,0,1
302 43 m 0,31,32
 351 43 351 43 387.5 66.5 c 128,-1,33
 424 90 424 90 444 135 c 128,-1,34
 464 180 464 180 464 243 c 0,35,36
 464 338 464 338 420 390 c 128,-1,37
 376 442 376 442 302 442 c 0,38,39
 253 442 253 442 216.5 418.5 c 128,-1,40
 180 395 180 395 160 350.5 c 128,-1,41
 140 306 140 306 140 243 c 0,42,43
 140 147 140 147 184 95 c 128,-1,44
 228 43 228 43 302 43 c 0,31,32
EndSplineSet
EndChar

StartChar: uni0253
Encoding: 595 595 272
Width: 575
GlyphClass: 1
Flags: W
LayerCount: 2
Fore
SplineSet
311 -8 m 0,0,1
 243 -8 243 -8 195 27 c 128,-1,2
 147 62 147 62 130 121 c 1,3,-1
 141 127 l 1,4,-1
 141 25 l 2,5,6
 141 10 141 10 133 2 c 128,-1,7
 125 -6 125 -6 111 -6 c 0,8,9
 96 -6 96 -6 88 2 c 128,-1,10
 80 10 80 10 80 25 c 2,11,-1
 80 553 l 2,12,13
 80 630 80 630 119.5 671.5 c 128,-1,14
 159 713 159 713 234 713 c 0,15,16
 264 713 264 713 277 706 c 128,-1,17
 290 699 290 699 290 685 c 0,18,19
 290 673 290 673 283.5 665.5 c 128,-1,20
 277 658 277 658 267 659 c 0,21,22
 261 659 261 659 254.5 660 c 128,-1,23
 248 661 248 661 239 661 c 0,24,25
 191 661 191 661 166 634 c 128,-1,26
 141 607 141 607 141 555 c 2,27,-1
 141 365 l 1,28,-1
 130 365 l 1,29,30
 147 424 147 424 195 459 c 128,-1,31
 243 494 243 494 311 494 c 0,32,33
 377 494 377 494 425 463 c 128,-1,34
 473 432 473 432 499.5 376 c 128,-1,35
 526 320 526 320 526 243 c 256,36,37
 526 166 526 166 499.5 109.5 c 128,-1,38
 473 53 473 53 424.5 22.5 c 128,-1,39
 376 -8 376 -8 311 -8 c 0,0,1
302 43 m 0,40,41
 351 43 351 43 387.5 66.5 c 128,-1,42
 424 90 424 90 444 135 c 128,-1,43
 464 180 464 180 464 243 c 0,44,45
 464 338 464 338 420 390 c 128,-1,46
 376 442 376 442 302 442 c 0,47,48
 253 442 253 442 216.5 418.5 c 128,-1,49
 180 395 180 395 160 350.5 c 128,-1,50
 140 306 140 306 140 243 c 0,51,52
 140 147 140 147 184 95 c 128,-1,53
 228 43 228 43 302 43 c 0,40,41
EndSplineSet
EndChar

StartChar: c
Encoding: 99 99 273
Width: 459
GlyphClass: 2
Flags: W
AnchorPoint: "Anchor-2" 276 0 basechar 0
AnchorPoint: "Anchor-0" 276 484 basechar 0
LayerCount: 2
Fore
SplineSet
278 -8 m 0,0,1
 207 -8 207 -8 156 23.5 c 128,-1,2
 105 55 105 55 77.5 112.5 c 128,-1,3
 50 170 50 170 50 246 c 0,4,5
 50 304 50 304 65.5 349.5 c 128,-1,6
 81 395 81 395 110.5 427 c 128,-1,7
 140 459 140 459 182.5 476.5 c 128,-1,8
 225 494 225 494 278 494 c 0,9,10
 315 494 315 494 354 481.5 c 128,-1,11
 393 469 393 469 425 440 c 0,12,13
 432 434 432 434 434 426 c 128,-1,14
 436 418 436 418 433 410.5 c 128,-1,15
 430 403 430 403 424 398.5 c 128,-1,16
 418 394 418 394 409.5 393.5 c 128,-1,17
 401 393 401 393 392 401 c 0,18,19
 364 424 364 424 335.5 432.5 c 128,-1,20
 307 441 307 441 280 441 c 0,21,22
 239 441 239 441 208 428 c 128,-1,23
 177 415 177 415 155.5 390 c 128,-1,24
 134 365 134 365 123 328.5 c 128,-1,25
 112 292 112 292 112 245 c 0,26,27
 112 151 112 151 155.5 97.5 c 128,-1,28
 199 44 199 44 280 44 c 0,29,30
 307 44 307 44 335.5 52.5 c 128,-1,31
 364 61 364 61 392 84 c 0,32,33
 401 92 401 92 409.5 91.5 c 128,-1,34
 418 91 418 91 424 86.5 c 128,-1,35
 430 82 430 82 432.5 74.5 c 128,-1,36
 435 67 435 67 433 59 c 128,-1,37
 431 51 431 51 424 45 c 0,38,39
 393 16 393 16 354 4 c 128,-1,40
 315 -8 315 -8 278 -8 c 0,0,1
EndSplineSet
EndChar

StartChar: d
Encoding: 100 100 280
Width: 575
GlyphClass: 2
Flags: W
AnchorPoint: "Anchor-5" 288 245 basechar 0
AnchorPoint: "Anchor-4" 414 582 basechar 0
AnchorPoint: "Anchor-2" 290 0 basechar 0
AnchorPoint: "Anchor-1" 543 705 basechar 0
AnchorPoint: "Anchor-0" 288 705 basechar 0
LayerCount: 2
Fore
SplineSet
265 -8 m 0,0,1
 200 -8 200 -8 151.5 22.5 c 128,-1,2
 103 53 103 53 76.5 109.5 c 128,-1,3
 50 166 50 166 50 243 c 256,4,5
 50 320 50 320 76 376 c 128,-1,6
 102 432 102 432 150.5 463 c 128,-1,7
 199 494 199 494 265 494 c 0,8,9
 333 494 333 494 381 459 c 128,-1,10
 429 424 429 424 445 365 c 1,11,-1
 434 365 l 1,12,-1
 434 680 l 2,13,14
 434 696 434 696 442 703.5 c 128,-1,15
 450 711 450 711 464 711 c 0,16,17
 479 711 479 711 487 703.5 c 128,-1,18
 495 696 495 696 495 680 c 2,19,-1
 495 25 l 2,20,21
 495 10 495 10 487 2 c 128,-1,22
 479 -6 479 -6 465 -6 c 0,23,24
 450 -6 450 -6 442 2 c 128,-1,25
 434 10 434 10 434 25 c 2,26,-1
 434 128 l 1,27,-1
 445 121 l 1,28,29
 429 62 429 62 381 27 c 128,-1,30
 333 -8 333 -8 265 -8 c 0,0,1
273 43 m 0,31,32
 323 43 323 43 359.5 66.5 c 128,-1,33
 396 90 396 90 415.5 135 c 128,-1,34
 435 180 435 180 435 243 c 0,35,36
 435 338 435 338 391.5 390 c 128,-1,37
 348 442 348 442 273 442 c 0,38,39
 224 442 224 442 187.5 418.5 c 128,-1,40
 151 395 151 395 131.5 350.5 c 128,-1,41
 112 306 112 306 112 243 c 0,42,43
 112 147 112 147 156 95 c 128,-1,44
 200 43 200 43 273 43 c 0,31,32
EndSplineSet
EndChar

StartChar: eth
Encoding: 240 240 281
Width: 550
GlyphClass: 1
Flags: W
LayerCount: 2
Fore
SplineSet
272 -8 m 0,0,1
 205 -8 205 -8 155 20.5 c 128,-1,2
 105 49 105 49 77.5 101 c 128,-1,3
 50 153 50 153 50 223 c 0,4,5
 50 292 50 292 78 344 c 128,-1,6
 106 396 106 396 156 424.5 c 128,-1,7
 206 453 206 453 272 453 c 0,8,9
 322 453 322 453 360.5 435.5 c 128,-1,10
 399 418 399 418 424.5 383 c 128,-1,11
 450 348 450 348 462 293 c 1,12,-1
 441 293 l 1,13,14
 442 398 442 398 401.5 478 c 128,-1,15
 361 558 361 558 284 607 c 1,16,-1
 308 608 l 1,17,-1
 153 542 l 2,18,19
 141 537 141 537 131.5 540 c 128,-1,20
 122 543 122 543 118.5 551.5 c 128,-1,21
 115 560 115 560 118.5 569.5 c 128,-1,22
 122 579 122 579 135 584 c 2,23,-1
 254 635 l 1,24,-1
 255 624 l 1,25,26
 234 636 234 636 211.5 645 c 128,-1,27
 189 654 189 654 165 662 c 0,28,29
 151 666 151 666 146 675 c 128,-1,30
 141 684 141 684 143.5 692.5 c 128,-1,31
 146 701 146 701 155 705.5 c 128,-1,32
 164 710 164 710 179 706 c 0,33,34
 216 695 216 695 247.5 681 c 128,-1,35
 279 667 279 667 309 649 c 1,36,-1
 290 650 l 1,37,-1
 414 703 l 2,38,39
 426 709 426 709 435.5 705.5 c 128,-1,40
 445 702 445 702 449 694 c 128,-1,41
 453 686 453 686 449.5 677 c 128,-1,42
 446 668 446 668 433 662 c 2,43,-1
 333 619 l 1,44,-1
 337 630 l 1,45,46
 391 592 391 592 427 540 c 128,-1,47
 463 488 463 488 482 424 c 128,-1,48
 501 360 501 360 501 283 c 0,49,50
 501 211 501 211 486 156.5 c 128,-1,51
 471 102 471 102 442 65.5 c 128,-1,52
 413 29 413 29 370.5 10.5 c 128,-1,53
 328 -8 328 -8 272 -8 c 0,0,1
272 44 m 0,54,55
 323 44 323 44 359.5 65.5 c 128,-1,56
 396 87 396 87 415.5 127.5 c 128,-1,57
 435 168 435 168 435 223 c 0,58,59
 435 306 435 306 391.5 353.5 c 128,-1,60
 348 401 348 401 273 401 c 0,61,62
 224 401 224 401 187.5 379.5 c 128,-1,63
 151 358 151 358 131.5 318 c 128,-1,64
 112 278 112 278 112 223 c 0,65,66
 112 138 112 138 154.5 91 c 128,-1,67
 197 44 197 44 272 44 c 0,54,55
EndSplineSet
EndChar

StartChar: dcroat
Encoding: 273 273 283
Width: 575
GlyphClass: 1
Flags: W
LayerCount: 2
Fore
SplineSet
265 -8 m 0,0,1
 200 -8 200 -8 151.5 22.5 c 128,-1,2
 103 53 103 53 76.5 109.5 c 128,-1,3
 50 166 50 166 50 243 c 256,4,5
 50 320 50 320 76 376 c 128,-1,6
 102 432 102 432 150.5 463 c 128,-1,7
 199 494 199 494 265 494 c 0,8,9
 333 494 333 494 381 459 c 128,-1,10
 429 424 429 424 445 365 c 1,11,-1
 434 365 l 1,12,-1
 434 558 l 1,13,-1
 262 558 l 2,14,15
 250 558 250 558 242.5 564.5 c 128,-1,16
 235 571 235 571 235 582 c 256,17,18
 235 593 235 593 242.5 599.5 c 128,-1,19
 250 606 250 606 262 606 c 2,20,-1
 456 606 l 1,21,-1
 434 583 l 1,22,-1
 434 682 l 2,23,24
 434 696 434 696 442 703.5 c 128,-1,25
 450 711 450 711 465 711 c 0,26,27
 479 711 479 711 487 703.5 c 128,-1,28
 495 696 495 696 495 682 c 2,29,-1
 495 583 l 1,30,-1
 473 606 l 1,31,-1
 565 606 l 2,32,33
 579 606 579 606 586 599.5 c 128,-1,34
 593 593 593 593 593 582 c 256,35,36
 593 571 593 571 586 564.5 c 128,-1,37
 579 558 579 558 565 558 c 2,38,-1
 495 558 l 1,39,-1
 495 25 l 2,40,41
 495 10 495 10 487 2 c 128,-1,42
 479 -6 479 -6 465 -6 c 0,43,44
 450 -6 450 -6 442 2 c 128,-1,45
 434 10 434 10 434 25 c 2,46,-1
 434 127 l 1,47,-1
 445 121 l 1,48,49
 429 62 429 62 381 27 c 128,-1,50
 333 -8 333 -8 265 -8 c 0,0,1
274 43 m 0,51,52
 323 43 323 43 359.5 66.5 c 128,-1,53
 396 90 396 90 415.5 135 c 128,-1,54
 435 180 435 180 435 243 c 0,55,56
 435 338 435 338 391.5 390 c 128,-1,57
 348 442 348 442 274 442 c 0,58,59
 224 442 224 442 187.5 418.5 c 128,-1,60
 151 395 151 395 131.5 350.5 c 128,-1,61
 112 306 112 306 112 243 c 0,62,63
 112 147 112 147 156 95 c 128,-1,64
 200 43 200 43 274 43 c 0,51,52
EndSplineSet
EndChar

StartChar: uni0257
Encoding: 599 599 285
Width: 575
GlyphClass: 1
Flags: W
LayerCount: 2
Fore
SplineSet
265 -8 m 0,0,1
 200 -8 200 -8 151.5 22.5 c 128,-1,2
 103 53 103 53 76.5 109.5 c 128,-1,3
 50 166 50 166 50 243 c 256,4,5
 50 320 50 320 76 376 c 128,-1,6
 102 432 102 432 150.5 463 c 128,-1,7
 199 494 199 494 265 494 c 0,8,9
 333 494 333 494 381 459 c 128,-1,10
 429 424 429 424 445 365 c 1,11,-1
 434 365 l 1,12,-1
 434 553 l 2,13,14
 434 630 434 630 473.5 671.5 c 128,-1,15
 513 713 513 713 587 713 c 0,16,17
 617 713 617 713 630 706 c 128,-1,18
 643 699 643 699 643 685 c 0,19,20
 643 673 643 673 637 665.5 c 128,-1,21
 631 658 631 658 621 659 c 0,22,23
 615 659 615 659 608 660 c 128,-1,24
 601 661 601 661 592 661 c 0,25,26
 544 661 544 661 519.5 634 c 128,-1,27
 495 607 495 607 495 555 c 2,28,-1
 495 25 l 2,29,30
 495 10 495 10 487 2 c 128,-1,31
 479 -6 479 -6 465 -6 c 0,32,33
 450 -6 450 -6 442 2 c 128,-1,34
 434 10 434 10 434 25 c 2,35,-1
 434 128 l 1,36,-1
 445 121 l 1,37,38
 429 62 429 62 381 27 c 128,-1,39
 333 -8 333 -8 265 -8 c 0,0,1
273 44 m 0,40,41
 323 44 323 44 359.5 67 c 128,-1,42
 396 90 396 90 415.5 135 c 128,-1,43
 435 180 435 180 435 243 c 0,44,45
 435 338 435 338 391.5 390 c 128,-1,46
 348 442 348 442 273 442 c 0,47,48
 224 442 224 442 187.5 418.5 c 128,-1,49
 151 395 151 395 131.5 350.5 c 128,-1,50
 112 306 112 306 112 243 c 0,51,52
 112 147 112 147 156 95.5 c 128,-1,53
 200 44 200 44 273 44 c 0,40,41
EndSplineSet
EndChar

StartChar: e
Encoding: 101 101 288
Width: 527
GlyphClass: 2
Flags: W
AnchorPoint: "Anchor-3" 349 0 basechar 0
AnchorPoint: "Anchor-2" 279 0 basechar 0
AnchorPoint: "Anchor-0" 279 484 basechar 0
LayerCount: 2
Fore
SplineSet
291 -8 m 0,0,1
 216 -8 216 -8 162 22 c 128,-1,2
 108 52 108 52 79 108 c 128,-1,3
 50 164 50 164 50 241 c 0,4,5
 50 317 50 317 79 373.5 c 128,-1,6
 108 430 108 430 159.5 462 c 128,-1,7
 211 494 211 494 278 494 c 0,8,9
 327 494 327 494 364.5 477.5 c 128,-1,10
 402 461 402 461 428.5 430.5 c 128,-1,11
 455 400 455 400 469 356.5 c 128,-1,12
 483 313 483 313 483 258 c 0,13,14
 483 244 483 244 475.5 237 c 128,-1,15
 468 230 468 230 455 230 c 2,16,-1
 94 230 l 1,17,-1
 94 275 l 1,18,-1
 445 275 l 1,19,-1
 429 262 l 1,20,21
 429 320 429 320 412 360.5 c 128,-1,22
 395 401 395 401 361.5 423 c 128,-1,23
 328 445 328 445 279 445 c 0,24,25
 224 445 224 445 186 419.5 c 128,-1,26
 148 394 148 394 129 349.5 c 128,-1,27
 110 305 110 305 110 247 c 2,28,-1
 110 242 l 2,29,30
 110 146 110 146 157 94.5 c 128,-1,31
 204 43 204 43 289 43 c 0,32,33
 326 43 326 43 360.5 53 c 128,-1,34
 395 63 395 63 428 87 c 0,35,36
 438 94 438 94 447.5 94 c 128,-1,37
 457 94 457 94 463.5 89 c 128,-1,38
 470 84 470 84 472.5 76.5 c 128,-1,39
 475 69 475 69 471.5 60.5 c 128,-1,40
 468 52 468 52 458 45 c 0,41,42
 426 19 426 19 381 5.5 c 128,-1,43
 336 -8 336 -8 291 -8 c 0,0,1
EndSplineSet
EndChar

StartChar: uni0259
Encoding: 601 601 311
Width: 528
GlyphClass: 1
Flags: W
LayerCount: 2
Fore
SplineSet
254 -8 m 0,0,1
 188 -8 188 -8 141 19.5 c 128,-1,2
 94 47 94 47 69.5 100.5 c 128,-1,3
 45 154 45 154 45 229 c 0,4,5
 45 242 45 242 52.5 248.5 c 128,-1,6
 60 255 60 255 73 255 c 2,7,-1
 435 255 l 1,8,-1
 435 210 l 1,9,-1
 82 210 l 1,10,-1
 101 224 l 1,11,12
 102 165 102 165 119 124 c 128,-1,13
 136 83 136 83 170 61.5 c 128,-1,14
 204 40 204 40 254 40 c 0,15,16
 305 40 305 40 341.5 63.5 c 128,-1,17
 378 87 378 87 398 131 c 128,-1,18
 418 175 418 175 418 236 c 2,19,-1
 418 243 l 2,20,21
 418 338 418 338 371 390 c 128,-1,22
 324 442 324 442 238 442 c 0,23,24
 202 442 202 442 166.5 431 c 128,-1,25
 131 420 131 420 97 396 c 0,26,27
 87 389 87 389 78 389.5 c 128,-1,28
 69 390 69 390 63.5 395 c 128,-1,29
 58 400 58 400 56 408.5 c 128,-1,30
 54 417 54 417 57 425 c 128,-1,31
 60 433 60 433 69 440 c 0,32,33
 102 466 102 466 147.5 480 c 128,-1,34
 193 494 193 494 237 494 c 0,35,36
 312 494 312 494 366 463.5 c 128,-1,37
 420 433 420 433 449 377.5 c 128,-1,38
 478 322 478 322 478 245 c 256,39,40
 478 168 478 168 449.5 111 c 128,-1,41
 421 54 421 54 371 23 c 128,-1,42
 321 -8 321 -8 254 -8 c 0,0,1
EndSplineSet
EndChar

StartChar: f
Encoding: 102 102 314
Width: 319
GlyphClass: 2
Flags: W
AnchorPoint: "Anchor-2" 134 0 basechar 0
AnchorPoint: "Anchor-0" 134 705 basechar 0
LayerCount: 2
Fore
SplineSet
134 -6 m 0,0,1
 119 -6 119 -6 111 2 c 128,-1,2
 103 10 103 10 103 25 c 2,3,-1
 103 436 l 1,4,-1
 32 436 l 2,5,6
 19 436 19 436 11.5 442.5 c 128,-1,7
 4 449 4 449 4 461 c 0,8,9
 4 472 4 472 11.5 478.5 c 128,-1,10
 19 485 19 485 32 485 c 2,11,-1
 119 485 l 1,12,-1
 103 469 l 1,13,-1
 103 509 l 2,14,15
 103 601 103 601 147 650 c 128,-1,16
 191 699 191 699 278 707 c 2,17,-1
 305 709 l 2,18,19
 316 710 316 710 322.5 705.5 c 128,-1,20
 329 701 329 701 331.5 694 c 128,-1,21
 334 687 334 687 332 679.5 c 128,-1,22
 330 672 330 672 324.5 666.5 c 128,-1,23
 319 661 319 661 311 660 c 2,24,-1
 283 657 l 2,25,26
 221 652 221 652 192.5 616.5 c 128,-1,27
 164 581 164 581 164 514 c 2,28,-1
 164 471 l 1,29,-1
 155 485 l 1,30,-1
 283 485 l 2,31,32
 297 485 297 485 304 478.5 c 128,-1,33
 311 472 311 472 311 461 c 0,34,35
 311 449 311 449 304 442.5 c 128,-1,36
 297 436 297 436 283 436 c 2,37,-1
 164 436 l 1,38,-1
 164 25 l 2,39,40
 164 -6 164 -6 134 -6 c 0,0,1
EndSplineSet
EndChar

StartChar: g
Encoding: 103 103 315
Width: 578
GlyphClass: 2
Flags: W
AnchorPoint: "Anchor-0" 291 484 basechar 0
LayerCount: 2
Fore
SplineSet
291 -188 m 0,0,1
 237 -188 237 -188 186.5 -174.5 c 128,-1,2
 136 -161 136 -161 95 -131 c 0,3,4
 87 -126 87 -126 84.5 -118 c 128,-1,5
 82 -110 82 -110 84 -102.5 c 128,-1,6
 86 -95 86 -95 91.5 -89 c 128,-1,7
 97 -83 97 -83 104.5 -82 c 128,-1,8
 112 -81 112 -81 120 -85 c 0,9,10
 164 -114 164 -114 204.5 -125.5 c 128,-1,11
 245 -137 245 -137 289 -137 c 0,12,13
 362 -137 362 -137 400 -96.5 c 128,-1,14
 438 -56 438 -56 438 19 c 2,15,-1
 438 143 l 1,16,-1
 448 143 l 1,17,18
 433 81 433 81 384 46 c 128,-1,19
 335 11 335 11 268 11 c 256,20,21
 201 11 201 11 152 41.5 c 128,-1,22
 103 72 103 72 76.5 126.5 c 128,-1,23
 50 181 50 181 50 253 c 0,24,25
 50 307 50 307 65 351 c 128,-1,26
 80 395 80 395 108.5 427 c 128,-1,27
 137 459 137 459 177 476.5 c 128,-1,28
 217 494 217 494 268 494 c 0,29,30
 335 494 335 494 384 458.5 c 128,-1,31
 433 423 433 423 447 363 c 1,32,-1
 437 357 l 1,33,-1
 437 460 l 2,34,35
 437 476 437 476 445 484 c 128,-1,36
 453 492 453 492 467 492 c 0,37,38
 482 492 482 492 489.5 484 c 128,-1,39
 497 476 497 476 497 460 c 2,40,-1
 497 28 l 2,41,42
 497 -79 497 -79 445 -133.5 c 128,-1,43
 393 -188 393 -188 291 -188 c 0,0,1
275 63 m 0,44,45
 325 63 325 63 361.5 86.5 c 128,-1,46
 398 110 398 110 418 152.5 c 128,-1,47
 438 195 438 195 438 253 c 0,48,49
 438 340 438 340 394 391 c 128,-1,50
 350 442 350 442 275 442 c 0,51,52
 225 442 225 442 188 419 c 128,-1,53
 151 396 151 396 131.5 353.5 c 128,-1,54
 112 311 112 311 112 253 c 0,55,56
 112 166 112 166 156 114.5 c 128,-1,57
 200 63 200 63 275 63 c 0,44,45
EndSplineSet
EndChar

StartChar: uni01E5
Encoding: 485 485 322
Width: 578
GlyphClass: 1
Flags: W
LayerCount: 2
Fore
SplineSet
291 -188 m 0,0,1
 237 -188 237 -188 187 -174.5 c 128,-1,2
 137 -161 137 -161 95 -131 c 0,3,4
 87 -126 87 -126 84.5 -118 c 128,-1,5
 82 -110 82 -110 84 -102.5 c 128,-1,6
 86 -95 86 -95 92 -89 c 128,-1,7
 98 -83 98 -83 105 -82 c 128,-1,8
 112 -81 112 -81 120 -85 c 0,9,10
 162 -114 162 -114 203.5 -125.5 c 128,-1,11
 245 -137 245 -137 289 -137 c 0,12,13
 343 -136 343 -136 377.5 -114.5 c 128,-1,14
 412 -93 412 -93 426 -51 c 1,15,-1
 439 -62 l 1,16,-1
 328 -62 l 2,17,18
 317 -62 317 -62 310.5 -55.5 c 128,-1,19
 304 -49 304 -49 304 -39 c 256,20,21
 304 -29 304 -29 310.5 -22.5 c 128,-1,22
 317 -16 317 -16 328 -16 c 2,23,-1
 439 -16 l 1,24,-1
 433 -31 l 1,25,26
 435 -19 435 -19 436.5 -5.5 c 128,-1,27
 438 8 438 8 438 19 c 2,28,-1
 438 161 l 1,29,-1
 447 161 l 1,30,31
 432 100 432 100 384.5 67 c 128,-1,32
 337 34 337 34 268 34 c 0,33,34
 203 34 203 34 154 63 c 128,-1,35
 105 92 105 92 77.5 144 c 128,-1,36
 50 196 50 196 50 264 c 0,37,38
 50 315 50 315 65.5 357 c 128,-1,39
 81 399 81 399 110 429.5 c 128,-1,40
 139 460 139 460 179 477 c 128,-1,41
 219 494 219 494 268 494 c 0,42,43
 337 494 337 494 384.5 460.5 c 128,-1,44
 432 427 432 427 447 367 c 1,45,-1
 437 367 l 1,46,-1
 437 461 l 2,47,48
 437 476 437 476 445 484 c 128,-1,49
 453 492 453 492 467 492 c 0,50,51
 482 492 482 492 489.5 484 c 128,-1,52
 497 476 497 476 497 461 c 2,53,-1
 497 28 l 2,54,55
 497 12 497 12 495.5 -3.5 c 128,-1,56
 494 -19 494 -19 492 -32 c 1,57,-1
 488 -16 l 1,58,-1
 549 -16 l 2,59,60
 559 -16 559 -16 565.5 -22.5 c 128,-1,61
 572 -29 572 -29 572 -39 c 256,62,63
 572 -49 572 -49 565.5 -55.5 c 128,-1,64
 559 -62 559 -62 549 -62 c 2,65,-1
 467 -62 l 1,66,-1
 488 -52 l 1,67,68
 471 -120 471 -120 421.5 -154 c 128,-1,69
 372 -188 372 -188 291 -188 c 0,0,1
275 86 m 0,70,71
 325 86 325 86 361.5 107.5 c 128,-1,72
 398 129 398 129 417.5 169.5 c 128,-1,73
 437 210 437 210 437 264 c 0,74,75
 437 346 437 346 393.5 394 c 128,-1,76
 350 442 350 442 275 442 c 0,77,78
 225 442 225 442 188 420.5 c 128,-1,79
 151 399 151 399 131.5 359 c 128,-1,80
 112 319 112 319 112 264 c 0,81,82
 112 181 112 181 156 133.5 c 128,-1,83
 200 86 200 86 275 86 c 0,70,71
EndSplineSet
EndChar

StartChar: h
Encoding: 104 104 323
Width: 560
GlyphClass: 2
Flags: W
AnchorPoint: "Anchor-5" 281 246 basechar 0
AnchorPoint: "Anchor-4" 162 582 basechar 0
AnchorPoint: "Anchor-2" 281 0 basechar 0
AnchorPoint: "Anchor-1" 181 705 basechar 0
AnchorPoint: "Anchor-0" 282 705 basechar 0
LayerCount: 2
Fore
SplineSet
111 -6 m 0,0,1
 96 -6 96 -6 88 2 c 128,-1,2
 80 10 80 10 80 25 c 2,3,-1
 80 680 l 2,4,5
 80 696 80 696 88 703.5 c 128,-1,6
 96 711 96 711 111 711 c 0,7,8
 125 711 125 711 133 703.5 c 128,-1,9
 141 696 141 696 141 680 c 2,10,-1
 141 372 l 1,11,-1
 129 372 l 1,12,13
 149 432 149 432 197.5 463 c 128,-1,14
 246 494 246 494 309 494 c 0,15,16
 367 494 367 494 405.5 473 c 128,-1,17
 444 452 444 452 463 410 c 128,-1,18
 482 368 482 368 482 306 c 2,19,-1
 482 25 l 2,20,21
 482 10 482 10 474 2 c 128,-1,22
 466 -6 466 -6 452 -6 c 0,23,24
 437 -6 437 -6 429 2 c 128,-1,25
 421 10 421 10 421 25 c 2,26,-1
 421 301 l 2,27,28
 421 374 421 374 392 407.5 c 128,-1,29
 363 441 363 441 300 441 c 0,30,31
 228 441 228 441 184.5 396.5 c 128,-1,32
 141 352 141 352 141 277 c 2,33,-1
 141 25 l 2,34,35
 141 -6 141 -6 111 -6 c 0,0,1
EndSplineSet
EndChar

StartChar: hbar
Encoding: 295 295 324
Width: 560
GlyphClass: 1
Flags: W
LayerCount: 2
Fore
SplineSet
111 -6 m 0,0,1
 96 -6 96 -6 88 2 c 128,-1,2
 80 10 80 10 80 25 c 2,3,-1
 80 558 l 1,4,-1
 14 558 l 2,5,6
 1 558 1 558 -6.5 564.5 c 128,-1,7
 -14 571 -14 571 -14 582 c 0,8,9
 -14 606 -14 606 14 606 c 2,10,-1
 94 606 l 1,11,-1
 80 588 l 1,12,-1
 80 681 l 2,13,14
 80 696 80 696 88 703.5 c 128,-1,15
 96 711 96 711 111 711 c 0,16,17
 125 711 125 711 133 703.5 c 128,-1,18
 141 696 141 696 141 681 c 2,19,-1
 141 588 l 1,20,-1
 128 606 l 1,21,-1
 310 606 l 2,22,23
 323 606 323 606 330 599.5 c 128,-1,24
 337 593 337 593 337 582 c 0,25,26
 337 558 337 558 310 558 c 2,27,-1
 141 558 l 1,28,-1
 141 372 l 1,29,-1
 129 372 l 1,30,31
 149 432 149 432 197.5 463 c 128,-1,32
 246 494 246 494 309 494 c 0,33,34
 367 494 367 494 405.5 473 c 128,-1,35
 444 452 444 452 463 410 c 128,-1,36
 482 368 482 368 482 306 c 2,37,-1
 482 25 l 2,38,39
 482 10 482 10 474 2 c 128,-1,40
 466 -6 466 -6 452 -6 c 0,41,42
 437 -6 437 -6 429 2 c 128,-1,43
 421 10 421 10 421 25 c 2,44,-1
 421 301 l 2,45,46
 421 374 421 374 392 407.5 c 128,-1,47
 363 441 363 441 300 441 c 0,48,49
 228 441 228 441 184.5 396.5 c 128,-1,50
 141 352 141 352 141 277 c 2,51,-1
 141 25 l 2,52,53
 141 -6 141 -6 111 -6 c 0,0,1
EndSplineSet
EndChar

StartChar: i
Encoding: 105 105 329
Width: 222
GlyphClass: 2
Flags: W
AnchorPoint: "Anchor-3" 135 0 basechar 0
AnchorPoint: "Anchor-2" 111 0 basechar 0
LayerCount: 2
Fore
SplineSet
111 -4 m 256,0,1
 96 -4 96 -4 88 5 c 128,-1,2
 80 14 80 14 80 29 c 2,3,-1
 80 457 l 2,4,5
 80 473 80 473 88 481 c 128,-1,6
 96 489 96 489 111 489 c 0,7,8
 125 489 125 489 133 481 c 128,-1,9
 141 473 141 473 141 457 c 2,10,-1
 141 29 l 2,11,12
 141 14 141 14 133.5 5 c 128,-1,13
 126 -4 126 -4 111 -4 c 256,0,1
111 610 m 256,14,15
 90 610 90 610 78.5 621 c 128,-1,16
 67 632 67 632 67 652 c 256,17,18
 67 672 67 672 78.5 682.5 c 128,-1,19
 90 693 90 693 111 693 c 256,20,21
 132 693 132 693 143.5 682.5 c 128,-1,22
 155 672 155 672 155 652 c 256,23,24
 155 632 155 632 143.5 621 c 128,-1,25
 132 610 132 610 111 610 c 256,14,15
EndSplineSet
Substitution2: "'locl' Localized Forms in Latin lookup 10 subtable" i.loclTRK
Substitution2: "Single Substitution lookup 4 subtable" dotlessi
Substitution2: "Single Substitution lookup 3 subtable" dotlessi
Substitution2: "'aalt' Access All Alternates lookup 0 subtable" i.loclTRK
EndChar

StartChar: dotlessi
Encoding: 305 305 330
Width: 222
GlyphClass: 2
Flags: W
AnchorPoint: "Anchor-3" 135 0 basechar 0
AnchorPoint: "Anchor-2" 111 0 basechar 0
AnchorPoint: "Anchor-0" 111 484 basechar 0
LayerCount: 2
Fore
SplineSet
111 -4 m 256,0,1
 96 -4 96 -4 88 5 c 128,-1,2
 80 14 80 14 80 29 c 2,3,-1
 80 457 l 2,4,5
 80 473 80 473 88 481 c 128,-1,6
 96 489 96 489 111 489 c 0,7,8
 125 489 125 489 133 481 c 128,-1,9
 141 473 141 473 141 457 c 2,10,-1
 141 29 l 2,11,12
 141 14 141 14 133.5 5 c 128,-1,13
 126 -4 126 -4 111 -4 c 256,0,1
EndSplineSet
EndChar

StartChar: iogonek
Encoding: 303 303 343
Width: 222
GlyphClass: 1
Flags: W
LayerCount: 2
Fore
SplineSet
118 -191 m 0,0,1
 73 -191 73 -191 45.5 -165.5 c 128,-1,2
 18 -140 18 -140 18 -96 c 0,3,4
 18 -62 18 -62 38.5 -29.5 c 128,-1,5
 59 3 59 3 95 25 c 1,6,-1
 88 5 l 1,7,8
 84 9 84 9 82 15 c 128,-1,9
 80 21 80 21 80 29 c 2,10,-1
 80 457 l 2,11,12
 80 473 80 473 88 481 c 128,-1,13
 96 489 96 489 111 489 c 0,14,15
 125 489 125 489 133 481 c 128,-1,16
 141 473 141 473 141 457 c 2,17,-1
 141 29 l 2,18,19
 141 18 141 18 137 9.5 c 128,-1,20
 133 1 133 1 125 -3 c 0,21,22
 96 -24 96 -24 81 -44.5 c 128,-1,23
 66 -65 66 -65 66 -90 c 0,24,25
 66 -120 66 -120 83.5 -134 c 128,-1,26
 101 -148 101 -148 125 -148 c 0,27,28
 135 -148 135 -148 144 -146.5 c 128,-1,29
 153 -145 153 -145 162 -142 c 0,30,31
 174 -138 174 -138 180.5 -142.5 c 128,-1,32
 187 -147 187 -147 189 -155 c 128,-1,33
 191 -163 191 -163 187 -170.5 c 128,-1,34
 183 -178 183 -178 174 -182 c 0,35,36
 160 -187 160 -187 146 -189 c 128,-1,37
 132 -191 132 -191 118 -191 c 0,0,1
111 610 m 256,38,39
 90 610 90 610 78.5 621 c 128,-1,40
 67 632 67 632 67 652 c 256,41,42
 67 672 67 672 78.5 682.5 c 128,-1,43
 90 693 90 693 111 693 c 256,44,45
 132 693 132 693 143.5 682.5 c 128,-1,46
 155 672 155 672 155 652 c 256,47,48
 155 632 155 632 143.5 621 c 128,-1,49
 132 610 132 610 111 610 c 256,38,39
EndSplineSet
EndChar

StartChar: j
Encoding: 106 106 345
Width: 225
GlyphClass: 1
Flags: W
LayerCount: 2
Fore
SplineSet
-27 -191 m 0,0,1
 -39 -192 -39 -192 -46 -187 c 128,-1,2
 -53 -182 -53 -182 -56 -174.5 c 128,-1,3
 -59 -167 -59 -167 -58 -159.5 c 128,-1,4
 -57 -152 -57 -152 -51 -146.5 c 128,-1,5
 -45 -141 -45 -141 -34 -141 c 0,6,7
 26 -139 26 -139 55 -110.5 c 128,-1,8
 84 -82 84 -82 84 -19 c 2,9,-1
 84 460 l 2,10,11
 84 476 84 476 92 484 c 128,-1,12
 100 492 100 492 114 492 c 0,13,14
 129 492 129 492 137 484 c 128,-1,15
 145 476 145 476 145 460 c 2,16,-1
 145 -15 l 2,17,18
 145 -75 145 -75 124.5 -113.5 c 128,-1,19
 104 -152 104 -152 66 -171 c 128,-1,20
 28 -190 28 -190 -27 -191 c 0,0,1
114 610 m 0,21,22
 94 610 94 610 82 621 c 128,-1,23
 70 632 70 632 70 652 c 256,24,25
 70 672 70 672 82 682.5 c 128,-1,26
 94 693 94 693 114 693 c 0,27,28
 135 693 135 693 146.5 682.5 c 128,-1,29
 158 672 158 672 158 652 c 256,30,31
 158 632 158 632 146.5 621 c 128,-1,32
 135 610 135 610 114 610 c 0,21,22
EndSplineSet
Substitution2: "Single Substitution lookup 4 subtable" uni0237
Substitution2: "Single Substitution lookup 3 subtable" uni0237
EndChar

StartChar: uni0237
Encoding: 567 567 346
Width: 225
GlyphClass: 2
Flags: W
AnchorPoint: "Anchor-2" 114 0 basechar 0
AnchorPoint: "Anchor-0" 114 484 basechar 0
LayerCount: 2
Fore
SplineSet
-27 -191 m 0,0,1
 -39 -192 -39 -192 -46 -187 c 128,-1,2
 -53 -182 -53 -182 -56 -174.5 c 128,-1,3
 -59 -167 -59 -167 -58 -159.5 c 128,-1,4
 -57 -152 -57 -152 -51 -146.5 c 128,-1,5
 -45 -141 -45 -141 -34 -141 c 0,6,7
 26 -139 26 -139 55 -110.5 c 128,-1,8
 84 -82 84 -82 84 -19 c 2,9,-1
 84 460 l 2,10,11
 84 476 84 476 92 484 c 128,-1,12
 100 492 100 492 114 492 c 0,13,14
 129 492 129 492 137 484 c 128,-1,15
 145 476 145 476 145 460 c 2,16,-1
 145 -15 l 2,17,18
 145 -75 145 -75 124.5 -113.5 c 128,-1,19
 104 -152 104 -152 66 -171 c 128,-1,20
 28 -190 28 -190 -27 -191 c 0,0,1
EndSplineSet
EndChar

StartChar: k
Encoding: 107 107 348
Width: 484
GlyphClass: 2
Flags: W
AnchorPoint: "Anchor-2" 242 0 basechar 0
AnchorPoint: "Anchor-0" 282 705 basechar 0
LayerCount: 2
Fore
SplineSet
111 -6 m 0,0,1
 96 -6 96 -6 88 2 c 128,-1,2
 80 10 80 10 80 25 c 2,3,-1
 80 680 l 2,4,5
 80 696 80 696 88 703.5 c 128,-1,6
 96 711 96 711 111 711 c 0,7,8
 125 711 125 711 133 703.5 c 128,-1,9
 141 696 141 696 141 680 c 2,10,-1
 141 265 l 1,11,-1
 143 265 l 1,12,-1
 367 470 l 2,13,14
 378 480 378 480 386.5 486 c 128,-1,15
 395 492 395 492 409 492 c 0,16,17
 421 492 421 492 428 485 c 128,-1,18
 435 478 435 478 434.5 468.5 c 128,-1,19
 434 459 434 459 424 448 c 2,20,-1
 186 231 l 1,21,-1
 186 270 l 1,22,-1
 445 40 l 2,23,24
 457 29 457 29 457.5 18.5 c 128,-1,25
 458 8 458 8 451 1 c 128,-1,26
 444 -6 444 -6 432 -6 c 0,27,28
 419 -6 419 -6 410 -0.5 c 128,-1,29
 401 5 401 5 388 17 c 2,30,-1
 143 233 l 1,31,-1
 141 233 l 1,32,-1
 141 25 l 2,33,34
 141 -6 141 -6 111 -6 c 0,0,1
EndSplineSet
EndChar

StartChar: kgreenlandic
Encoding: 312 312 351
Width: 484
GlyphClass: 2
Flags: W
AnchorPoint: "Anchor-2" 242 0 basechar 0
AnchorPoint: "Anchor-0" 242 484 basechar 0
LayerCount: 2
Fore
SplineSet
111 -6 m 256,0,1
 96 -6 96 -6 88 2 c 128,-1,2
 80 10 80 10 80 25 c 2,3,-1
 80 460 l 2,4,5
 80 476 80 476 88 484 c 128,-1,6
 96 492 96 492 111 492 c 0,7,8
 125 492 125 492 133 484 c 128,-1,9
 141 476 141 476 141 460 c 2,10,-1
 141 265 l 1,11,-1
 143 265 l 1,12,-1
 367 470 l 2,13,14
 378 480 378 480 386.5 486 c 128,-1,15
 395 492 395 492 408 492 c 0,16,17
 420 492 420 492 427 485 c 128,-1,18
 434 478 434 478 434 468.5 c 128,-1,19
 434 459 434 459 424 448 c 2,20,-1
 186 231 l 1,21,-1
 186 270 l 1,22,-1
 445 40 l 2,23,24
 457 29 457 29 457.5 18.5 c 128,-1,25
 458 8 458 8 451 1 c 128,-1,26
 444 -6 444 -6 432 -6 c 0,27,28
 419 -6 419 -6 410 -0.5 c 128,-1,29
 401 5 401 5 388 17 c 2,30,-1
 143 233 l 1,31,-1
 141 233 l 1,32,-1
 141 25 l 2,33,34
 141 10 141 10 133.5 2 c 128,-1,35
 126 -6 126 -6 111 -6 c 256,0,1
EndSplineSet
EndChar

StartChar: l
Encoding: 108 108 352
Width: 285
GlyphClass: 2
Flags: W
AnchorPoint: "Anchor-5" 121 357 basechar 0
AnchorPoint: "Anchor-2" 184 0 basechar 0
AnchorPoint: "Anchor-1" 189 705 basechar 0
AnchorPoint: "Anchor-0" 111 705 basechar 0
LayerCount: 2
Fore
SplineSet
220 -8 m 0,0,1
 153 -8 153 -8 116.5 34 c 128,-1,2
 80 76 80 76 80 153 c 2,3,-1
 80 680 l 2,4,5
 80 696 80 696 88 703.5 c 128,-1,6
 96 711 96 711 111 711 c 0,7,8
 125 711 125 711 133 703.5 c 128,-1,9
 141 696 141 696 141 680 c 2,10,-1
 141 160 l 2,11,12
 141 102 141 102 164 73.5 c 128,-1,13
 187 45 187 45 231 45 c 0,14,15
 241 45 241 45 248 46 c 128,-1,16
 255 47 255 47 262 47 c 0,17,18
 271 48 271 48 275.5 43.5 c 128,-1,19
 280 39 280 39 280 25 c 256,20,21
 280 11 280 11 273 4 c 128,-1,22
 266 -3 266 -3 250 -6 c 0,23,24
 243 -7 243 -7 235.5 -7.5 c 128,-1,25
 228 -8 228 -8 220 -8 c 0,0,1
EndSplineSet
Substitution2: "'ss02' Style Set 2 lookup 36 subtable" l.ss02
Substitution2: "'aalt' Access All Alternates lookup 0 subtable" l.ss02
EndChar

StartChar: m
Encoding: 109 109 361
Width: 847
GlyphClass: 2
Flags: W
AnchorPoint: "Anchor-2" 425 0 basechar 0
AnchorPoint: "Anchor-0" 425 484 basechar 0
LayerCount: 2
Fore
SplineSet
113 -6 m 0,0,1
 98 -6 98 -6 90 2 c 128,-1,2
 82 10 82 10 82 25 c 2,3,-1
 82 460 l 2,4,5
 82 476 82 476 90 484 c 128,-1,6
 98 492 98 492 113 492 c 0,7,8
 127 492 127 492 134.5 484 c 128,-1,9
 142 476 142 476 142 460 c 2,10,-1
 142 365 l 1,11,-1
 131 372 l 1,12,13
 149 431 149 431 192 462.5 c 128,-1,14
 235 494 235 494 295 494 c 0,15,16
 359 494 359 494 397.5 463 c 128,-1,17
 436 432 436 432 448 370 c 1,18,-1
 433 370 l 1,19,20
 450 426 450 426 496.5 460 c 128,-1,21
 543 494 543 494 606 494 c 0,22,23
 660 494 660 494 695.5 473 c 128,-1,24
 731 452 731 452 749 410.5 c 128,-1,25
 767 369 767 369 767 306 c 2,26,-1
 767 25 l 2,27,28
 767 10 767 10 759 2 c 128,-1,29
 751 -6 751 -6 736 -6 c 0,30,31
 722 -6 722 -6 714 2 c 128,-1,32
 706 10 706 10 706 25 c 2,33,-1
 706 301 l 2,34,35
 706 374 706 374 680.5 407.5 c 128,-1,36
 655 441 655 441 595 441 c 0,37,38
 531 441 531 441 493 396.5 c 128,-1,39
 455 352 455 352 455 276 c 2,40,-1
 455 25 l 2,41,42
 455 10 455 10 447 2 c 128,-1,43
 439 -6 439 -6 425 -6 c 0,44,45
 410 -6 410 -6 402 2 c 128,-1,46
 394 10 394 10 394 25 c 2,47,-1
 394 301 l 2,48,49
 394 374 394 374 368.5 407.5 c 128,-1,50
 343 441 343 441 284 441 c 0,51,52
 219 441 219 441 181 396.5 c 128,-1,53
 143 352 143 352 143 276 c 2,54,-1
 143 25 l 2,55,56
 143 -6 143 -6 113 -6 c 0,0,1
EndSplineSet
EndChar

StartChar: n
Encoding: 110 110 363
Width: 560
GlyphClass: 2
Flags: W
AnchorPoint: "Anchor-2" 281 0 basechar 0
AnchorPoint: "Anchor-0" 281 484 basechar 0
LayerCount: 2
Fore
SplineSet
111 -6 m 0,0,1
 96 -6 96 -6 88 2 c 128,-1,2
 80 10 80 10 80 25 c 2,3,-1
 80 460 l 2,4,5
 80 476 80 476 88 484 c 128,-1,6
 96 492 96 492 111 492 c 0,7,8
 125 492 125 492 132.5 484 c 128,-1,9
 140 476 140 476 140 460 c 2,10,-1
 140 366 l 1,11,-1
 129 372 l 1,12,13
 149 432 149 432 197.5 463 c 128,-1,14
 246 494 246 494 309 494 c 0,15,16
 367 494 367 494 405.5 473.5 c 128,-1,17
 444 453 444 453 463 411 c 128,-1,18
 482 369 482 369 482 306 c 2,19,-1
 482 25 l 2,20,21
 482 10 482 10 474 2 c 128,-1,22
 466 -6 466 -6 452 -6 c 0,23,24
 437 -6 437 -6 429 2 c 128,-1,25
 421 10 421 10 421 25 c 2,26,-1
 421 301 l 2,27,28
 421 374 421 374 392 407.5 c 128,-1,29
 363 441 363 441 300 441 c 0,30,31
 228 441 228 441 184.5 396.5 c 128,-1,32
 141 352 141 352 141 277 c 2,33,-1
 141 25 l 2,34,35
 141 -6 141 -6 111 -6 c 0,0,1
EndSplineSet
EndChar

StartChar: eng
Encoding: 331 331 373
Width: 560
GlyphClass: 1
Flags: W
LayerCount: 2
Fore
SplineSet
309 -192 m 0,0,1
 297 -192 297 -192 289.5 -187.5 c 128,-1,2
 282 -183 282 -183 279.5 -175.5 c 128,-1,3
 277 -168 277 -168 278 -160.5 c 128,-1,4
 279 -153 279 -153 285.5 -147.5 c 128,-1,5
 292 -142 292 -142 302 -141 c 0,6,7
 363 -138 363 -138 392 -110 c 128,-1,8
 421 -82 421 -82 421 -19 c 2,9,-1
 421 301 l 2,10,11
 421 374 421 374 392 407.5 c 128,-1,12
 363 441 363 441 300 441 c 0,13,14
 228 441 228 441 184.5 396.5 c 128,-1,15
 141 352 141 352 141 277 c 2,16,-1
 141 25 l 2,17,18
 141 -6 141 -6 111 -6 c 0,19,20
 96 -6 96 -6 88 2 c 128,-1,21
 80 10 80 10 80 25 c 2,22,-1
 80 460 l 2,23,24
 80 476 80 476 88 484 c 128,-1,25
 96 492 96 492 111 492 c 0,26,27
 125 492 125 492 132.5 484 c 128,-1,28
 140 476 140 476 140 460 c 2,29,-1
 140 366 l 1,30,-1
 129 372 l 1,31,32
 149 432 149 432 197.5 463 c 128,-1,33
 246 494 246 494 309 494 c 0,34,35
 367 494 367 494 405.5 473.5 c 128,-1,36
 444 453 444 453 463 411 c 128,-1,37
 482 369 482 369 482 306 c 2,38,-1
 482 -15 l 2,39,40
 482 -75 482 -75 461.5 -113.5 c 128,-1,41
 441 -152 441 -152 402.5 -171 c 128,-1,42
 364 -190 364 -190 309 -192 c 0,0,1
EndSplineSet
EndChar

StartChar: o
Encoding: 111 111 374
Width: 547
GlyphClass: 2
Flags: W
AnchorPoint: "Anchor-5" 273 243 basechar 0
AnchorPoint: "Anchor-3" 332 0 basechar 0
AnchorPoint: "Anchor-2" 273 0 basechar 0
AnchorPoint: "Anchor-1" 322 484 basechar 0
AnchorPoint: "Anchor-0" 273 484 basechar 0
LayerCount: 2
Fore
SplineSet
273 -8 m 0,0,1
 205 -8 205 -8 155 23 c 128,-1,2
 105 54 105 54 77.5 110 c 128,-1,3
 50 166 50 166 50 243 c 0,4,5
 50 300 50 300 65.5 346 c 128,-1,6
 81 392 81 392 110.5 425.5 c 128,-1,7
 140 459 140 459 181.5 476.5 c 128,-1,8
 223 494 223 494 273 494 c 0,9,10
 342 494 342 494 392 463 c 128,-1,11
 442 432 442 432 469.5 375.5 c 128,-1,12
 497 319 497 319 497 243 c 0,13,14
 497 185 497 185 481.5 139 c 128,-1,15
 466 93 466 93 436.5 60 c 128,-1,16
 407 27 407 27 366 9.5 c 128,-1,17
 325 -8 325 -8 273 -8 c 0,0,1
273 43 m 0,18,19
 323 43 323 43 359.5 66.5 c 128,-1,20
 396 90 396 90 415.5 135 c 128,-1,21
 435 180 435 180 435 243 c 0,22,23
 435 338 435 338 391.5 390 c 128,-1,24
 348 442 348 442 273 442 c 0,25,26
 224 442 224 442 187.5 418.5 c 128,-1,27
 151 395 151 395 131.5 350.5 c 128,-1,28
 112 306 112 306 112 243 c 0,29,30
 112 147 112 147 156 95 c 128,-1,31
 200 43 200 43 273 43 c 0,18,19
EndSplineSet
Substitution2: "Single Substitution lookup 29 subtable" ordmasculine
Substitution2: "'aalt' Access All Alternates lookup 0 subtable" ordmasculine
EndChar

StartChar: oslash
Encoding: 248 248 402
Width: 547
GlyphClass: 2
Flags: W
AnchorPoint: "Anchor-5" 274 243 basechar 0
AnchorPoint: "Anchor-0" 273 484 basechar 0
LayerCount: 2
Fore
SplineSet
273 -8 m 0,0,1
 205 -8 205 -8 155 23 c 128,-1,2
 105 54 105 54 77.5 110 c 128,-1,3
 50 166 50 166 50 243 c 0,4,5
 50 300 50 300 65.5 346 c 128,-1,6
 81 392 81 392 110.5 425.5 c 128,-1,7
 140 459 140 459 181.5 476.5 c 128,-1,8
 223 494 223 494 273 494 c 0,9,10
 342 494 342 494 392 463 c 128,-1,11
 442 432 442 432 469.5 375.5 c 128,-1,12
 497 319 497 319 497 243 c 0,13,14
 497 185 497 185 481.5 139 c 128,-1,15
 466 93 466 93 436.5 60 c 128,-1,16
 407 27 407 27 366 9.5 c 128,-1,17
 325 -8 325 -8 273 -8 c 0,0,1
273 43 m 0,18,19
 323 43 323 43 359.5 66.5 c 128,-1,20
 396 90 396 90 415.5 135 c 128,-1,21
 435 180 435 180 435 243 c 0,22,23
 435 338 435 338 391.5 390 c 128,-1,24
 348 442 348 442 273 442 c 0,25,26
 224 442 224 442 187.5 418.5 c 128,-1,27
 151 395 151 395 131.5 350.5 c 128,-1,28
 112 306 112 306 112 243 c 0,29,30
 112 147 112 147 156 95 c 128,-1,31
 200 43 200 43 273 43 c 0,18,19
143 -28 m 2,32,33
 137 -38 137 -38 128 -39.5 c 128,-1,34
 119 -41 119 -41 112 -36.5 c 128,-1,35
 105 -32 105 -32 102 -23 c 128,-1,36
 99 -14 99 -14 106 -3 c 2,37,-1
 404 513 l 2,38,39
 410 523 410 523 419 524.5 c 128,-1,40
 428 526 428 526 435 521.5 c 128,-1,41
 442 517 442 517 445 508 c 128,-1,42
 448 499 448 499 442 488 c 2,43,-1
 143 -28 l 2,32,33
EndSplineSet
EndChar

StartChar: oe
Encoding: 339 339 408
Width: 908
GlyphClass: 2
Flags: W
AnchorPoint: "Anchor-2" 466 0 basechar 0
AnchorPoint: "Anchor-0" 466 484 basechar 0
LayerCount: 2
Fore
SplineSet
272 -8 m 0,0,1
 205 -8 205 -8 154.5 23 c 128,-1,2
 104 54 104 54 77 110 c 128,-1,3
 50 166 50 166 50 243 c 0,4,5
 50 300 50 300 65.5 346 c 128,-1,6
 81 392 81 392 110.5 425.5 c 128,-1,7
 140 459 140 459 181 476.5 c 128,-1,8
 222 494 222 494 272 494 c 0,9,10
 349 494 349 494 402 451.5 c 128,-1,11
 455 409 455 409 476 334 c 1,12,-1
 455 334 l 1,13,14
 476 409 476 409 531.5 451.5 c 128,-1,15
 587 494 587 494 663 494 c 0,16,17
 725 494 725 494 770 465.5 c 128,-1,18
 815 437 815 437 839 384.5 c 128,-1,19
 863 332 863 332 863 258 c 0,20,21
 863 244 863 244 856 237 c 128,-1,22
 849 230 849 230 835 230 c 2,23,-1
 478 230 l 1,24,-1
 478 275 l 1,25,-1
 825 275 l 1,26,-1
 809 265 l 1,27,28
 809 321 809 321 792 361 c 128,-1,29
 775 401 775 401 742.5 423 c 128,-1,30
 710 445 710 445 661 445 c 0,31,32
 608 445 608 445 571.5 419.5 c 128,-1,33
 535 394 535 394 516 349.5 c 128,-1,34
 497 305 497 305 497 248 c 2,35,-1
 497 242 l 2,36,37
 497 147 497 147 542 95 c 128,-1,38
 587 43 587 43 673 43 c 0,39,40
 708 43 708 43 742 53 c 128,-1,41
 776 63 776 63 808 87 c 0,42,43
 819 94 819 94 828.5 94 c 128,-1,44
 838 94 838 94 844 89 c 128,-1,45
 850 84 850 84 852.5 76.5 c 128,-1,46
 855 69 855 69 852 60.5 c 128,-1,47
 849 52 849 52 838 45 c 0,48,49
 806 20 806 20 761.5 6 c 128,-1,50
 717 -8 717 -8 675 -8 c 0,51,52
 589 -8 589 -8 531.5 32.5 c 128,-1,53
 474 73 474 73 454 150 c 1,54,-1
 475 150 l 1,55,56
 454 76 454 76 401 34 c 128,-1,57
 348 -8 348 -8 272 -8 c 0,0,1
273 43 m 0,58,59
 323 43 323 43 359.5 66.5 c 128,-1,60
 396 90 396 90 415.5 135 c 128,-1,61
 435 180 435 180 435 243 c 0,62,63
 435 338 435 338 391.5 390 c 128,-1,64
 348 442 348 442 273 442 c 0,65,66
 224 442 224 442 187.5 418.5 c 128,-1,67
 151 395 151 395 131.5 350.5 c 128,-1,68
 112 306 112 306 112 243 c 0,69,70
 112 147 112 147 156 95 c 128,-1,71
 200 43 200 43 273 43 c 0,58,59
EndSplineSet
EndChar

StartChar: p
Encoding: 112 112 409
Width: 575
GlyphClass: 2
Flags: W
AnchorPoint: "Anchor-2" 286 0 basechar 0
AnchorPoint: "Anchor-0" 286 484 basechar 0
LayerCount: 2
Fore
SplineSet
111 -186 m 0,0,1
 96 -186 96 -186 88 -178 c 128,-1,2
 80 -170 80 -170 80 -155 c 2,3,-1
 80 460 l 2,4,5
 80 476 80 476 88 484 c 128,-1,6
 96 492 96 492 111 492 c 0,7,8
 125 492 125 492 133 484 c 128,-1,9
 141 476 141 476 141 460 c 2,10,-1
 141 358 l 1,11,-1
 130 364 l 1,12,13
 147 424 147 424 195 459 c 128,-1,14
 243 494 243 494 311 494 c 0,15,16
 376 494 376 494 424.5 463 c 128,-1,17
 473 432 473 432 499.5 376 c 128,-1,18
 526 320 526 320 526 243 c 256,19,20
 526 166 526 166 499.5 109.5 c 128,-1,21
 473 53 473 53 425 22.5 c 128,-1,22
 377 -8 377 -8 311 -8 c 0,23,24
 243 -8 243 -8 195 27 c 128,-1,25
 147 62 147 62 130 120 c 1,26,-1
 141 120 l 1,27,-1
 141 -155 l 2,28,29
 141 -170 141 -170 133 -178 c 128,-1,30
 125 -186 125 -186 111 -186 c 0,0,1
302 43 m 0,31,32
 351 43 351 43 387.5 66.5 c 128,-1,33
 424 90 424 90 444 135 c 128,-1,34
 464 180 464 180 464 243 c 0,35,36
 464 338 464 338 420 390 c 128,-1,37
 376 442 376 442 302 442 c 0,38,39
 253 442 253 442 216.5 418.5 c 128,-1,40
 180 395 180 395 160 350.5 c 128,-1,41
 140 306 140 306 140 243 c 0,42,43
 140 147 140 147 184 95 c 128,-1,44
 228 43 228 43 302 43 c 0,31,32
EndSplineSet
EndChar

StartChar: thorn
Encoding: 254 254 410
Width: 575
GlyphClass: 2
Flags: W
AnchorPoint: "Anchor-2" 286 0 basechar 0
AnchorPoint: "Anchor-0" 286 484 basechar 0
LayerCount: 2
Fore
SplineSet
111 -186 m 0,0,1
 96 -186 96 -186 88 -178 c 128,-1,2
 80 -170 80 -170 80 -155 c 2,3,-1
 80 680 l 2,4,5
 80 696 80 696 88 703.5 c 128,-1,6
 96 711 96 711 111 711 c 0,7,8
 125 711 125 711 133 703.5 c 128,-1,9
 141 696 141 696 141 680 c 2,10,-1
 141 364 l 1,11,-1
 130 364 l 1,12,13
 147 424 147 424 195 459 c 128,-1,14
 243 494 243 494 311 494 c 0,15,16
 376 494 376 494 424.5 463 c 128,-1,17
 473 432 473 432 499.5 376 c 128,-1,18
 526 320 526 320 526 243 c 256,19,20
 526 166 526 166 499.5 109.5 c 128,-1,21
 473 53 473 53 425 22.5 c 128,-1,22
 377 -8 377 -8 311 -8 c 0,23,24
 243 -8 243 -8 195 27 c 128,-1,25
 147 62 147 62 130 120 c 1,26,-1
 141 120 l 1,27,-1
 141 -155 l 2,28,29
 141 -170 141 -170 133 -178 c 128,-1,30
 125 -186 125 -186 111 -186 c 0,0,1
302 43 m 0,31,32
 351 43 351 43 387.5 66.5 c 128,-1,33
 424 90 424 90 444 135 c 128,-1,34
 464 180 464 180 464 243 c 0,35,36
 464 338 464 338 420 390 c 128,-1,37
 376 442 376 442 302 442 c 0,38,39
 253 442 253 442 216.5 418.5 c 128,-1,40
 180 395 180 395 160 350.5 c 128,-1,41
 140 306 140 306 140 243 c 0,42,43
 140 147 140 147 184 95 c 128,-1,44
 228 43 228 43 302 43 c 0,31,32
EndSplineSet
EndChar

StartChar: q
Encoding: 113 113 411
Width: 575
GlyphClass: 2
Flags: W
AnchorPoint: "Anchor-2" 286 0 basechar 0
AnchorPoint: "Anchor-0" 286 484 basechar 0
LayerCount: 2
Fore
SplineSet
464 -186 m 0,0,1
 450 -186 450 -186 442 -178 c 128,-1,2
 434 -170 434 -170 434 -155 c 2,3,-1
 434 120 l 1,4,-1
 445 120 l 1,5,6
 429 62 429 62 381 27 c 128,-1,7
 333 -8 333 -8 265 -8 c 0,8,9
 199 -8 199 -8 150.5 22.5 c 128,-1,10
 102 53 102 53 76 109.5 c 128,-1,11
 50 166 50 166 50 243 c 256,12,13
 50 320 50 320 76.5 376 c 128,-1,14
 103 432 103 432 151.5 463 c 128,-1,15
 200 494 200 494 265 494 c 0,16,17
 333 494 333 494 381 459 c 128,-1,18
 429 424 429 424 445 364 c 1,19,-1
 434 358 l 1,20,-1
 434 460 l 2,21,22
 434 476 434 476 442 484 c 128,-1,23
 450 492 450 492 465 492 c 0,24,25
 479 492 479 492 487 484 c 128,-1,26
 495 476 495 476 495 460 c 2,27,-1
 495 -155 l 2,28,29
 495 -170 495 -170 487 -178 c 128,-1,30
 479 -186 479 -186 464 -186 c 0,0,1
273 43 m 0,31,32
 323 43 323 43 359.5 66.5 c 128,-1,33
 396 90 396 90 415.5 135 c 128,-1,34
 435 180 435 180 435 243 c 0,35,36
 435 338 435 338 391.5 390 c 128,-1,37
 348 442 348 442 273 442 c 0,38,39
 224 442 224 442 187.5 418.5 c 128,-1,40
 151 395 151 395 131.5 350.5 c 128,-1,41
 112 306 112 306 112 243 c 0,42,43
 112 147 112 147 156 95 c 128,-1,44
 200 43 200 43 273 43 c 0,31,32
EndSplineSet
EndChar

StartChar: r
Encoding: 114 114 412
Width: 342
GlyphClass: 2
Flags: W
AnchorPoint: "Anchor-2" 111 0 basechar 0
AnchorPoint: "Anchor-0" 209 484 basechar 0
LayerCount: 2
Fore
SplineSet
111 -6 m 0,0,1
 96 -6 96 -6 88 2 c 128,-1,2
 80 10 80 10 80 25 c 2,3,-1
 80 460 l 2,4,5
 80 476 80 476 88 484 c 128,-1,6
 96 492 96 492 111 492 c 0,7,8
 125 492 125 492 132.5 484 c 128,-1,9
 140 476 140 476 140 460 c 2,10,-1
 140 371 l 1,11,-1
 130 371 l 1,12,13
 148 430 148 430 194.5 462 c 128,-1,14
 241 494 241 494 306 495 c 0,15,16
 318 496 318 496 326 490 c 128,-1,17
 334 484 334 484 334 471 c 0,18,19
 335 457 335 457 328 449.5 c 128,-1,20
 321 442 321 442 305 440 c 2,21,-1
 291 439 l 2,22,23
 220 432 220 432 181 392 c 128,-1,24
 142 352 142 352 142 284 c 2,25,-1
 142 25 l 2,26,27
 142 10 142 10 134.5 2 c 128,-1,28
 127 -6 127 -6 111 -6 c 0,0,1
EndSplineSet
EndChar

StartChar: s
Encoding: 115 115 420
Width: 478
GlyphClass: 2
Flags: W
AnchorPoint: "Anchor-2" 238 0 basechar 0
AnchorPoint: "Anchor-0" 248 484 basechar 0
LayerCount: 2
Fore
SplineSet
238 -8 m 0,0,1
 193 -8 193 -8 148.5 4 c 128,-1,2
 104 16 104 16 64 45 c 0,3,4
 56 50 56 50 53.5 57.5 c 128,-1,5
 51 65 51 65 52.5 73 c 128,-1,6
 54 81 54 81 59.5 86.5 c 128,-1,7
 65 92 65 92 73 93 c 128,-1,8
 81 94 81 94 90 88 c 0,9,10
 129 62 129 62 166 52 c 128,-1,11
 203 42 203 42 240 42 c 0,12,13
 301 42 301 42 333 65 c 128,-1,14
 365 88 365 88 365 127 c 0,15,16
 365 159 365 159 344.5 176.5 c 128,-1,17
 324 194 324 194 278 205 c 2,18,-1
 191 225 l 2,19,20
 128 239 128 239 98 270.5 c 128,-1,21
 68 302 68 302 68 352 c 0,22,23
 68 395 68 395 90.5 427 c 128,-1,24
 113 459 113 459 154.5 476.5 c 128,-1,25
 196 494 196 494 250 494 c 0,26,27
 294 494 294 494 334 481 c 128,-1,28
 374 468 374 468 404 441 c 0,29,30
 412 435 412 435 414.5 427 c 128,-1,31
 417 419 417 419 414.5 411.5 c 128,-1,32
 412 404 412 404 406 399 c 128,-1,33
 400 394 400 394 392 394 c 128,-1,34
 384 394 384 394 375 400 c 0,35,36
 346 422 346 422 314 432.5 c 128,-1,37
 282 443 282 443 249 443 c 0,38,39
 191 443 191 443 159.5 419 c 128,-1,40
 128 395 128 395 128 354 c 0,41,42
 128 323 128 323 147.5 304 c 128,-1,43
 167 285 167 285 209 275 c 2,44,-1
 296 255 l 2,45,46
 361 240 361 240 393 210.5 c 128,-1,47
 425 181 425 181 425 131 c 0,48,49
 425 67 425 67 374.5 29.5 c 128,-1,50
 324 -8 324 -8 238 -8 c 0,0,1
EndSplineSet
EndChar

StartChar: germandbls
Encoding: 223 223 431
Width: 597
GlyphClass: 1
Flags: W
LayerCount: 2
Fore
SplineSet
388 -8 m 0,0,1
 345 -8 345 -8 301.5 4.5 c 128,-1,2
 258 17 258 17 225 42 c 0,3,4
 216 49 216 49 213 57 c 128,-1,5
 210 65 210 65 212 73 c 128,-1,6
 214 81 214 81 220 86 c 128,-1,7
 226 91 226 91 234 91.5 c 128,-1,8
 242 92 242 92 252 86 c 0,9,10
 285 64 285 64 321 53.5 c 128,-1,11
 357 43 357 43 389 43 c 0,12,13
 443 43 443 43 474 66.5 c 128,-1,14
 505 90 505 90 505 130 c 0,15,16
 505 162 505 162 479.5 183 c 128,-1,17
 454 204 454 204 393 224 c 0,18,19
 312 249 312 249 280 280 c 128,-1,20
 248 311 248 311 248 358 c 0,21,22
 248 379 248 379 255.5 398 c 128,-1,23
 263 417 263 417 280.5 438.5 c 128,-1,24
 298 460 298 460 329 485 c 0,25,26
 362 513 362 513 376 536 c 128,-1,27
 390 559 390 559 390 585 c 0,28,29
 390 621 390 621 364.5 642 c 128,-1,30
 339 663 339 663 293 663 c 0,31,32
 220 663 220 663 180.5 619 c 128,-1,33
 141 575 141 575 141 495 c 2,34,-1
 141 25 l 2,35,36
 141 10 141 10 133 2 c 128,-1,37
 125 -6 125 -6 111 -6 c 0,38,39
 96 -6 96 -6 88 2 c 128,-1,40
 80 10 80 10 80 25 c 2,41,-1
 80 490 l 2,42,43
 80 596 80 596 136 654.5 c 128,-1,44
 192 713 192 713 292 713 c 0,45,46
 341 713 341 713 376 698 c 128,-1,47
 411 683 411 683 430.5 655 c 128,-1,48
 450 627 450 627 450 590 c 0,49,50
 450 551 450 551 432 521 c 128,-1,51
 414 491 414 491 370 454 c 0,52,53
 346 434 346 434 332.5 419 c 128,-1,54
 319 404 319 404 313.5 391 c 128,-1,55
 308 378 308 378 308 363 c 0,56,57
 308 334 308 334 332.5 313.5 c 128,-1,58
 357 293 357 293 420 274 c 0,59,60
 498 250 498 250 531.5 216.5 c 128,-1,61
 565 183 565 183 565 130 c 0,62,63
 565 89 565 89 543 58 c 128,-1,64
 521 27 521 27 481 9.5 c 128,-1,65
 441 -8 441 -8 388 -8 c 0,0,1
EndSplineSet
Substitution2: "Single Substitution lookup 39 subtable" germandbls.calt
Substitution2: "Single Substitution lookup 38 subtable" germandbls.calt
Substitution2: "'aalt' Access All Alternates lookup 0 subtable" germandbls.calt
EndChar

StartChar: t
Encoding: 116 116 432
Width: 335
GlyphClass: 2
Flags: W
AnchorPoint: "Anchor-5" 158 269 basechar 0
AnchorPoint: "Anchor-2" 209 0 basechar 0
AnchorPoint: "Anchor-1" 236 705 basechar 0
AnchorPoint: "Anchor-0" 132 635 basechar 0
LayerCount: 2
Fore
SplineSet
263 -8 m 0,0,1
 209 -8 209 -8 173 12 c 128,-1,2
 137 32 137 32 119 69.5 c 128,-1,3
 101 107 101 107 101 162 c 2,4,-1
 101 436 l 1,5,-1
 27 436 l 2,6,7
 14 436 14 436 6 442.5 c 128,-1,8
 -2 449 -2 449 -2 461 c 0,9,10
 -2 472 -2 472 6 478.5 c 128,-1,11
 14 485 14 485 27 485 c 2,12,-1
 101 485 l 1,13,-1
 101 610 l 2,14,15
 101 626 101 626 109 633.5 c 128,-1,16
 117 641 117 641 132 641 c 0,17,18
 146 641 146 641 154 633.5 c 128,-1,19
 162 626 162 626 162 610 c 2,20,-1
 162 485 l 1,21,-1
 297 485 l 2,22,23
 311 485 311 485 318 478.5 c 128,-1,24
 325 472 325 472 325 461 c 0,25,26
 325 449 325 449 318 442.5 c 128,-1,27
 311 436 311 436 297 436 c 2,28,-1
 162 436 l 1,29,-1
 162 170 l 2,30,31
 162 109 162 109 187 77 c 128,-1,32
 212 45 212 45 270 45 c 0,33,34
 290 45 290 45 303.5 49.5 c 128,-1,35
 317 54 317 54 326 54 c 0,36,37
 333 54 333 54 338.5 48 c 128,-1,38
 344 42 344 42 344 29 c 0,39,40
 344 21 344 21 340.5 13 c 128,-1,41
 337 5 337 5 328 3 c 0,42,43
 317 -1 317 -1 298 -4.5 c 128,-1,44
 279 -8 279 -8 263 -8 c 0,0,1
EndSplineSet
EndChar

StartChar: u
Encoding: 117 117 440
Width: 553
GlyphClass: 2
Flags: W
AnchorPoint: "Anchor-3" 464 0 basechar 0
AnchorPoint: "Anchor-2" 277 0 basechar 0
AnchorPoint: "Anchor-1" 420 484 basechar 0
AnchorPoint: "Anchor-0" 277 485 basechar 0
LayerCount: 2
Fore
SplineSet
251 -8 m 0,0,1
 193 -8 193 -8 154.5 13 c 128,-1,2
 116 34 116 34 97 76 c 128,-1,3
 78 118 78 118 78 180 c 2,4,-1
 78 460 l 2,5,6
 78 476 78 476 86 484 c 128,-1,7
 94 492 94 492 109 492 c 0,8,9
 123 492 123 492 131 484 c 128,-1,10
 139 476 139 476 139 460 c 2,11,-1
 139 183 l 2,12,13
 139 113 139 113 168 78.5 c 128,-1,14
 197 44 197 44 259 44 c 0,15,16
 327 44 327 44 369 89.5 c 128,-1,17
 411 135 411 135 411 209 c 2,18,-1
 411 460 l 2,19,20
 411 476 411 476 419 484 c 128,-1,21
 427 492 427 492 442 492 c 0,22,23
 456 492 456 492 464 484 c 128,-1,24
 472 476 472 476 472 460 c 2,25,-1
 472 25 l 2,26,27
 472 -6 472 -6 443 -6 c 0,28,29
 429 -6 429 -6 421 2 c 128,-1,30
 413 10 413 10 413 25 c 2,31,-1
 413 124 l 1,32,-1
 425 117 l 1,33,34
 406 56 406 56 359 24 c 128,-1,35
 312 -8 312 -8 251 -8 c 0,0,1
EndSplineSet
EndChar

StartChar: uhorn
Encoding: 432 432 450
Width: 553
GlyphClass: 2
Flags: W
AnchorPoint: "Anchor-2" 277 0 basechar 0
AnchorPoint: "Anchor-0" 277 484 basechar 0
LayerCount: 2
Fore
SplineSet
251 -8 m 0,0,1
 193 -8 193 -8 154.5 13 c 128,-1,2
 116 34 116 34 97 76 c 128,-1,3
 78 118 78 118 78 180 c 2,4,-1
 78 460 l 2,5,6
 78 476 78 476 86 484 c 128,-1,7
 94 492 94 492 109 492 c 0,8,9
 123 492 123 492 131 484 c 128,-1,10
 139 476 139 476 139 460 c 2,11,-1
 139 183 l 2,12,13
 139 113 139 113 168 78.5 c 128,-1,14
 197 44 197 44 259 44 c 0,15,16
 327 44 327 44 369 89.5 c 128,-1,17
 411 135 411 135 411 209 c 2,18,-1
 411 455 l 2,19,20
 411 471 411 471 419 478 c 128,-1,21
 427 485 427 485 442 486 c 0,22,23
 477 490 477 490 497.5 502 c 128,-1,24
 518 514 518 514 526.5 536.5 c 128,-1,25
 535 559 535 559 535 593 c 0,26,27
 535 621 535 621 563 621 c 0,28,29
 577 621 577 621 584 614.5 c 128,-1,30
 591 608 591 608 591 594 c 0,31,32
 591 530 591 530 560.5 491.5 c 128,-1,33
 530 453 530 453 472 443 c 1,34,-1
 472 25 l 2,35,36
 472 -6 472 -6 443 -6 c 0,37,38
 429 -6 429 -6 421 2 c 128,-1,39
 413 10 413 10 413 25 c 2,40,-1
 413 124 l 1,41,-1
 425 117 l 1,42,43
 406 56 406 56 359 24 c 128,-1,44
 312 -8 312 -8 251 -8 c 0,0,1
EndSplineSet
EndChar

StartChar: uogonek
Encoding: 371 371 460
Width: 553
GlyphClass: 1
Flags: W
LayerCount: 2
Fore
SplineSet
413 124 m 1,0,-1
 425 117 l 1,1,2
 406 56 406 56 359 24 c 128,-1,3
 312 -8 312 -8 251 -8 c 0,4,5
 193 -8 193 -8 154.5 13 c 128,-1,6
 116 34 116 34 97 76 c 128,-1,7
 78 118 78 118 78 180 c 2,8,-1
 78 460 l 2,9,10
 78 476 78 476 86 484 c 128,-1,11
 94 492 94 492 109 492 c 0,12,13
 123 492 123 492 131 484 c 128,-1,14
 139 476 139 476 139 460 c 2,15,-1
 139 183 l 2,16,17
 139 113 139 113 168 78.5 c 128,-1,18
 197 44 197 44 259 44 c 0,19,20
 327 44 327 44 369 89.5 c 128,-1,21
 411 135 411 135 411 209 c 2,22,-1
 411 460 l 2,23,24
 411 476 411 476 419 484 c 128,-1,25
 427 492 427 492 442 492 c 0,26,27
 456 492 456 492 464 484 c 128,-1,28
 472 476 472 476 472 460 c 2,29,-1
 472 25 l 2,30,31
 472 13 472 13 467 5.5 c 128,-1,32
 462 -2 462 -2 454 -6 c 0,33,34
 432 -18 432 -18 413.5 -39.5 c 128,-1,35
 395 -61 395 -61 395 -90 c 0,36,37
 395 -120 395 -120 412 -134 c 128,-1,38
 429 -148 429 -148 454 -148 c 0,39,40
 464 -148 464 -148 473 -146.5 c 128,-1,41
 482 -145 482 -145 491 -142 c 0,42,43
 503 -138 503 -138 509.5 -142.5 c 128,-1,44
 516 -147 516 -147 517.5 -155 c 128,-1,45
 519 -163 519 -163 515.5 -170.5 c 128,-1,46
 512 -178 512 -178 503 -182 c 0,47,48
 489 -187 489 -187 474.5 -189 c 128,-1,49
 460 -191 460 -191 446 -191 c 0,50,51
 402 -191 402 -191 374.5 -165.5 c 128,-1,52
 347 -140 347 -140 347 -96 c 0,53,54
 347 -61 347 -61 368.5 -28 c 128,-1,55
 390 5 390 5 428 27 c 1,56,-1
 418 7 l 1,57,58
 415 11 415 11 414 16 c 128,-1,59
 413 21 413 21 413 27 c 2,60,-1
 413 124 l 1,0,-1
EndSplineSet
EndChar

StartChar: v
Encoding: 118 118 464
Width: 509
GlyphClass: 2
Flags: W
AnchorPoint: "Anchor-2" 255 0 basechar 0
AnchorPoint: "Anchor-0" 255 484 basechar 0
LayerCount: 2
Fore
SplineSet
255 -6 m 0,0,1
 240 -6 240 -6 230 2 c 128,-1,2
 220 10 220 10 212 26 c 2,3,-1
 32 446 l 2,4,5
 27 458 27 458 28.5 468.5 c 128,-1,6
 30 479 30 479 37.5 485.5 c 128,-1,7
 45 492 45 492 59 492 c 0,8,9
 72 492 72 492 78.5 486 c 128,-1,10
 85 480 85 480 90 467 c 2,11,-1
 268 37 l 1,12,-1
 243 37 l 1,13,-1
 422 467 l 2,14,15
 427 480 427 480 434 486 c 128,-1,16
 441 492 441 492 454 492 c 256,17,18
 467 492 467 492 473.5 485.5 c 128,-1,19
 480 479 480 479 481 469 c 128,-1,20
 482 459 482 459 477 447 c 2,21,-1
 297 26 l 2,22,23
 291 10 291 10 280 2 c 128,-1,24
 269 -6 269 -6 255 -6 c 0,0,1
EndSplineSet
EndChar

StartChar: w
Encoding: 119 119 465
Width: 835
GlyphClass: 2
Flags: W
AnchorPoint: "Anchor-2" 418 0 basechar 0
AnchorPoint: "Anchor-0" 418 484 basechar 0
LayerCount: 2
Fore
SplineSet
239 -6 m 0,0,1
 226 -6 226 -6 215.5 1.5 c 128,-1,2
 205 9 205 9 198 25 c 2,3,-1
 47 446 l 2,4,5
 42 460 42 460 44.5 470 c 128,-1,6
 47 480 47 480 54.5 486 c 128,-1,7
 62 492 62 492 73 492 c 0,8,9
 85 492 85 492 92 486.5 c 128,-1,10
 99 481 99 481 104 466 c 2,11,-1
 252 36 l 1,12,-1
 227 36 l 1,13,-1
 381 463 l 2,14,15
 386 478 386 478 396 485 c 128,-1,16
 406 492 406 492 419 492 c 0,17,18
 433 492 433 492 443 485 c 128,-1,19
 453 478 453 478 458 463 c 2,20,-1
 608 36 l 1,21,-1
 583 36 l 1,22,-1
 735 467 l 2,23,24
 740 482 740 482 747 487 c 128,-1,25
 754 492 754 492 766 492 c 0,26,27
 780 492 780 492 786 485 c 128,-1,28
 792 478 792 478 792.5 468 c 128,-1,29
 793 458 793 458 789 446 c 2,30,-1
 637 25 l 2,31,32
 631 9 631 9 620.5 1.5 c 128,-1,33
 610 -6 610 -6 596 -6 c 0,34,35
 583 -6 583 -6 572 1.5 c 128,-1,36
 561 9 561 9 555 25 c 2,37,-1
 400 457 l 1,38,-1
 437 457 l 1,39,-1
 281 25 l 2,40,41
 275 9 275 9 264.5 1.5 c 128,-1,42
 254 -6 254 -6 239 -6 c 0,0,1
EndSplineSet
EndChar

StartChar: x
Encoding: 120 120 470
Width: 515
GlyphClass: 2
Flags: W
AnchorPoint: "Anchor-2" 258 0 basechar 0
AnchorPoint: "Anchor-0" 258 484 basechar 0
LayerCount: 2
Fore
SplineSet
69 -7 m 0,0,1
 59 -7 59 -7 51.5 -1 c 128,-1,2
 44 5 44 5 43.5 15.5 c 128,-1,3
 43 26 43 26 53 39 c 2,4,-1
 235 267 l 1,5,-1
 235 234 l 1,6,-1
 65 446 l 2,7,8
 54 459 54 459 55 469.5 c 128,-1,9
 56 480 56 480 63.5 486 c 128,-1,10
 71 492 71 492 80 492 c 0,11,12
 92 492 92 492 100 487.5 c 128,-1,13
 108 483 108 483 115 473 c 2,14,-1
 269 279 l 1,15,-1
 247 279 l 1,16,-1
 402 473 l 2,17,18
 409 483 409 483 417 487.5 c 128,-1,19
 425 492 425 492 436 492 c 0,20,21
 446 492 446 492 453.5 485.5 c 128,-1,22
 461 479 461 479 461.5 469 c 128,-1,23
 462 459 462 459 451 446 c 2,24,-1
 283 236 l 1,25,-1
 283 264 l 1,26,-1
 463 39 l 2,27,28
 473 26 473 26 472.5 16 c 128,-1,29
 472 6 472 6 464.5 -0.5 c 128,-1,30
 457 -7 457 -7 447 -7 c 0,31,32
 436 -7 436 -7 427.5 -2 c 128,-1,33
 419 3 419 3 411 12 c 2,34,-1
 247 219 l 1,35,-1
 269 219 l 1,36,-1
 104 12 l 2,37,38
 97 3 97 3 88.5 -2 c 128,-1,39
 80 -7 80 -7 69 -7 c 0,0,1
EndSplineSet
EndChar

StartChar: y
Encoding: 121 121 471
Width: 509
GlyphClass: 2
Flags: W
AnchorPoint: "Anchor-2" 380 0 basechar 0
AnchorPoint: "Anchor-0" 255 484 basechar 0
LayerCount: 2
Fore
SplineSet
182 -186 m 0,0,1
 170 -186 170 -186 163 -179.5 c 128,-1,2
 156 -173 156 -173 155.5 -162.5 c 128,-1,3
 155 -152 155 -152 159 -141 c 2,4,-1
 228 16 l 1,5,-1
 228 -12 l 1,6,-1
 32 446 l 2,7,8
 27 458 27 458 28.5 468.5 c 128,-1,9
 30 479 30 479 37.5 485.5 c 128,-1,10
 45 492 45 492 59 492 c 0,11,12
 72 492 72 492 78.5 486 c 128,-1,13
 85 480 85 480 90 467 c 2,14,-1
 268 36 l 1,15,-1
 243 36 l 1,16,-1
 421 467 l 2,17,18
 427 481 427 481 434 486.5 c 128,-1,19
 441 492 441 492 454 492 c 256,20,21
 467 492 467 492 473.5 485.5 c 128,-1,22
 480 479 480 479 481 469 c 128,-1,23
 482 459 482 459 477 447 c 2,24,-1
 216 -162 l 2,25,26
 210 -176 210 -176 202.5 -181 c 128,-1,27
 195 -186 195 -186 182 -186 c 0,0,1
EndSplineSet
EndChar

StartChar: uni01B4
Encoding: 436 436 478
Width: 542
GlyphClass: 1
Flags: W
LayerCount: 2
Fore
SplineSet
182 -186 m 0,0,1
 170 -186 170 -186 163 -179.5 c 128,-1,2
 156 -173 156 -173 155.5 -162.5 c 128,-1,3
 155 -152 155 -152 159 -141 c 2,4,-1
 228 16 l 1,5,-1
 228 -12 l 1,6,-1
 32 447 l 2,7,8
 27 460 27 460 28.5 469.5 c 128,-1,9
 30 479 30 479 37.5 485.5 c 128,-1,10
 45 492 45 492 59 492 c 0,11,12
 72 492 72 492 79 486 c 128,-1,13
 86 480 86 480 91 467 c 2,14,-1
 268 37 l 1,15,-1
 243 37 l 1,16,-1
 393 398 l 2,17,18
 406 430 406 430 423.5 451.5 c 128,-1,19
 441 473 441 473 465.5 483.5 c 128,-1,20
 490 494 490 494 524 494 c 0,21,22
 556 494 556 494 569.5 487.5 c 128,-1,23
 583 481 583 481 583 466 c 0,24,25
 583 455 583 455 577 447.5 c 128,-1,26
 571 440 571 440 560 440 c 0,27,28
 555 440 555 440 547.5 441 c 128,-1,29
 540 442 540 442 532 442 c 0,30,31
 500 442 500 442 479.5 424 c 128,-1,32
 459 406 459 406 440 361 c 2,33,-1
 216 -162 l 2,34,35
 210 -176 210 -176 202.5 -181 c 128,-1,36
 195 -186 195 -186 182 -186 c 0,0,1
EndSplineSet
EndChar

StartChar: z
Encoding: 122 122 482
Width: 459
GlyphClass: 2
Flags: W
AnchorPoint: "Anchor-2" 237 0 basechar 0
AnchorPoint: "Anchor-0" 237 484 basechar 0
LayerCount: 2
Fore
SplineSet
81 0 m 2,0,1
 71 0 71 0 64.5 4.5 c 128,-1,2
 58 9 58 9 55.5 16.5 c 128,-1,3
 53 24 53 24 55.5 33.5 c 128,-1,4
 58 43 58 43 66 52 c 2,5,-1
 359 453 l 1,6,-1
 359 436 l 1,7,-1
 77 436 l 2,8,9
 64 436 64 436 57.5 442.5 c 128,-1,10
 51 449 51 449 51 461 c 0,11,12
 51 472 51 472 57.5 478.5 c 128,-1,13
 64 485 64 485 77 485 c 2,14,-1
 389 485 l 2,15,16
 401 485 401 485 408.5 480.5 c 128,-1,17
 416 476 416 476 418.5 469 c 128,-1,18
 421 462 421 462 419 453 c 128,-1,19
 417 444 417 444 410 435 c 2,20,-1
 113 31 l 1,21,-1
 113 49 l 1,22,-1
 408 49 l 2,23,24
 434 49 434 49 434 25 c 0,25,26
 434 13 434 13 427 6.5 c 128,-1,27
 420 0 420 0 408 0 c 2,28,-1
 81 0 l 2,0,1
EndSplineSet
EndChar

StartChar: germandbls.calt
Encoding: 65540 -1 487
Width: 705
GlyphClass: 1
Flags: W
LayerCount: 2
Fore
SplineSet
422 -8 m 0,0,1
 368 -8 368 -8 321 5.5 c 128,-1,2
 274 19 274 19 240 46 c 0,3,4
 231 53 231 53 228.5 61 c 128,-1,5
 226 69 226 69 228.5 77.5 c 128,-1,6
 231 86 231 86 236.5 92 c 128,-1,7
 242 98 242 98 250.5 98.5 c 128,-1,8
 259 99 259 99 268 93 c 0,9,10
 302 67 302 67 339.5 56.5 c 128,-1,11
 377 46 377 46 419 46 c 0,12,13
 496 46 496 46 536 84 c 128,-1,14
 576 122 576 122 576 189 c 0,15,16
 576 255 576 255 534 291.5 c 128,-1,17
 492 328 492 328 405 328 c 2,18,-1
 288 328 l 2,19,20
 275 328 275 328 267 335 c 128,-1,21
 259 342 259 342 259 355 c 0,22,23
 259 367 259 367 267 374 c 128,-1,24
 275 381 275 381 287 381 c 2,25,-1
 380 381 l 2,26,27
 452 381 452 381 495 416.5 c 128,-1,28
 538 452 538 452 538 520 c 256,29,30
 538 588 538 588 493 623.5 c 128,-1,31
 448 659 448 659 363 659 c 0,32,33
 260 659 260 659 206.5 610 c 128,-1,34
 153 561 153 561 153 463 c 2,35,-1
 153 26 l 2,36,37
 153 11 153 11 145 2.5 c 128,-1,38
 137 -6 137 -6 122 -6 c 0,39,40
 108 -6 108 -6 100 2.5 c 128,-1,41
 92 11 92 11 92 26 c 2,42,-1
 92 465 l 2,43,44
 92 547 92 547 124.5 602 c 128,-1,45
 157 657 157 657 218 685 c 128,-1,46
 279 713 279 713 364 713 c 0,47,48
 436 713 436 713 489 690.5 c 128,-1,49
 542 668 542 668 571 627 c 128,-1,50
 600 586 600 586 600 528 c 0,51,52
 600 462 600 462 565 414.5 c 128,-1,53
 530 367 530 367 470 353 c 1,54,-1
 470 368 l 1,55,56
 521 362 521 362 558.5 338.5 c 128,-1,57
 596 315 596 315 617 277 c 128,-1,58
 638 239 638 239 638 187 c 0,59,60
 638 125 638 125 612 81 c 128,-1,61
 586 37 586 37 538 14.5 c 128,-1,62
 490 -8 490 -8 422 -8 c 0,0,1
EndSplineSet
EndChar

StartChar: a.ss01
Encoding: 65542 -1 489
Width: 575
GlyphClass: 2
Flags: W
AnchorPoint: "Anchor-3" 487 0 basechar 0
AnchorPoint: "Anchor-2" 284 0 basechar 0
AnchorPoint: "Anchor-0" 284 484 basechar 0
LayerCount: 2
Fore
SplineSet
265 -8 m 0,0,1
 200 -8 200 -8 151.5 22.5 c 128,-1,2
 103 53 103 53 76.5 109.5 c 128,-1,3
 50 166 50 166 50 243 c 256,4,5
 50 320 50 320 76 376 c 128,-1,6
 102 432 102 432 150.5 463 c 128,-1,7
 199 494 199 494 265 494 c 0,8,9
 333 494 333 494 381 459 c 128,-1,10
 429 424 429 424 445 365 c 1,11,-1
 434 360 l 1,12,-1
 434 460 l 2,13,14
 434 476 434 476 442 484 c 128,-1,15
 450 492 450 492 465 492 c 0,16,17
 479 492 479 492 487 484 c 128,-1,18
 495 476 495 476 495 460 c 2,19,-1
 495 25 l 2,20,21
 495 10 495 10 487 2 c 128,-1,22
 479 -6 479 -6 465 -6 c 0,23,24
 450 -6 450 -6 442 2 c 128,-1,25
 434 10 434 10 434 25 c 2,26,-1
 434 126 l 1,27,-1
 445 121 l 1,28,29
 429 62 429 62 381 27 c 128,-1,30
 333 -8 333 -8 265 -8 c 0,0,1
273 43 m 0,31,32
 323 43 323 43 359.5 66.5 c 128,-1,33
 396 90 396 90 415.5 135 c 128,-1,34
 435 180 435 180 435 243 c 0,35,36
 435 338 435 338 391.5 390 c 128,-1,37
 348 442 348 442 273 442 c 0,38,39
 224 442 224 442 187.5 418.5 c 128,-1,40
 151 395 151 395 131.5 350.5 c 128,-1,41
 112 306 112 306 112 243 c 0,42,43
 112 147 112 147 156 95 c 128,-1,44
 200 43 200 43 273 43 c 0,31,32
EndSplineSet
EndChar

StartChar: l.ss02
Encoding: 65569 -1 516
Width: 222
GlyphClass: 2
Flags: W
AnchorPoint: "Anchor-5" 111 357 basechar 0
AnchorPoint: "Anchor-2" 111 0 basechar 0
AnchorPoint: "Anchor-1" 189 705 basechar 0
AnchorPoint: "Anchor-0" 111 705 basechar 0
LayerCount: 2
Fore
SplineSet
111 -6 m 0,0,1
 96 -6 96 -6 88 2 c 128,-1,2
 80 10 80 10 80 25 c 2,3,-1
 80 680 l 2,4,5
 80 696 80 696 88 703.5 c 128,-1,6
 96 711 96 711 111 711 c 0,7,8
 125 711 125 711 133 703.5 c 128,-1,9
 141 696 141 696 141 680 c 2,10,-1
 141 25 l 2,11,12
 141 -6 141 -6 111 -6 c 0,0,1
EndSplineSet
EndChar

StartChar: fi
Encoding: 64257 64257 525
Width: 535
GlyphClass: 3
LigCaretCntFixed: 1
Flags: W
LayerCount: 2
Fore
SplineSet
134 -6 m 0,0,1
 119 -6 119 -6 111 2 c 128,-1,2
 103 10 103 10 103 25 c 2,3,-1
 103 436 l 1,4,-1
 32 436 l 2,5,6
 19 436 19 436 11.5 442.5 c 128,-1,7
 4 449 4 449 4 461 c 0,8,9
 4 472 4 472 11.5 478.5 c 128,-1,10
 19 485 19 485 32 485 c 2,11,-1
 119 485 l 1,12,-1
 103 469 l 1,13,-1
 103 509 l 2,14,15
 103 599 103 599 146 648 c 128,-1,16
 189 697 189 697 275 704 c 2,17,-1
 305 706 l 2,18,19
 316 708 316 708 323 703.5 c 128,-1,20
 330 699 330 699 332 691.5 c 128,-1,21
 334 684 334 684 332.5 676 c 128,-1,22
 331 668 331 668 325.5 662.5 c 128,-1,23
 320 657 320 657 313 657 c 2,24,-1
 281 655 l 2,25,26
 219 651 219 651 191.5 615 c 128,-1,27
 164 579 164 579 164 514 c 2,28,-1
 164 471 l 1,29,-1
 155 485 l 1,30,-1
 424 485 l 2,31,32
 438 485 438 485 446 477 c 128,-1,33
 454 469 454 469 454 453 c 2,34,-1
 454 29 l 2,35,36
 454 14 454 14 446.5 5 c 128,-1,37
 439 -4 439 -4 424 -4 c 256,38,39
 409 -4 409 -4 401 5 c 128,-1,40
 393 14 393 14 393 29 c 2,41,-1
 393 436 l 1,42,-1
 164 436 l 1,43,-1
 164 25 l 2,44,45
 164 -6 164 -6 134 -6 c 0,0,1
424 610 m 0,46,47
 404 610 404 610 392.5 621 c 128,-1,48
 381 632 381 632 381 652 c 256,49,50
 381 672 381 672 392.5 682.5 c 128,-1,51
 404 693 404 693 424 693 c 0,52,53
 445 693 445 693 456.5 682.5 c 128,-1,54
 468 672 468 672 468 652 c 256,55,56
 468 632 468 632 456.5 621 c 128,-1,57
 445 610 445 610 424 610 c 0,46,47
EndSplineSet
Ligature2: "'liga' Standard Ligatures lookup 33 subtable" f i
LCarets2: 1 267
EndChar

StartChar: ordfeminine
Encoding: 170 170 529
Width: 321
GlyphClass: 1
Flags: W
LayerCount: 2
Fore
SplineSet
137 412 m 0,0,1
 90 412 90 412 60 437.5 c 128,-1,2
 30 463 30 463 30 501 c 0,3,4
 30 546 30 546 71.5 566 c 128,-1,5
 113 586 113 586 180 586 c 2,6,-1
 244 586 l 1,7,-1
 244 553 l 1,8,-1
 182 553 l 2,9,10
 129 553 129 553 102.5 540.5 c 128,-1,11
 76 528 76 528 76 502 c 0,12,13
 76 479 76 479 92.5 463.5 c 128,-1,14
 109 448 109 448 145 448 c 0,15,16
 172 448 172 448 193 460 c 128,-1,17
 214 472 214 472 225.5 494 c 128,-1,18
 237 516 237 516 237 547 c 2,19,-1
 237 605 l 2,20,21
 237 640 237 640 218 658 c 128,-1,22
 199 676 199 676 162 676 c 0,23,24
 140 676 140 676 118 671 c 128,-1,25
 96 666 96 666 76 656 c 0,26,27
 65 651 65 651 58 654.5 c 128,-1,28
 51 658 51 658 48 664.5 c 128,-1,29
 45 671 45 671 48 679 c 128,-1,30
 51 687 51 687 60 692 c 0,31,32
 84 703 84 703 110 708 c 128,-1,33
 136 713 136 713 163 713 c 0,34,35
 203 713 203 713 229 701 c 128,-1,36
 255 689 255 689 268.5 664.5 c 128,-1,37
 282 640 282 640 282 603 c 2,38,-1
 282 435 l 2,39,40
 282 412 282 412 260 412 c 0,41,42
 249 412 249 412 243.5 418.5 c 128,-1,43
 238 425 238 425 238 435 c 2,44,-1
 238 471 l 1,45,-1
 236 471 l 1,46,47
 219 440 219 440 195 426 c 128,-1,48
 171 412 171 412 137 412 c 0,0,1
EndSplineSet
EndChar

StartChar: ordmasculine
Encoding: 186 186 530
Width: 332
GlyphClass: 1
Flags: W
LayerCount: 2
Fore
SplineSet
166 412 m 256,0,1
 125 412 125 412 93.5 430.5 c 128,-1,2
 62 449 62 449 43 483.5 c 128,-1,3
 24 518 24 518 24 563 c 0,4,5
 24 609 24 609 43 642.5 c 128,-1,6
 62 676 62 676 93.5 694.5 c 128,-1,7
 125 713 125 713 166 713 c 256,8,9
 207 713 207 713 239 694.5 c 128,-1,10
 271 676 271 676 289.5 642.5 c 128,-1,11
 308 609 308 609 308 563 c 0,12,13
 308 518 308 518 289.5 483.5 c 128,-1,14
 271 449 271 449 239 430.5 c 128,-1,15
 207 412 207 412 166 412 c 256,0,1
166 450 m 0,16,17
 210 450 210 450 235.5 479 c 128,-1,18
 261 508 261 508 261 563 c 256,19,20
 261 618 261 618 235.5 646.5 c 128,-1,21
 210 675 210 675 166 675 c 0,22,23
 123 675 123 675 97 646.5 c 128,-1,24
 71 618 71 618 71 563 c 256,25,26
 71 508 71 508 97 479 c 128,-1,27
 123 450 123 450 166 450 c 0,16,17
EndSplineSet
EndChar

StartChar: uni0411
Encoding: 1041 1041 532
Width: 654
GlyphClass: 1
Flags: W
LayerCount: 2
Fore
SplineSet
126 0 m 2,0,1
 110 0 110 0 101 9 c 128,-1,2
 92 18 92 18 92 35 c 2,3,-1
 92 670 l 2,4,5
 92 687 92 687 101 696 c 128,-1,6
 110 705 110 705 126 705 c 2,7,-1
 518 705 l 2,8,9
 531 705 531 705 538.5 698 c 128,-1,10
 546 691 546 691 546 679 c 0,11,12
 546 665 546 665 538.5 658.5 c 128,-1,13
 531 652 531 652 518 652 c 2,14,-1
 152 652 l 1,15,-1
 152 386 l 1,16,-1
 374 386 l 2,17,18
 484 386 484 386 544 338.5 c 128,-1,19
 604 291 604 291 604 194 c 0,20,21
 604 98 604 98 544 49 c 128,-1,22
 484 0 484 0 374 0 c 2,23,-1
 126 0 l 2,0,1
152 53 m 1,24,-1
 369 53 l 2,25,26
 456 53 456 53 499 88 c 128,-1,27
 542 123 542 123 542 194 c 256,28,29
 542 265 542 265 499 299 c 128,-1,30
 456 333 456 333 369 333 c 2,31,-1
 152 333 l 1,32,-1
 152 53 l 1,24,-1
EndSplineSet
EndChar

StartChar: uni0413
Encoding: 1043 1043 534
Width: 534
GlyphClass: 2
Flags: W
AnchorPoint: "Anchor-4" 151 354 basechar 0
AnchorPoint: "Anchor-0" 276 705 basechar 0
LayerCount: 2
Fore
SplineSet
122 -6 m 0,0,1
 108 -6 108 -6 100 2.5 c 128,-1,2
 92 11 92 11 92 26 c 2,3,-1
 92 673 l 2,4,5
 92 689 92 689 100.5 697 c 128,-1,6
 109 705 109 705 124 705 c 2,7,-1
 498 705 l 2,8,9
 512 705 512 705 519.5 698 c 128,-1,10
 527 691 527 691 527 677 c 0,11,12
 527 665 527 665 519.5 657.5 c 128,-1,13
 512 650 512 650 498 650 c 2,14,-1
 153 650 l 1,15,-1
 153 26 l 2,16,17
 153 11 153 11 145.5 2.5 c 128,-1,18
 138 -6 138 -6 122 -6 c 0,0,1
EndSplineSet
EndChar

StartChar: uni0490
Encoding: 1168 1168 536
Width: 534
GlyphClass: 1
Flags: W
LayerCount: 2
Fore
SplineSet
122 -6 m 0,0,1
 108 -6 108 -6 100 2.5 c 128,-1,2
 92 11 92 11 92 26 c 2,3,-1
 92 673 l 2,4,5
 92 689 92 689 100.5 697 c 128,-1,6
 109 705 109 705 124 705 c 2,7,-1
 464 705 l 1,8,-1
 464 834 l 2,9,10
 464 864 464 864 492 864 c 0,11,12
 506 864 506 864 513.5 856 c 128,-1,13
 521 848 521 848 521 834 c 2,14,-1
 521 683 l 2,15,16
 521 668 521 668 512.5 659 c 128,-1,17
 504 650 504 650 489 650 c 2,18,-1
 153 650 l 1,19,-1
 153 26 l 2,20,21
 153 11 153 11 145.5 2.5 c 128,-1,22
 138 -6 138 -6 122 -6 c 0,0,1
EndSplineSet
EndChar

StartChar: uni04F6
Encoding: 1270 1270 537
Width: 534
GlyphClass: 1
Flags: W
LayerCount: 2
Fore
SplineSet
225 -160 m 256,0,1
 211 -160 211 -160 203.5 -152 c 128,-1,2
 196 -144 196 -144 196 -130 c 2,3,-1
 196 0 l 1,4,-1
 122 0 l 2,5,6
 108 0 108 0 100 7.5 c 128,-1,7
 92 15 92 15 92 32 c 2,8,-1
 92 673 l 2,9,10
 92 689 92 689 100.5 697 c 128,-1,11
 109 705 109 705 124 705 c 2,12,-1
 498 705 l 2,13,14
 512 705 512 705 519.5 698 c 128,-1,15
 527 691 527 691 527 677 c 0,16,17
 527 665 527 665 519.5 657.5 c 128,-1,18
 512 650 512 650 498 650 c 2,19,-1
 153 650 l 1,20,-1
 153 26 l 1,21,-1
 125 54 l 1,22,-1
 220 54 l 2,23,24
 236 54 236 54 244.5 45.5 c 128,-1,25
 253 37 253 37 253 21 c 2,26,-1
 253 -130 l 2,27,28
 253 -144 253 -144 246 -152 c 128,-1,29
 239 -160 239 -160 225 -160 c 256,0,1
EndSplineSet
EndChar

StartChar: uni0492
Encoding: 1170 1170 538
Width: 568
GlyphClass: 1
Flags: W
LayerCount: 2
Fore
SplineSet
156 -6 m 256,0,1
 141 -6 141 -6 133 2.5 c 128,-1,2
 125 11 125 11 125 26 c 2,3,-1
 125 330 l 1,4,-1
 55 330 l 2,5,6
 42 330 42 330 34 336.5 c 128,-1,7
 26 343 26 343 26 355 c 256,8,9
 26 367 26 367 34 373.5 c 128,-1,10
 42 380 42 380 55 380 c 2,11,-1
 125 380 l 1,12,-1
 125 673 l 2,13,14
 125 689 125 689 133.5 697 c 128,-1,15
 142 705 142 705 157 705 c 2,16,-1
 531 705 l 2,17,18
 546 705 546 705 553.5 698 c 128,-1,19
 561 691 561 691 561 677 c 0,20,21
 561 665 561 665 553.5 657.5 c 128,-1,22
 546 650 546 650 531 650 c 2,23,-1
 187 650 l 1,24,-1
 187 380 l 1,25,-1
 346 380 l 2,26,27
 360 380 360 380 367.5 373.5 c 128,-1,28
 375 367 375 367 375 355 c 256,29,30
 375 343 375 343 367.5 336.5 c 128,-1,31
 360 330 360 330 346 330 c 2,32,-1
 187 330 l 1,33,-1
 187 26 l 2,34,35
 187 11 187 11 179 2.5 c 128,-1,36
 171 -6 171 -6 156 -6 c 256,0,1
EndSplineSet
Substitution2: "'locl' Localized Forms in Cyrillic lookup 16 subtable" uni0492.loclBSH
Substitution2: "'aalt' Access All Alternates lookup 0 subtable" uni0492.loclBSH
EndChar

StartChar: uni0494
Encoding: 1172 1172 539
Width: 655
GlyphClass: 1
Flags: W
LayerCount: 2
Fore
SplineSet
399 -188 m 0,0,1
 374 -188 374 -188 348 -184 c 128,-1,2
 322 -180 322 -180 303 -174 c 0,3,4
 293 -170 293 -170 287.5 -163 c 128,-1,5
 282 -156 282 -156 282.5 -148 c 128,-1,6
 283 -140 283 -140 286.5 -133.5 c 128,-1,7
 290 -127 290 -127 298 -123.5 c 128,-1,8
 306 -120 306 -120 317 -124 c 0,9,10
 336 -130 336 -130 354.5 -132.5 c 128,-1,11
 373 -135 373 -135 395 -135 c 0,12,13
 462 -135 462 -135 497.5 -90 c 128,-1,14
 533 -45 533 -45 533 45 c 2,15,-1
 533 140 l 2,16,17
 533 260 533 260 480.5 317.5 c 128,-1,18
 428 375 428 375 320 375 c 0,19,20
 269 375 269 375 228 364.5 c 128,-1,21
 187 354 187 354 153 332 c 1,22,-1
 153 26 l 2,23,24
 153 11 153 11 145.5 2.5 c 128,-1,25
 138 -6 138 -6 122 -6 c 0,26,27
 108 -6 108 -6 100 2.5 c 128,-1,28
 92 11 92 11 92 26 c 2,29,-1
 92 673 l 2,30,31
 92 689 92 689 100.5 697 c 128,-1,32
 109 705 109 705 124 705 c 2,33,-1
 513 705 l 2,34,35
 527 705 527 705 535 698 c 128,-1,36
 543 691 543 691 543 678 c 256,37,38
 543 665 543 665 535 657.5 c 128,-1,39
 527 650 527 650 513 650 c 2,40,-1
 153 650 l 1,41,-1
 153 393 l 1,42,43
 182 411 182 411 228.5 421.5 c 128,-1,44
 275 432 275 432 324 432 c 0,45,46
 392 432 392 432 442.5 414 c 128,-1,47
 493 396 493 396 526.5 360 c 128,-1,48
 560 324 560 324 577.5 270.5 c 128,-1,49
 595 217 595 217 595 146 c 2,50,-1
 595 47 l 2,51,52
 595 -29 595 -29 572 -81.5 c 128,-1,53
 549 -134 549 -134 505 -161 c 128,-1,54
 461 -188 461 -188 399 -188 c 0,0,1
EndSplineSet
EndChar

StartChar: uni0414
Encoding: 1044 1044 540
Width: 769
GlyphClass: 1
Flags: W
AnchorPoint: "Anchor-0" 409 704 basechar 0
LayerCount: 2
Fore
SplineSet
46 -160 m 0,0,1
 32 -160 32 -160 25 -152 c 128,-1,2
 18 -144 18 -144 18 -130 c 2,3,-1
 18 21 l 2,4,5
 18 53 18 53 51 53 c 2,6,-1
 114 53 l 1,7,-1
 78 43 l 1,8,9
 136 110 136 110 164.5 227.5 c 128,-1,10
 193 345 193 345 193 524 c 2,11,-1
 193 670 l 2,12,13
 193 687 193 687 202 696 c 128,-1,14
 211 705 211 705 227 705 c 2,15,-1
 611 705 l 2,16,17
 628 705 628 705 637 696 c 128,-1,18
 646 687 646 687 646 670 c 2,19,-1
 646 28 l 1,20,-1
 621 53 l 1,21,-1
 713 53 l 2,22,23
 729 53 729 53 737.5 45 c 128,-1,24
 746 37 746 37 746 21 c 2,25,-1
 746 -130 l 2,26,27
 746 -160 746 -160 718 -160 c 0,28,29
 704 -160 704 -160 696.5 -152 c 128,-1,30
 689 -144 689 -144 689 -130 c 2,31,-1
 689 0 l 1,32,-1
 75 0 l 1,33,-1
 75 -130 l 2,34,35
 75 -160 75 -160 46 -160 c 0,0,1
152 53 m 1,36,-1
 584 53 l 1,37,-1
 584 652 l 1,38,-1
 251 652 l 1,39,-1
 251 521 l 2,40,41
 251 352 251 352 227.5 240 c 128,-1,42
 204 128 204 128 152 53 c 1,36,-1
EndSplineSet
EndChar

StartChar: uni0416
Encoding: 1046 1046 544
Width: 948
GlyphClass: 2
Flags: W
AnchorPoint: "Anchor-0" 474 705 basechar 0
LayerCount: 2
Fore
SplineSet
474 -6 m 0,0,1
 459 -6 459 -6 451.5 2.5 c 128,-1,2
 444 11 444 11 444 26 c 2,3,-1
 444 330 l 1,4,-1
 349 330 l 2,5,6
 290 330 290 330 250 301.5 c 128,-1,7
 210 273 210 273 179 208 c 2,8,-1
 86 14 l 2,9,10
 80 3 80 3 71 -1.5 c 128,-1,11
 62 -6 62 -6 52.5 -5 c 128,-1,12
 43 -4 43 -4 35.5 1 c 128,-1,13
 28 6 28 6 25.5 15.5 c 128,-1,14
 23 25 23 25 29 36 c 2,15,-1
 131 242 l 2,16,17
 162 305 162 305 205.5 340.5 c 128,-1,18
 249 376 249 376 307 382 c 1,19,-1
 286 360 l 1,20,-1
 78 666 l 2,21,22
 71 677 71 677 72 686 c 128,-1,23
 73 695 73 695 79.5 701.5 c 128,-1,24
 86 708 86 708 95 710 c 128,-1,25
 104 712 104 712 113.5 708.5 c 128,-1,26
 123 705 123 705 129 695 c 2,27,-1
 348 369 l 1,28,-1
 326 384 l 1,29,-1
 444 384 l 1,30,-1
 444 680 l 2,31,32
 444 695 444 695 451.5 703 c 128,-1,33
 459 711 459 711 474 711 c 0,34,35
 488 711 488 711 496 703 c 128,-1,36
 504 695 504 695 504 680 c 2,37,-1
 504 384 l 1,38,-1
 623 384 l 1,39,-1
 600 369 l 1,40,-1
 819 695 l 2,41,42
 826 705 826 705 835 708.5 c 128,-1,43
 844 712 844 712 853 710 c 128,-1,44
 862 708 862 708 868 701.5 c 128,-1,45
 874 695 874 695 875.5 686 c 128,-1,46
 877 677 877 677 870 666 c 2,47,-1
 662 360 l 1,48,-1
 641 382 l 1,49,50
 680 378 680 378 711.5 361 c 128,-1,51
 743 344 743 344 769 314 c 128,-1,52
 795 284 795 284 816 242 c 2,53,-1
 917 36 l 2,54,55
 923 25 923 25 920.5 15.5 c 128,-1,56
 918 6 918 6 910.5 1 c 128,-1,57
 903 -4 903 -4 893.5 -5 c 128,-1,58
 884 -6 884 -6 875 -1.5 c 128,-1,59
 866 3 866 3 861 14 c 2,60,-1
 767 208 l 2,61,62
 735 274 735 274 695.5 302 c 128,-1,63
 656 330 656 330 599 330 c 2,64,-1
 504 330 l 1,65,-1
 504 26 l 2,66,67
 504 11 504 11 496 2.5 c 128,-1,68
 488 -6 488 -6 474 -6 c 0,0,1
EndSplineSet
EndChar

StartChar: uni0417
Encoding: 1047 1047 545
Width: 643
GlyphClass: 2
Flags: W
AnchorPoint: "Anchor-2" 319 0 basechar 0
AnchorPoint: "Anchor-0" 317 705 basechar 0
LayerCount: 2
Fore
SplineSet
316 -8 m 0,0,1
 234 -8 234 -8 167.5 13.5 c 128,-1,2
 101 35 101 35 57 73 c 0,3,4
 48 81 48 81 46 89.5 c 128,-1,5
 44 98 44 98 46.5 106.5 c 128,-1,6
 49 115 49 115 55 120.5 c 128,-1,7
 61 126 61 126 70 126.5 c 128,-1,8
 79 127 79 127 89 119 c 0,9,10
 120 95 120 95 154 79.5 c 128,-1,11
 188 64 188 64 227.5 56 c 128,-1,12
 267 48 267 48 313 48 c 0,13,14
 382 48 382 48 426 64.5 c 128,-1,15
 470 81 470 81 491.5 113 c 128,-1,16
 513 145 513 145 513 193 c 0,17,18
 513 263 513 263 470 296.5 c 128,-1,19
 427 330 427 330 340 330 c 2,20,-1
 191 330 l 2,21,22
 177 330 177 330 169 337.5 c 128,-1,23
 161 345 161 345 161 357 c 0,24,25
 161 370 161 370 169 376.5 c 128,-1,26
 177 383 177 383 191 383 c 2,27,-1
 325 383 l 2,28,29
 409 383 409 383 453 417.5 c 128,-1,30
 497 452 497 452 497 517 c 0,31,32
 497 561 497 561 476.5 592.5 c 128,-1,33
 456 624 456 624 415 640.5 c 128,-1,34
 374 657 374 657 314 657 c 0,35,36
 257 657 257 657 204.5 641 c 128,-1,37
 152 625 152 625 107 590 c 0,38,39
 97 583 97 583 88 583 c 128,-1,40
 79 583 79 583 72.5 588.5 c 128,-1,41
 66 594 66 594 63.5 602.5 c 128,-1,42
 61 611 61 611 64 619.5 c 128,-1,43
 67 628 67 628 76 635 c 0,44,45
 124 675 124 675 187.5 694 c 128,-1,46
 251 713 251 713 317 713 c 0,47,48
 397 713 397 713 451 689.5 c 128,-1,49
 505 666 505 666 532.5 623 c 128,-1,50
 560 580 560 580 560 520 c 0,51,52
 560 454 560 454 520.5 410 c 128,-1,53
 481 366 481 366 414 352 c 1,54,-1
 414 366 l 1,55,56
 488 358 488 358 532 312.5 c 128,-1,57
 576 267 576 267 576 192 c 0,58,59
 576 130 576 130 548 84.5 c 128,-1,60
 520 39 520 39 462 15.5 c 128,-1,61
 404 -8 404 -8 316 -8 c 0,0,1
EndSplineSet
EndChar

StartChar: uni0418
Encoding: 1048 1048 546
Width: 736
GlyphClass: 2
Flags: W
AnchorPoint: "Anchor-0" 368 705 basechar 0
LayerCount: 2
Fore
SplineSet
118 -6 m 0,0,1
 112 -6 112 -6 107 -4 c 128,-1,2
 102 -2 102 -2 99 2 c 128,-1,3
 96 6 96 6 94 12 c 128,-1,4
 92 18 92 18 92 26 c 2,5,-1
 92 681 l 2,6,7
 92 696 92 696 99.5 703.5 c 128,-1,8
 107 711 107 711 121 711 c 0,9,10
 134 711 134 711 141.5 703.5 c 128,-1,11
 149 696 149 696 149 681 c 2,12,-1
 149 73 l 1,13,-1
 128 73 l 1,14,-1
 586 692 l 2,15,16
 593 703 593 703 600.5 707 c 128,-1,17
 608 711 608 711 619 711 c 0,18,19
 627 711 627 711 632.5 707.5 c 128,-1,20
 638 704 638 704 641 697.5 c 128,-1,21
 644 691 644 691 644 680 c 2,22,-1
 644 25 l 2,23,24
 644 10 644 10 636.5 2 c 128,-1,25
 629 -6 629 -6 616 -6 c 0,26,27
 602 -6 602 -6 594.5 2 c 128,-1,28
 587 10 587 10 587 25 c 2,29,-1
 587 632 l 1,30,-1
 609 632 l 1,31,-1
 150 13 l 2,32,33
 143 3 143 3 136.5 -1.5 c 128,-1,34
 130 -6 130 -6 118 -6 c 0,0,1
EndSplineSet
EndChar

StartChar: uni048A
Encoding: 1162 1162 549
Width: 749
GlyphClass: 1
Flags: W
LayerCount: 2
Fore
SplineSet
689 -139 m 2,0,1
 685 -149 685 -149 678 -154 c 128,-1,2
 671 -159 671 -159 663 -159 c 128,-1,3
 655 -159 655 -159 648.5 -155 c 128,-1,4
 642 -151 642 -151 639 -143 c 128,-1,5
 636 -135 636 -135 640 -124 c 2,6,-1
 687 17 l 1,7,-1
 701 0 l 1,8,-1
 617 0 l 2,9,10
 602 0 602 0 594.5 7.5 c 128,-1,11
 587 15 587 15 587 30 c 2,12,-1
 587 632 l 1,13,-1
 609 632 l 1,14,-1
 150 13 l 2,15,16
 143 3 143 3 136.5 -1.5 c 128,-1,17
 130 -6 130 -6 118 -6 c 0,18,19
 112 -6 112 -6 107 -4 c 128,-1,20
 102 -2 102 -2 99 2 c 128,-1,21
 96 6 96 6 94 12 c 128,-1,22
 92 18 92 18 92 26 c 2,23,-1
 92 681 l 2,24,25
 92 696 92 696 99.5 703.5 c 128,-1,26
 107 711 107 711 121 711 c 0,27,28
 134 711 134 711 141.5 703.5 c 128,-1,29
 149 696 149 696 149 681 c 2,30,-1
 149 73 l 1,31,-1
 128 73 l 1,32,-1
 586 692 l 2,33,34
 593 703 593 703 600.5 707 c 128,-1,35
 608 711 608 711 619 711 c 0,36,37
 627 711 627 711 632.5 707.5 c 128,-1,38
 638 704 638 704 641 697.5 c 128,-1,39
 644 691 644 691 644 680 c 2,40,-1
 644 33 l 1,41,-1
 623 54 l 1,42,-1
 711 54 l 2,43,44
 731 54 731 54 739.5 44.5 c 128,-1,45
 748 35 748 35 741 16 c 2,46,-1
 689 -139 l 2,0,1
368 760 m 256,47,48
 313 760 313 760 264.5 786 c 128,-1,49
 216 812 216 812 190 868 c 0,50,51
 185 881 185 881 188 890 c 128,-1,52
 191 899 191 899 200 902 c 0,53,54
 210 905 210 905 217.5 902 c 128,-1,55
 225 899 225 899 230 887 c 0,56,57
 250 847 250 847 284 825.5 c 128,-1,58
 318 804 318 804 368 804 c 0,59,60
 419 804 419 804 452.5 825.5 c 128,-1,61
 486 847 486 847 505 887 c 0,62,63
 511 899 511 899 518.5 902 c 128,-1,64
 526 905 526 905 536 902 c 0,65,66
 545 899 545 899 548 890 c 128,-1,67
 551 881 551 881 545 868 c 0,68,69
 519 812 519 812 471 786 c 128,-1,70
 423 760 423 760 368 760 c 256,47,48
EndSplineSet
EndChar

StartChar: uni041A
Encoding: 1050 1050 550
Width: 626
GlyphClass: 2
Flags: W
AnchorPoint: "Anchor-5" 315 353 basechar 0
AnchorPoint: "Anchor-0" 321 705 basechar 0
LayerCount: 2
Fore
SplineSet
122 -6 m 0,0,1
 108 -6 108 -6 100 2.5 c 128,-1,2
 92 11 92 11 92 26 c 2,3,-1
 92 680 l 2,4,5
 92 695 92 695 100 703 c 128,-1,6
 108 711 108 711 122 711 c 0,7,8
 137 711 137 711 145 703 c 128,-1,9
 153 695 153 695 153 680 c 2,10,-1
 153 384 l 1,11,-1
 301 384 l 1,12,-1
 278 369 l 1,13,-1
 497 695 l 2,14,15
 504 705 504 705 513 708.5 c 128,-1,16
 522 712 522 712 531 710 c 128,-1,17
 540 708 540 708 546 701.5 c 128,-1,18
 552 695 552 695 553.5 686 c 128,-1,19
 555 677 555 677 548 666 c 2,20,-1
 340 360 l 1,21,-1
 319 382 l 1,22,23
 377 376 377 376 419.5 340.5 c 128,-1,24
 462 305 462 305 493 242 c 2,25,-1
 595 36 l 2,26,27
 601 25 601 25 598.5 15.5 c 128,-1,28
 596 6 596 6 588.5 1 c 128,-1,29
 581 -4 581 -4 571.5 -5 c 128,-1,30
 562 -6 562 -6 553 -1.5 c 128,-1,31
 544 3 544 3 539 14 c 2,32,-1
 445 208 l 2,33,34
 413 274 413 274 373.5 302 c 128,-1,35
 334 330 334 330 277 330 c 2,36,-1
 153 330 l 1,37,-1
 153 26 l 2,38,39
 153 11 153 11 145.5 2.5 c 128,-1,40
 138 -6 138 -6 122 -6 c 0,0,1
EndSplineSet
EndChar

StartChar: uni041B
Encoding: 1051 1051 552
Width: 736
GlyphClass: 2
Flags: W
LayerCount: 2
Fore
SplineSet
613 -6 m 0,0,1
 599 -6 599 -6 590.5 2.5 c 128,-1,2
 582 11 582 11 582 26 c 2,3,-1
 582 650 l 1,4,-1
 249 650 l 1,5,-1
 249 479 l 2,6,7
 249 372 249 372 237.5 293 c 128,-1,8
 226 214 226 214 203.5 157.5 c 128,-1,9
 181 101 181 101 147.5 63 c 128,-1,10
 114 25 114 25 69 -2 c 0,11,12
 56 -10 56 -10 44.5 -7.5 c 128,-1,13
 33 -5 33 -5 26 7 c 0,14,15
 20 20 20 20 23.5 30.5 c 128,-1,16
 27 41 27 41 40 49 c 0,17,18
 75 70 75 70 103 101.5 c 128,-1,19
 131 133 131 133 150.5 183 c 128,-1,20
 170 233 170 233 180.5 308.5 c 128,-1,21
 191 384 191 384 191 494 c 2,22,-1
 191 670 l 2,23,24
 191 687 191 687 200 696 c 128,-1,25
 209 705 209 705 226 705 c 2,26,-1
 609 705 l 2,27,28
 626 705 626 705 635 696 c 128,-1,29
 644 687 644 687 644 670 c 2,30,-1
 644 26 l 2,31,32
 644 11 644 11 636 2.5 c 128,-1,33
 628 -6 628 -6 613 -6 c 0,0,1
EndSplineSet
EndChar

StartChar: uni041F
Encoding: 1055 1055 556
Width: 751
GlyphClass: 2
Flags: W
LayerCount: 2
Fore
SplineSet
122 -6 m 0,0,1
 108 -6 108 -6 100 2.5 c 128,-1,2
 92 11 92 11 92 26 c 2,3,-1
 92 670 l 2,4,5
 92 687 92 687 101 696 c 128,-1,6
 110 705 110 705 126 705 c 2,7,-1
 624 705 l 2,8,9
 641 705 641 705 650 696 c 128,-1,10
 659 687 659 687 659 670 c 2,11,-1
 659 26 l 2,12,13
 659 11 659 11 651 2.5 c 128,-1,14
 643 -6 643 -6 628 -6 c 0,15,16
 614 -6 614 -6 605.5 2.5 c 128,-1,17
 597 11 597 11 597 26 c 2,18,-1
 597 650 l 1,19,-1
 153 650 l 1,20,-1
 153 26 l 2,21,22
 153 11 153 11 145.5 2.5 c 128,-1,23
 138 -6 138 -6 122 -6 c 0,0,1
EndSplineSet
EndChar

StartChar: uni0423
Encoding: 1059 1059 560
Width: 636
GlyphClass: 2
Flags: W
AnchorPoint: "Anchor-0" 319 705 basechar 0
LayerCount: 2
Fore
SplineSet
247 -6 m 0,0,1
 237 -6 237 -6 229 -0.5 c 128,-1,2
 221 5 221 5 219.5 15 c 128,-1,3
 218 25 218 25 225 37 c 2,4,-1
 323 226 l 1,5,-1
 323 197 l 1,6,-1
 28 667 l 2,7,8
 22 679 22 679 22.5 689 c 128,-1,9
 23 699 23 699 30.5 705 c 128,-1,10
 38 711 38 711 49 711 c 0,11,12
 61 711 61 711 68 706 c 128,-1,13
 75 701 75 701 81 690 c 2,14,-1
 353 256 l 1,15,-1
 338 256 l 1,16,-1
 562 690 l 2,17,18
 567 700 567 700 574 705.5 c 128,-1,19
 581 711 581 711 593 711 c 0,20,21
 603 711 603 711 611 705.5 c 128,-1,22
 619 700 619 700 620.5 690.5 c 128,-1,23
 622 681 622 681 615 668 c 2,24,-1
 279 15 l 2,25,26
 274 6 274 6 267 0 c 128,-1,27
 260 -6 260 -6 247 -6 c 0,0,1
EndSplineSet
EndChar

StartChar: uni0424
Encoding: 1060 1060 562
Width: 827
GlyphClass: 1
Flags: W
LayerCount: 2
Fore
SplineSet
414 -28 m 0,0,1
 399 -28 399 -28 391 -19.5 c 128,-1,2
 383 -11 383 -11 383 4 c 2,3,-1
 383 75 l 1,4,-1
 401 57 l 1,5,-1
 376 57 l 2,6,7
 279 57 279 57 209 94 c 128,-1,8
 139 131 139 131 101.5 198.5 c 128,-1,9
 64 266 64 266 64 358 c 0,10,11
 64 428 64 428 85 483.5 c 128,-1,12
 106 539 106 539 145.5 578 c 128,-1,13
 185 617 185 617 243.5 638 c 128,-1,14
 302 659 302 659 376 659 c 2,15,-1
 401 659 l 1,16,-1
 383 640 l 1,17,-1
 383 706 l 2,18,19
 383 722 383 722 391 730 c 128,-1,20
 399 738 399 738 414 738 c 256,21,22
 429 738 429 738 437 730 c 128,-1,23
 445 722 445 722 445 706 c 2,24,-1
 445 640 l 1,25,-1
 426 659 l 1,26,-1
 451 659 l 2,27,28
 550 659 550 659 620 622.5 c 128,-1,29
 690 586 690 586 726.5 518.5 c 128,-1,30
 763 451 763 451 763 358 c 0,31,32
 763 289 763 289 741.5 233.5 c 128,-1,33
 720 178 720 178 680 138.5 c 128,-1,34
 640 99 640 99 582 78 c 128,-1,35
 524 57 524 57 451 57 c 2,36,-1
 426 57 l 1,37,-1
 445 75 l 1,38,-1
 445 4 l 2,39,40
 445 -11 445 -11 437.5 -19.5 c 128,-1,41
 430 -28 430 -28 414 -28 c 0,0,1
383 93 m 1,42,-1
 383 622 l 1,43,-1
 400 606 l 1,44,-1
 366 606 l 2,45,46
 311 606 311 606 267 589.5 c 128,-1,47
 223 573 223 573 192 541 c 128,-1,48
 161 509 161 509 145 463 c 128,-1,49
 129 417 129 417 129 358 c 0,50,51
 129 282 129 282 158.5 226 c 128,-1,52
 188 170 188 170 241 139.5 c 128,-1,53
 294 109 294 109 366 109 c 2,54,-1
 400 109 l 1,55,-1
 383 93 l 1,42,-1
444 93 m 1,56,-1
 427 109 l 1,57,-1
 462 109 l 2,58,59
 515 109 515 109 559 126.5 c 128,-1,60
 603 144 603 144 634 176.5 c 128,-1,61
 665 209 665 209 681.5 254.5 c 128,-1,62
 698 300 698 300 698 358 c 0,63,64
 698 437 698 437 669.5 492.5 c 128,-1,65
 641 548 641 548 588 577 c 128,-1,66
 535 606 535 606 462 606 c 2,67,-1
 427 606 l 1,68,-1
 444 622 l 1,69,-1
 444 93 l 1,56,-1
EndSplineSet
EndChar

StartChar: uni0427
Encoding: 1063 1063 564
Width: 666
GlyphClass: 2
Flags: W
AnchorPoint: "Anchor-5" 304 295 basechar 0
AnchorPoint: "Anchor-0" 312 705 basechar 0
LayerCount: 2
Fore
SplineSet
544 -6 m 256,0,1
 529 -6 529 -6 521 2.5 c 128,-1,2
 513 11 513 11 513 26 c 2,3,-1
 513 308 l 1,4,5
 480 289 480 289 430.5 279 c 128,-1,6
 381 269 381 269 331 269 c 0,7,8
 243 269 243 269 182.5 301.5 c 128,-1,9
 122 334 122 334 91 397.5 c 128,-1,10
 60 461 60 461 60 555 c 2,11,-1
 60 679 l 2,12,13
 60 695 60 695 68 703 c 128,-1,14
 76 711 76 711 91 711 c 256,15,16
 106 711 106 711 114 703 c 128,-1,17
 122 695 122 695 122 679 c 2,18,-1
 122 561 l 2,19,20
 122 440 122 440 175.5 383 c 128,-1,21
 229 326 229 326 334 326 c 0,22,23
 383 326 383 326 428 336 c 128,-1,24
 473 346 473 346 513 369 c 1,25,-1
 513 679 l 2,26,27
 513 695 513 695 521 703 c 128,-1,28
 529 711 529 711 544 711 c 0,29,30
 558 711 558 711 566.5 703 c 128,-1,31
 575 695 575 695 575 679 c 2,32,-1
 575 26 l 2,33,34
 575 11 575 11 567 2.5 c 128,-1,35
 559 -6 559 -6 544 -6 c 256,0,1
EndSplineSet
EndChar

StartChar: uni0426
Encoding: 1062 1062 565
Width: 782
GlyphClass: 1
Flags: W
LayerCount: 2
Fore
SplineSet
731 -161 m 0,0,1
 717 -161 717 -161 709.5 -152.5 c 128,-1,2
 702 -144 702 -144 702 -130 c 2,3,-1
 702 0 l 1,4,-1
 126 0 l 2,5,6
 110 0 110 0 101 9 c 128,-1,7
 92 18 92 18 92 35 c 2,8,-1
 92 679 l 2,9,10
 92 695 92 695 100 703 c 128,-1,11
 108 711 108 711 122 711 c 0,12,13
 137 711 137 711 145 703 c 128,-1,14
 153 695 153 695 153 679 c 2,15,-1
 153 55 l 1,16,-1
 597 55 l 1,17,-1
 597 679 l 2,18,19
 597 695 597 695 605.5 703 c 128,-1,20
 614 711 614 711 628 711 c 0,21,22
 643 711 643 711 651 703 c 128,-1,23
 659 695 659 695 659 679 c 2,24,-1
 659 27 l 1,25,-1
 631 55 l 1,26,-1
 726 55 l 2,27,28
 742 55 742 55 750.5 46 c 128,-1,29
 759 37 759 37 759 22 c 2,30,-1
 759 -130 l 2,31,32
 759 -161 759 -161 731 -161 c 0,0,1
EndSplineSet
EndChar

StartChar: uni0428
Encoding: 1064 1064 566
Width: 1045
GlyphClass: 1
Flags: W
LayerCount: 2
Fore
SplineSet
126 0 m 2,0,1
 110 0 110 0 101 9 c 128,-1,2
 92 18 92 18 92 35 c 2,3,-1
 92 679 l 2,4,5
 92 695 92 695 100 703 c 128,-1,6
 108 711 108 711 122 711 c 0,7,8
 137 711 137 711 145 703 c 128,-1,9
 153 695 153 695 153 679 c 2,10,-1
 153 55 l 1,11,-1
 492 55 l 1,12,-1
 492 679 l 2,13,14
 492 695 492 695 500 703 c 128,-1,15
 508 711 508 711 523 711 c 0,16,17
 537 711 537 711 545 703 c 128,-1,18
 553 695 553 695 553 679 c 2,19,-1
 553 55 l 1,20,-1
 892 55 l 1,21,-1
 892 679 l 2,22,23
 892 695 892 695 900 703 c 128,-1,24
 908 711 908 711 923 711 c 256,25,26
 938 711 938 711 946 703 c 128,-1,27
 954 695 954 695 954 679 c 2,28,-1
 954 35 l 2,29,30
 954 18 954 18 945 9 c 128,-1,31
 936 0 936 0 919 0 c 2,32,-1
 126 0 l 2,0,1
EndSplineSet
EndChar

StartChar: uni0429
Encoding: 1065 1065 567
Width: 1076
GlyphClass: 1
Flags: W
LayerCount: 2
Fore
SplineSet
1025 -160 m 256,0,1
 1011 -160 1011 -160 1003.5 -152 c 128,-1,2
 996 -144 996 -144 996 -130 c 2,3,-1
 996 0 l 1,4,-1
 126 0 l 2,5,6
 110 0 110 0 101 9 c 128,-1,7
 92 18 92 18 92 35 c 2,8,-1
 92 679 l 2,9,10
 92 695 92 695 100 703 c 128,-1,11
 108 711 108 711 122 711 c 0,12,13
 137 711 137 711 145 703 c 128,-1,14
 153 695 153 695 153 679 c 2,15,-1
 153 55 l 1,16,-1
 492 55 l 1,17,-1
 492 679 l 2,18,19
 492 695 492 695 500 703 c 128,-1,20
 508 711 508 711 523 711 c 0,21,22
 537 711 537 711 545 703 c 128,-1,23
 553 695 553 695 553 679 c 2,24,-1
 553 55 l 1,25,-1
 892 55 l 1,26,-1
 892 679 l 2,27,28
 892 695 892 695 900 703 c 128,-1,29
 908 711 908 711 923 711 c 256,30,31
 938 711 938 711 946 703 c 128,-1,32
 954 695 954 695 954 679 c 2,33,-1
 954 27 l 1,34,-1
 926 55 l 1,35,-1
 1020 55 l 2,36,37
 1036 55 1036 55 1044.5 46 c 128,-1,38
 1053 37 1053 37 1053 22 c 2,39,-1
 1053 -130 l 2,40,41
 1053 -144 1053 -144 1046 -152 c 128,-1,42
 1039 -160 1039 -160 1025 -160 c 256,0,1
EndSplineSet
EndChar

StartChar: uni040F
Encoding: 1039 1039 568
Width: 751
GlyphClass: 1
Flags: W
LayerCount: 2
Fore
SplineSet
376 -160 m 0,0,1
 361 -160 361 -160 354 -152 c 128,-1,2
 347 -144 347 -144 347 -130 c 2,3,-1
 347 0 l 1,4,-1
 126 0 l 2,5,6
 110 0 110 0 101 9 c 128,-1,7
 92 18 92 18 92 35 c 2,8,-1
 92 679 l 2,9,10
 92 695 92 695 100 703 c 128,-1,11
 108 711 108 711 122 711 c 0,12,13
 137 711 137 711 145 703 c 128,-1,14
 153 695 153 695 153 679 c 2,15,-1
 153 55 l 1,16,-1
 597 55 l 1,17,-1
 597 679 l 2,18,19
 597 695 597 695 605.5 703 c 128,-1,20
 614 711 614 711 628 711 c 0,21,22
 643 711 643 711 651 703 c 128,-1,23
 659 695 659 695 659 679 c 2,24,-1
 659 35 l 2,25,26
 659 18 659 18 650 9 c 128,-1,27
 641 0 641 0 624 0 c 2,28,-1
 404 0 l 1,29,-1
 404 -130 l 2,30,31
 404 -144 404 -144 396.5 -152 c 128,-1,32
 389 -160 389 -160 376 -160 c 0,0,1
EndSplineSet
EndChar

StartChar: uni042C
Encoding: 1068 1068 569
Width: 654
GlyphClass: 1
Flags: W
LayerCount: 2
Fore
SplineSet
126 0 m 2,0,1
 110 0 110 0 101 9 c 128,-1,2
 92 18 92 18 92 35 c 2,3,-1
 92 679 l 2,4,5
 92 695 92 695 100 703 c 128,-1,6
 108 711 108 711 122 711 c 0,7,8
 137 711 137 711 145 703 c 128,-1,9
 153 695 153 695 153 679 c 2,10,-1
 153 386 l 1,11,-1
 374 386 l 2,12,13
 447 386 447 386 498.5 365 c 128,-1,14
 550 344 550 344 577 301.5 c 128,-1,15
 604 259 604 259 604 194 c 0,16,17
 604 98 604 98 544 49 c 128,-1,18
 484 0 484 0 374 0 c 2,19,-1
 126 0 l 2,0,1
153 53 m 1,20,-1
 369 53 l 2,21,22
 456 53 456 53 499 88 c 128,-1,23
 542 123 542 123 542 194 c 256,24,25
 542 265 542 265 499 299 c 128,-1,26
 456 333 456 333 369 333 c 2,27,-1
 153 333 l 1,28,-1
 153 53 l 1,20,-1
EndSplineSet
EndChar

StartChar: uni042B
Encoding: 1067 1067 570
Width: 833
GlyphClass: 2
Flags: W
AnchorPoint: "Anchor-0" 417 705 basechar 0
LayerCount: 2
Fore
SplineSet
126 0 m 2,0,1
 110 0 110 0 101 9 c 128,-1,2
 92 18 92 18 92 35 c 2,3,-1
 92 679 l 2,4,5
 92 695 92 695 100 703 c 128,-1,6
 108 711 108 711 122 711 c 0,7,8
 137 711 137 711 145 703 c 128,-1,9
 153 695 153 695 153 679 c 2,10,-1
 153 386 l 1,11,-1
 344 386 l 2,12,13
 417 386 417 386 468.5 365 c 128,-1,14
 520 344 520 344 547 301.5 c 128,-1,15
 574 259 574 259 574 194 c 0,16,17
 574 98 574 98 514 49 c 128,-1,18
 454 0 454 0 344 0 c 2,19,-1
 126 0 l 2,0,1
153 53 m 1,20,-1
 339 53 l 2,21,22
 426 53 426 53 469 88 c 128,-1,23
 512 123 512 123 512 194 c 256,24,25
 512 265 512 265 469 299 c 128,-1,26
 426 333 426 333 339 333 c 2,27,-1
 153 333 l 1,28,-1
 153 53 l 1,20,-1
711 -6 m 256,29,30
 696 -6 696 -6 688 2.5 c 128,-1,31
 680 11 680 11 680 26 c 2,32,-1
 680 679 l 2,33,34
 680 695 680 695 688 703 c 128,-1,35
 696 711 696 711 711 711 c 0,36,37
 725 711 725 711 733 703 c 128,-1,38
 741 695 741 695 741 679 c 2,39,-1
 741 26 l 2,40,41
 741 11 741 11 733.5 2.5 c 128,-1,42
 726 -6 726 -6 711 -6 c 256,29,30
EndSplineSet
EndChar

StartChar: uni042A
Encoding: 1066 1066 571
Width: 783
GlyphClass: 1
Flags: W
LayerCount: 2
Fore
SplineSet
255 0 m 2,0,1
 238 0 238 0 229 9 c 128,-1,2
 220 18 220 18 220 35 c 2,3,-1
 220 650 l 1,4,-1
 27 650 l 2,5,6
 13 650 13 650 5 658 c 128,-1,7
 -3 666 -3 666 -3 678 c 0,8,9
 -3 691 -3 691 5 698 c 128,-1,10
 13 705 13 705 27 705 c 2,11,-1
 247 705 l 2,12,13
 264 705 264 705 273 696 c 128,-1,14
 282 687 282 687 282 670 c 2,15,-1
 282 386 l 1,16,-1
 502 386 l 2,17,18
 576 386 576 386 627.5 365 c 128,-1,19
 679 344 679 344 706 301.5 c 128,-1,20
 733 259 733 259 733 194 c 0,21,22
 733 98 733 98 673 49 c 128,-1,23
 613 0 613 0 502 0 c 2,24,-1
 255 0 l 2,0,1
282 53 m 1,25,-1
 498 53 l 2,26,27
 584 53 584 53 627.5 88 c 128,-1,28
 671 123 671 123 671 194 c 256,29,30
 671 265 671 265 627.5 299 c 128,-1,31
 584 333 584 333 498 333 c 2,32,-1
 282 333 l 1,33,-1
 282 53 l 1,25,-1
EndSplineSet
EndChar

StartChar: uni0409
Encoding: 1033 1033 572
Width: 1128
GlyphClass: 1
Flags: W
LayerCount: 2
Fore
SplineSet
600 0 m 2,0,1
 583 0 583 0 574 9 c 128,-1,2
 565 18 565 18 565 35 c 2,3,-1
 565 650 l 1,4,-1
 249 650 l 1,5,-1
 249 479 l 2,6,7
 249 373 249 373 237.5 293.5 c 128,-1,8
 226 214 226 214 203.5 157.5 c 128,-1,9
 181 101 181 101 147.5 62.5 c 128,-1,10
 114 24 114 24 69 -1 c 0,11,12
 60 -7 60 -7 52 -7.5 c 128,-1,13
 44 -8 44 -8 37.5 -4.5 c 128,-1,14
 31 -1 31 -1 26 7 c 0,15,16
 20 20 20 20 23.5 30.5 c 128,-1,17
 27 41 27 41 40 49 c 0,18,19
 75 70 75 70 103 101.5 c 128,-1,20
 131 133 131 133 150.5 183 c 128,-1,21
 170 233 170 233 180.5 308.5 c 128,-1,22
 191 384 191 384 191 494 c 2,23,-1
 191 670 l 2,24,25
 191 687 191 687 200 696 c 128,-1,26
 209 705 209 705 226 705 c 2,27,-1
 592 705 l 2,28,29
 608 705 608 705 617 696 c 128,-1,30
 626 687 626 687 626 670 c 2,31,-1
 626 386 l 1,32,-1
 847 386 l 2,33,34
 920 386 920 386 972 365 c 128,-1,35
 1024 344 1024 344 1050.5 301.5 c 128,-1,36
 1077 259 1077 259 1077 194 c 0,37,38
 1077 98 1077 98 1017 49 c 128,-1,39
 957 0 957 0 847 0 c 2,40,-1
 600 0 l 2,0,1
626 53 m 1,41,-1
 842 53 l 2,42,43
 929 53 929 53 972 88 c 128,-1,44
 1015 123 1015 123 1015 194 c 256,45,46
 1015 265 1015 265 972 299 c 128,-1,47
 929 333 929 333 842 333 c 2,48,-1
 626 333 l 1,49,-1
 626 53 l 1,41,-1
EndSplineSet
EndChar

StartChar: uni040A
Encoding: 1034 1034 573
Width: 1166
GlyphClass: 1
Flags: W
LayerCount: 2
Fore
SplineSet
122 -6 m 0,0,1
 108 -6 108 -6 100 2.5 c 128,-1,2
 92 11 92 11 92 26 c 2,3,-1
 92 679 l 2,4,5
 92 695 92 695 100 703 c 128,-1,6
 108 711 108 711 122 711 c 0,7,8
 137 711 137 711 145 703 c 128,-1,9
 153 695 153 695 153 679 c 2,10,-1
 153 385 l 1,11,-1
 603 385 l 1,12,-1
 603 679 l 2,13,14
 603 695 603 695 611 703 c 128,-1,15
 619 711 619 711 634 711 c 0,16,17
 648 711 648 711 656 703 c 128,-1,18
 664 695 664 695 664 679 c 2,19,-1
 664 386 l 1,20,-1
 885 386 l 2,21,22
 958 386 958 386 1010 365 c 128,-1,23
 1062 344 1062 344 1088.5 301.5 c 128,-1,24
 1115 259 1115 259 1115 194 c 0,25,26
 1115 98 1115 98 1055 49 c 128,-1,27
 995 0 995 0 885 0 c 2,28,-1
 638 0 l 2,29,30
 621 0 621 0 612 9 c 128,-1,31
 603 18 603 18 603 35 c 2,32,-1
 603 330 l 1,33,-1
 153 330 l 1,34,-1
 153 26 l 2,35,36
 153 11 153 11 145.5 2.5 c 128,-1,37
 138 -6 138 -6 122 -6 c 0,0,1
664 53 m 1,38,-1
 880 53 l 2,39,40
 967 53 967 53 1010 88 c 128,-1,41
 1053 123 1053 123 1053 194 c 256,42,43
 1053 265 1053 265 1010 299 c 128,-1,44
 967 333 967 333 880 333 c 2,45,-1
 664 333 l 1,46,-1
 664 53 l 1,38,-1
EndSplineSet
EndChar

StartChar: uni0404
Encoding: 1028 1028 575
Width: 670
GlyphClass: 2
Flags: W
AnchorPoint: "Anchor-2" 383 0 basechar 0
AnchorPoint: "Anchor-0" 384 705 basechar 0
LayerCount: 2
Fore
SplineSet
386 -8 m 0,0,1
 285 -8 285 -8 213 35.5 c 128,-1,2
 141 79 141 79 102.5 160 c 128,-1,3
 64 241 64 241 64 353 c 0,4,5
 64 437 64 437 85.5 503.5 c 128,-1,6
 107 570 107 570 148.5 616.5 c 128,-1,7
 190 663 190 663 250.5 688 c 128,-1,8
 311 713 311 713 386 713 c 0,9,10
 451 713 451 713 508 694 c 128,-1,11
 565 675 565 675 611 634 c 0,12,13
 621 626 621 626 623.5 616.5 c 128,-1,14
 626 607 626 607 623.5 598 c 128,-1,15
 621 589 621 589 614 584 c 128,-1,16
 607 579 607 579 597.5 579.5 c 128,-1,17
 588 580 588 580 577 588 c 0,18,19
 534 624 534 624 489 640 c 128,-1,20
 444 656 444 656 387 656 c 0,21,22
 305 656 305 656 248.5 621.5 c 128,-1,23
 192 587 192 587 162 522 c 128,-1,24
 132 457 132 457 130 367 c 1,25,-1
 107 385 l 1,26,-1
 476 385 l 2,27,28
 490 385 490 385 498 378 c 128,-1,29
 506 371 506 371 506 358 c 256,30,31
 506 345 506 345 498 338 c 128,-1,32
 490 331 490 331 476 331 c 2,33,-1
 105 331 l 1,34,-1
 129 345 l 1,35,36
 131 251 131 251 161 185 c 128,-1,37
 191 119 191 119 248 84 c 128,-1,38
 305 49 305 49 387 49 c 0,39,40
 444 49 444 49 489.5 65.5 c 128,-1,41
 535 82 535 82 576 116 c 0,42,43
 588 126 588 126 598 126 c 128,-1,44
 608 126 608 126 614 120.5 c 128,-1,45
 620 115 620 115 622 106 c 128,-1,46
 624 97 624 97 621 87 c 128,-1,47
 618 77 618 77 608 70 c 0,48,49
 564 30 564 30 507 11 c 128,-1,50
 450 -8 450 -8 386 -8 c 0,0,1
EndSplineSet
EndChar

StartChar: uni042D
Encoding: 1069 1069 576
Width: 670
GlyphClass: 2
Flags: W
AnchorPoint: "Anchor-2" 295 0 basechar 0
AnchorPoint: "Anchor-0" 295 705 basechar 0
LayerCount: 2
Fore
SplineSet
283 -8 m 0,0,1
 219 -8 219 -8 162 11 c 128,-1,2
 105 30 105 30 60 70 c 0,3,4
 50 79 50 79 47 88.5 c 128,-1,5
 44 98 44 98 46.5 107 c 128,-1,6
 49 116 49 116 55.5 121.5 c 128,-1,7
 62 127 62 127 71.5 126.5 c 128,-1,8
 81 126 81 126 92 118 c 0,9,10
 134 81 134 81 180.5 65 c 128,-1,11
 227 49 227 49 283 49 c 0,12,13
 365 49 365 49 421.5 83.5 c 128,-1,14
 478 118 478 118 508.5 183.5 c 128,-1,15
 539 249 539 249 541 340 c 1,16,-1
 564 331 l 1,17,-1
 194 331 l 2,18,19
 180 331 180 331 172 338 c 128,-1,20
 164 345 164 345 164 357 c 0,21,22
 164 371 164 371 172 378 c 128,-1,23
 180 385 180 385 194 385 c 2,24,-1
 564 385 l 1,25,-1
 540 363 l 1,26,27
 538 455 538 455 509.5 520.5 c 128,-1,28
 481 586 481 586 426 621 c 128,-1,29
 371 656 371 656 289 656 c 0,30,31
 233 656 233 656 185 638 c 128,-1,32
 137 620 137 620 95 589 c 0,33,34
 83 579 83 579 73 579.5 c 128,-1,35
 63 580 63 580 56.5 585 c 128,-1,36
 50 590 50 590 47.5 599 c 128,-1,37
 45 608 45 608 48.5 617 c 128,-1,38
 52 626 52 626 61 634 c 0,39,40
 111 674 111 674 169.5 693.5 c 128,-1,41
 228 713 228 713 290 713 c 0,42,43
 391 713 391 713 461.5 669.5 c 128,-1,44
 532 626 532 626 569 545 c 128,-1,45
 606 464 606 464 606 352 c 0,46,47
 606 268 606 268 584.5 201.5 c 128,-1,48
 563 135 563 135 521.5 88.5 c 128,-1,49
 480 42 480 42 420 17 c 128,-1,50
 360 -8 360 -8 283 -8 c 0,0,1
EndSplineSet
EndChar

StartChar: uni040B
Encoding: 1035 1035 580
Width: 841
GlyphClass: 1
Flags: W
LayerCount: 2
Fore
SplineSet
297 -6 m 0,0,1
 282 -6 282 -6 274 2.5 c 128,-1,2
 266 11 266 11 266 26 c 2,3,-1
 266 650 l 1,4,-1
 27 650 l 2,5,6
 13 650 13 650 5 658 c 128,-1,7
 -3 666 -3 666 -3 678 c 0,8,9
 -3 691 -3 691 5 698 c 128,-1,10
 13 705 13 705 27 705 c 2,11,-1
 568 705 l 2,12,13
 582 705 582 705 589.5 698 c 128,-1,14
 597 691 597 691 597 678 c 256,15,16
 597 665 597 665 589.5 657.5 c 128,-1,17
 582 650 582 650 568 650 c 2,18,-1
 328 650 l 1,19,-1
 328 393 l 1,20,21
 361 412 361 412 410.5 422 c 128,-1,22
 460 432 460 432 509 432 c 0,23,24
 598 432 598 432 658.5 400 c 128,-1,25
 719 368 719 368 750 304.5 c 128,-1,26
 781 241 781 241 781 146 c 2,27,-1
 781 26 l 2,28,29
 781 11 781 11 773 2.5 c 128,-1,30
 765 -6 765 -6 750 -6 c 256,31,32
 735 -6 735 -6 727 2.5 c 128,-1,33
 719 11 719 11 719 26 c 2,34,-1
 719 140 l 2,35,36
 719 262 719 262 665 318.5 c 128,-1,37
 611 375 611 375 506 375 c 0,38,39
 458 375 458 375 412.5 365.5 c 128,-1,40
 367 356 367 356 328 332 c 1,41,-1
 328 26 l 2,42,43
 328 11 328 11 320.5 2.5 c 128,-1,44
 313 -6 313 -6 297 -6 c 0,0,1
EndSplineSet
EndChar

StartChar: uni042E
Encoding: 1070 1070 581
Width: 998
GlyphClass: 1
Flags: W
AnchorPoint: "Anchor-0" 506 676 basechar 0
LayerCount: 2
Fore
SplineSet
627 -8 m 0,0,1
 536 -8 536 -8 468.5 33 c 128,-1,2
 401 74 401 74 363 150 c 128,-1,3
 325 226 325 226 320 330 c 1,4,-1
 153 330 l 1,5,-1
 153 26 l 2,6,7
 153 11 153 11 145.5 2.5 c 128,-1,8
 138 -6 138 -6 122 -6 c 0,9,10
 108 -6 108 -6 100 2.5 c 128,-1,11
 92 11 92 11 92 26 c 2,12,-1
 92 679 l 2,13,14
 92 695 92 695 100 703 c 128,-1,15
 108 711 108 711 122 711 c 0,16,17
 137 711 137 711 145 703 c 128,-1,18
 153 695 153 695 153 679 c 2,19,-1
 153 385 l 1,20,-1
 320 385 l 1,21,22
 327 487 327 487 365 560.5 c 128,-1,23
 403 634 403 634 470 673.5 c 128,-1,24
 537 713 537 713 627 713 c 0,25,26
 722 713 722 713 791 669.5 c 128,-1,27
 860 626 860 626 897 545.5 c 128,-1,28
 934 465 934 465 934 353 c 0,29,30
 934 269 934 269 912.5 202.5 c 128,-1,31
 891 136 891 136 851 89 c 128,-1,32
 811 42 811 42 754.5 17 c 128,-1,33
 698 -8 698 -8 627 -8 c 0,0,1
627 48 m 0,34,35
 704 48 704 48 758 84 c 128,-1,36
 812 120 812 120 840.5 188 c 128,-1,37
 869 256 869 256 869 353 c 0,38,39
 869 498 869 498 806 577.5 c 128,-1,40
 743 657 743 657 627 657 c 0,41,42
 550 657 550 657 495.5 621 c 128,-1,43
 441 585 441 585 412.5 517 c 128,-1,44
 384 449 384 449 384 353 c 0,45,46
 384 209 384 209 447.5 128.5 c 128,-1,47
 511 48 511 48 627 48 c 0,34,35
EndSplineSet
EndChar

StartChar: uni042F
Encoding: 1071 1071 582
Width: 662
GlyphClass: 1
Flags: W
AnchorPoint: "Anchor-0" 337 694 basechar 0
LayerCount: 2
Fore
SplineSet
540 -6 m 0,0,1
 525 -6 525 -6 517 2.5 c 128,-1,2
 509 11 509 11 509 26 c 2,3,-1
 509 305 l 1,4,-1
 376 305 l 2,5,6
 340 305 340 305 314.5 298.5 c 128,-1,7
 289 292 289 292 269.5 275 c 128,-1,8
 250 258 250 258 232 226 c 2,9,-1
 118 14 l 2,10,11
 112 2 112 2 102 -2.5 c 128,-1,12
 92 -7 92 -7 83 -6 c 128,-1,13
 74 -5 74 -5 67 1.5 c 128,-1,14
 60 8 60 8 59 18 c 128,-1,15
 58 28 58 28 65 42 c 2,16,-1
 170 236 l 2,17,18
 194 280 194 280 222.5 300.5 c 128,-1,19
 251 321 251 321 289 321 c 2,20,-1
 312 321 l 1,21,-1
 303 308 l 1,22,23
 194 308 194 308 132.5 359.5 c 128,-1,24
 71 411 71 411 71 505 c 0,25,26
 71 569 71 569 98 613.5 c 128,-1,27
 125 658 125 658 177 681.5 c 128,-1,28
 229 705 229 705 303 705 c 2,29,-1
 536 705 l 2,30,31
 552 705 552 705 561 696 c 128,-1,32
 570 687 570 687 570 670 c 2,33,-1
 570 26 l 2,34,35
 570 11 570 11 562 2.5 c 128,-1,36
 554 -6 554 -6 540 -6 c 0,0,1
312 357 m 2,37,-1
 509 357 l 1,38,-1
 509 652 l 1,39,-1
 312 652 l 2,40,41
 223 652 223 652 178.5 614.5 c 128,-1,42
 134 577 134 577 134 505 c 0,43,44
 134 432 134 432 178.5 394.5 c 128,-1,45
 223 357 223 357 312 357 c 2,37,-1
EndSplineSet
EndChar

StartChar: uni0402
Encoding: 1026 1026 583
Width: 829
GlyphClass: 1
Flags: W
LayerCount: 2
Fore
SplineSet
573 -188 m 0,0,1
 548 -188 548 -188 522.5 -184 c 128,-1,2
 497 -180 497 -180 478 -174 c 0,3,4
 468 -170 468 -170 462.5 -163 c 128,-1,5
 457 -156 457 -156 457 -148 c 128,-1,6
 457 -140 457 -140 461 -133.5 c 128,-1,7
 465 -127 465 -127 472.5 -123.5 c 128,-1,8
 480 -120 480 -120 492 -124 c 0,9,10
 510 -130 510 -130 529 -132.5 c 128,-1,11
 548 -135 548 -135 569 -135 c 0,12,13
 636 -135 636 -135 672 -90 c 128,-1,14
 708 -45 708 -45 708 45 c 2,15,-1
 708 140 l 2,16,17
 708 260 708 260 655.5 317.5 c 128,-1,18
 603 375 603 375 495 375 c 0,19,20
 444 375 444 375 402.5 364.5 c 128,-1,21
 361 354 361 354 328 332 c 1,22,-1
 328 26 l 2,23,24
 328 11 328 11 320.5 2.5 c 128,-1,25
 313 -6 313 -6 297 -6 c 0,26,27
 282 -6 282 -6 274 2.5 c 128,-1,28
 266 11 266 11 266 26 c 2,29,-1
 266 650 l 1,30,-1
 27 650 l 2,31,32
 13 650 13 650 5 658 c 128,-1,33
 -3 666 -3 666 -3 678 c 0,34,35
 -3 691 -3 691 5 698 c 128,-1,36
 13 705 13 705 27 705 c 2,37,-1
 568 705 l 2,38,39
 582 705 582 705 589.5 698 c 128,-1,40
 597 691 597 691 597 678 c 256,41,42
 597 665 597 665 589.5 657.5 c 128,-1,43
 582 650 582 650 568 650 c 2,44,-1
 328 650 l 1,45,-1
 328 393 l 1,46,47
 357 411 357 411 403 421.5 c 128,-1,48
 449 432 449 432 499 432 c 0,49,50
 566 432 566 432 617 414 c 128,-1,51
 668 396 668 396 701.5 360 c 128,-1,52
 735 324 735 324 752 270.5 c 128,-1,53
 769 217 769 217 769 146 c 2,54,-1
 769 47 l 2,55,56
 769 -29 769 -29 746 -81.5 c 128,-1,57
 723 -134 723 -134 679 -161 c 128,-1,58
 635 -188 635 -188 573 -188 c 0,0,1
EndSplineSet
EndChar

StartChar: uni0462
Encoding: 1122 1122 584
Width: 715
GlyphClass: 1
Flags: W
LayerCount: 2
Fore
SplineSet
188 0 m 2,0,1
 172 0 172 0 163 9 c 128,-1,2
 154 18 154 18 154 35 c 2,3,-1
 154 542 l 1,4,-1
 2 542 l 2,5,6
 -11 542 -11 542 -18.5 549 c 128,-1,7
 -26 556 -26 556 -26 568 c 0,8,9
 -26 594 -26 594 2 594 c 2,10,-1
 168 594 l 1,11,-1
 154 566 l 1,12,-1
 154 679 l 2,13,14
 154 695 154 695 162 703 c 128,-1,15
 170 711 170 711 184 711 c 0,16,17
 199 711 199 711 206.5 703 c 128,-1,18
 214 695 214 695 214 679 c 2,19,-1
 214 566 l 1,20,-1
 200 594 l 1,21,-1
 432 594 l 2,22,23
 446 594 446 594 453 587.5 c 128,-1,24
 460 581 460 581 460 568 c 0,25,26
 460 542 460 542 432 542 c 2,27,-1
 214 542 l 1,28,-1
 214 386 l 1,29,-1
 434 386 l 2,30,31
 545 386 545 386 605 338.5 c 128,-1,32
 665 291 665 291 665 194 c 0,33,34
 665 98 665 98 605 49 c 128,-1,35
 545 0 545 0 434 0 c 2,36,-1
 188 0 l 2,0,1
214 53 m 1,37,-1
 430 53 l 2,38,39
 516 53 516 53 559.5 88 c 128,-1,40
 603 123 603 123 603 194 c 256,41,42
 603 265 603 265 559.5 299 c 128,-1,43
 516 333 516 333 430 333 c 2,44,-1
 214 333 l 1,45,-1
 214 53 l 1,37,-1
EndSplineSet
EndChar

StartChar: uni046A
Encoding: 1130 1130 585
Width: 931
GlyphClass: 1
Flags: W
LayerCount: 2
Fore
SplineSet
465 -6 m 0,0,1
 451 -6 451 -6 443 2.5 c 128,-1,2
 435 11 435 11 435 26 c 2,3,-1
 435 330 l 1,4,-1
 349 330 l 2,5,6
 291 330 291 330 251.5 302 c 128,-1,7
 212 274 212 274 181 208 c 2,8,-1
 87 14 l 2,9,10
 81 3 81 3 72.5 -1.5 c 128,-1,11
 64 -6 64 -6 54.5 -5 c 128,-1,12
 45 -4 45 -4 37.5 1 c 128,-1,13
 30 6 30 6 27.5 15.5 c 128,-1,14
 25 25 25 25 31 36 c 2,15,-1
 133 243 l 2,16,17
 153 284 153 284 181.5 316 c 128,-1,18
 210 348 210 348 252 366 c 128,-1,19
 294 384 294 384 355 384 c 2,20,-1
 420 384 l 1,21,-1
 414 366 l 1,22,-1
 163 657 l 2,23,24
 152 670 152 670 151.5 680.5 c 128,-1,25
 151 691 151 691 160 698 c 128,-1,26
 169 705 169 705 186 705 c 2,27,-1
 745 705 l 2,28,29
 763 705 763 705 771.5 698 c 128,-1,30
 780 691 780 691 779.5 680.5 c 128,-1,31
 779 670 779 670 768 657 c 2,32,-1
 516 366 l 1,33,-1
 510 384 l 1,34,-1
 576 384 l 2,35,36
 637 384 637 384 679 366 c 128,-1,37
 721 348 721 348 749.5 316 c 128,-1,38
 778 284 778 284 798 243 c 2,39,-1
 900 36 l 2,40,41
 906 25 906 25 903.5 15.5 c 128,-1,42
 901 6 901 6 893.5 1 c 128,-1,43
 886 -4 886 -4 876.5 -5 c 128,-1,44
 867 -6 867 -6 858 -1.5 c 128,-1,45
 849 3 849 3 844 14 c 2,46,-1
 750 208 l 2,47,48
 718 274 718 274 679 302 c 128,-1,49
 640 330 640 330 582 330 c 2,50,-1
 496 330 l 1,51,-1
 496 26 l 2,52,53
 496 11 496 11 488 2.5 c 128,-1,54
 480 -6 480 -6 465 -6 c 0,0,1
464 387 m 1,55,-1
 466 387 l 1,56,-1
 719 684 l 1,57,-1
 719 655 l 1,58,-1
 212 655 l 1,59,-1
 212 684 l 1,60,-1
 464 387 l 1,55,-1
EndSplineSet
EndChar

StartChar: uni0474
Encoding: 1140 1140 587
Width: 731
GlyphClass: 1
Flags: W
LayerCount: 2
Fore
SplineSet
339 -6 m 0,0,1
 325 -6 325 -6 315.5 1.5 c 128,-1,2
 306 9 306 9 299 23 c 2,3,-1
 18 672 l 2,4,5
 14 685 14 685 16 693.5 c 128,-1,6
 18 702 18 702 26 706.5 c 128,-1,7
 34 711 34 711 44 711 c 0,8,9
 58 711 58 711 65 705 c 128,-1,10
 72 699 72 699 78 687 c 2,11,-1
 354 45 l 1,12,-1
 326 45 l 1,13,-1
 524 528 l 2,14,15
 551 593 551 593 579.5 633 c 128,-1,16
 608 673 608 673 644.5 692 c 128,-1,17
 681 711 681 711 734 713 c 0,18,19
 747 713 747 713 754.5 708.5 c 128,-1,20
 762 704 762 704 764.5 696 c 128,-1,21
 767 688 767 688 765 680 c 128,-1,22
 763 672 763 672 756.5 666.5 c 128,-1,23
 750 661 750 661 740 660 c 0,24,25
 703 658 703 658 675.5 643 c 128,-1,26
 648 628 648 628 627 598 c 128,-1,27
 606 568 606 568 584 516 c 2,28,-1
 378 23 l 2,29,30
 373 9 373 9 363.5 1.5 c 128,-1,31
 354 -6 354 -6 339 -6 c 0,0,1
EndSplineSet
EndChar

StartChar: uni0496
Encoding: 1174 1174 588
Width: 951
GlyphClass: 1
Flags: W
LayerCount: 2
Fore
SplineSet
959 -160 m 256,0,1
 945 -160 945 -160 938 -152 c 128,-1,2
 931 -144 931 -144 931 -130 c 2,3,-1
 931 28 l 1,4,-1
 959 0 l 1,5,-1
 891 0 l 2,6,7
 882 0 882 0 872 5.5 c 128,-1,8
 862 11 862 11 857 22 c 2,9,-1
 767 208 l 2,10,11
 735 274 735 274 695.5 302 c 128,-1,12
 656 330 656 330 599 330 c 2,13,-1
 504 330 l 1,14,-1
 504 26 l 2,15,16
 504 11 504 11 496 2.5 c 128,-1,17
 488 -6 488 -6 474 -6 c 0,18,19
 459 -6 459 -6 451.5 2.5 c 128,-1,20
 444 11 444 11 444 26 c 2,21,-1
 444 330 l 1,22,-1
 349 330 l 2,23,24
 290 330 290 330 250 301.5 c 128,-1,25
 210 273 210 273 179 208 c 2,26,-1
 86 14 l 2,27,28
 80 3 80 3 71 -1.5 c 128,-1,29
 62 -6 62 -6 52.5 -5 c 128,-1,30
 43 -4 43 -4 35.5 1 c 128,-1,31
 28 6 28 6 25.5 15.5 c 128,-1,32
 23 25 23 25 29 36 c 2,33,-1
 131 242 l 2,34,35
 162 305 162 305 205.5 340.5 c 128,-1,36
 249 376 249 376 307 382 c 1,37,-1
 286 360 l 1,38,-1
 78 666 l 2,39,40
 71 677 71 677 72 686 c 128,-1,41
 73 695 73 695 79.5 701.5 c 128,-1,42
 86 708 86 708 95 710 c 128,-1,43
 104 712 104 712 113.5 708.5 c 128,-1,44
 123 705 123 705 129 695 c 2,45,-1
 348 369 l 1,46,-1
 326 384 l 1,47,-1
 444 384 l 1,48,-1
 444 680 l 2,49,50
 444 695 444 695 451.5 703 c 128,-1,51
 459 711 459 711 474 711 c 0,52,53
 488 711 488 711 496 703 c 128,-1,54
 504 695 504 695 504 680 c 2,55,-1
 504 384 l 1,56,-1
 623 384 l 1,57,-1
 600 369 l 1,58,-1
 819 695 l 2,59,60
 826 705 826 705 835 708.5 c 128,-1,61
 844 712 844 712 853 710 c 128,-1,62
 862 708 862 708 868 701.5 c 128,-1,63
 874 695 874 695 875.5 686 c 128,-1,64
 877 677 877 677 870 666 c 2,65,-1
 662 360 l 1,66,-1
 641 382 l 1,67,68
 680 378 680 378 711.5 361 c 128,-1,69
 743 344 743 344 769 314 c 128,-1,70
 795 284 795 284 816 242 c 2,71,-1
 920 29 l 1,72,-1
 889 54 l 1,73,-1
 955 54 l 2,74,75
 970 54 970 54 979 45.5 c 128,-1,76
 988 37 988 37 988 21 c 2,77,-1
 988 -130 l 2,78,79
 988 -144 988 -144 980.5 -152 c 128,-1,80
 973 -160 973 -160 959 -160 c 256,0,1
EndSplineSet
EndChar

StartChar: uni0498
Encoding: 1176 1176 589
Width: 643
GlyphClass: 2
Flags: W
AnchorPoint: "Anchor-2" 319 0 basechar 0
AnchorPoint: "Anchor-0" 317 705 basechar 0
LayerCount: 2
Fore
SplineSet
319 -160 m 256,0,1
 305 -160 305 -160 298 -151.5 c 128,-1,2
 291 -143 291 -143 291 -129 c 2,3,-1
 291 24 l 1,4,-1
 348 24 l 1,5,-1
 348 -129 l 2,6,7
 348 -143 348 -143 340.5 -151.5 c 128,-1,8
 333 -160 333 -160 319 -160 c 256,0,1
316 -8 m 0,9,10
 234 -8 234 -8 167.5 13.5 c 128,-1,11
 101 35 101 35 57 73 c 0,12,13
 48 81 48 81 46 89.5 c 128,-1,14
 44 98 44 98 46.5 106.5 c 128,-1,15
 49 115 49 115 55 120.5 c 128,-1,16
 61 126 61 126 70 126.5 c 128,-1,17
 79 127 79 127 89 119 c 0,18,19
 120 95 120 95 154 79.5 c 128,-1,20
 188 64 188 64 227.5 56 c 128,-1,21
 267 48 267 48 313 48 c 0,22,23
 382 48 382 48 426 64.5 c 128,-1,24
 470 81 470 81 491.5 113 c 128,-1,25
 513 145 513 145 513 193 c 0,26,27
 513 263 513 263 470 296.5 c 128,-1,28
 427 330 427 330 340 330 c 2,29,-1
 191 330 l 2,30,31
 177 330 177 330 169 337.5 c 128,-1,32
 161 345 161 345 161 357 c 0,33,34
 161 370 161 370 169 376.5 c 128,-1,35
 177 383 177 383 191 383 c 2,36,-1
 325 383 l 2,37,38
 409 383 409 383 453 417.5 c 128,-1,39
 497 452 497 452 497 517 c 0,40,41
 497 561 497 561 476.5 592.5 c 128,-1,42
 456 624 456 624 415 640.5 c 128,-1,43
 374 657 374 657 314 657 c 0,44,45
 257 657 257 657 204.5 641 c 128,-1,46
 152 625 152 625 107 590 c 0,47,48
 97 583 97 583 88 583 c 128,-1,49
 79 583 79 583 72.5 588.5 c 128,-1,50
 66 594 66 594 63.5 602.5 c 128,-1,51
 61 611 61 611 64 619.5 c 128,-1,52
 67 628 67 628 76 635 c 0,53,54
 124 675 124 675 187.5 694 c 128,-1,55
 251 713 251 713 317 713 c 0,56,57
 397 713 397 713 451 689.5 c 128,-1,58
 505 666 505 666 532.5 623 c 128,-1,59
 560 580 560 580 560 520 c 0,60,61
 560 454 560 454 520.5 410 c 128,-1,62
 481 366 481 366 414 352 c 1,63,-1
 414 366 l 1,64,65
 488 358 488 358 532 312.5 c 128,-1,66
 576 267 576 267 576 192 c 0,67,68
 576 130 576 130 548 84.5 c 128,-1,69
 520 39 520 39 462 15.5 c 128,-1,70
 404 -8 404 -8 316 -8 c 0,9,10
EndSplineSet
Substitution2: "'locl' Localized Forms in Cyrillic lookup 17 subtable" uni0498.loclCHU
Substitution2: "'locl' Localized Forms in Cyrillic lookup 16 subtable" uni0498.loclBSH
AlternateSubs2: "'aalt' Access All Alternates lookup 1 subtable" uni0498.loclBSH uni0498.loclCHU
EndChar

StartChar: uni049A
Encoding: 1178 1178 590
Width: 629
GlyphClass: 1
Flags: W
LayerCount: 2
Fore
SplineSet
637 -160 m 0,0,1
 622 -160 622 -160 615 -152 c 128,-1,2
 608 -144 608 -144 608 -130 c 2,3,-1
 608 19 l 1,4,-1
 626 0 l 1,5,-1
 569 0 l 2,6,7
 560 0 560 0 550.5 5 c 128,-1,8
 541 10 541 10 536 20 c 2,9,-1
 445 208 l 2,10,11
 413 274 413 274 373.5 302 c 128,-1,12
 334 330 334 330 277 330 c 2,13,-1
 153 330 l 1,14,-1
 153 26 l 2,15,16
 153 11 153 11 145.5 2.5 c 128,-1,17
 138 -6 138 -6 122 -6 c 0,18,19
 108 -6 108 -6 100 2.5 c 128,-1,20
 92 11 92 11 92 26 c 2,21,-1
 92 680 l 2,22,23
 92 695 92 695 100 703 c 128,-1,24
 108 711 108 711 122 711 c 0,25,26
 137 711 137 711 145 703 c 128,-1,27
 153 695 153 695 153 680 c 2,28,-1
 153 384 l 1,29,-1
 301 384 l 1,30,-1
 278 369 l 1,31,-1
 497 695 l 2,32,33
 504 705 504 705 513 708.5 c 128,-1,34
 522 712 522 712 531 710 c 128,-1,35
 540 708 540 708 546 701.5 c 128,-1,36
 552 695 552 695 553.5 686 c 128,-1,37
 555 677 555 677 548 666 c 2,38,-1
 340 360 l 1,39,-1
 319 382 l 1,40,41
 377 376 377 376 419.5 340.5 c 128,-1,42
 462 305 462 305 493 242 c 2,43,-1
 598 29 l 1,44,-1
 572 54 l 1,45,-1
 632 54 l 2,46,47
 648 54 648 54 656.5 45.5 c 128,-1,48
 665 37 665 37 665 21 c 2,49,-1
 665 -130 l 2,50,51
 665 -144 665 -144 657.5 -152 c 128,-1,52
 650 -160 650 -160 637 -160 c 0,0,1
EndSplineSet
EndChar

StartChar: uni049C
Encoding: 1180 1180 591
Width: 645
GlyphClass: 1
Flags: W
LayerCount: 2
Fore
SplineSet
122 -6 m 0,0,1
 108 -6 108 -6 100 2.5 c 128,-1,2
 92 11 92 11 92 26 c 2,3,-1
 92 680 l 2,4,5
 92 695 92 695 100 703 c 128,-1,6
 108 711 108 711 122 711 c 0,7,8
 137 711 137 711 145 703 c 128,-1,9
 153 695 153 695 153 680 c 2,10,-1
 153 384 l 1,11,-1
 230 384 l 1,12,-1
 230 533 l 2,13,14
 230 560 230 560 254 560 c 0,15,16
 265 560 265 560 271.5 553 c 128,-1,17
 278 546 278 546 278 533 c 2,18,-1
 278 384 l 1,19,-1
 319 384 l 1,20,-1
 299 371 l 1,21,-1
 517 695 l 2,22,23
 524 705 524 705 533 708.5 c 128,-1,24
 542 712 542 712 551.5 710 c 128,-1,25
 561 708 561 708 567 701.5 c 128,-1,26
 573 695 573 695 574 686 c 128,-1,27
 575 677 575 677 568 666 c 2,28,-1
 360 360 l 1,29,-1
 338 382 l 1,30,31
 377 378 377 378 409 361 c 128,-1,32
 441 344 441 344 467 314.5 c 128,-1,33
 493 285 493 285 513 242 c 2,34,-1
 615 36 l 2,35,36
 621 25 621 25 618.5 15.5 c 128,-1,37
 616 6 616 6 608.5 1 c 128,-1,38
 601 -4 601 -4 591.5 -5 c 128,-1,39
 582 -6 582 -6 573 -1.5 c 128,-1,40
 564 3 564 3 558 14 c 2,41,-1
 465 208 l 2,42,43
 433 274 433 274 393.5 302 c 128,-1,44
 354 330 354 330 297 330 c 2,45,-1
 269 330 l 1,46,-1
 278 339 l 1,47,-1
 278 182 l 2,48,49
 278 156 278 156 254 156 c 256,50,51
 230 156 230 156 230 182 c 2,52,-1
 230 330 l 1,53,-1
 153 330 l 1,54,-1
 153 26 l 2,55,56
 153 11 153 11 145.5 2.5 c 128,-1,57
 138 -6 138 -6 122 -6 c 0,0,1
EndSplineSet
EndChar

StartChar: uni049E
Encoding: 1182 1182 592
Width: 654
GlyphClass: 1
Flags: W
LayerCount: 2
Fore
SplineSet
158 -6 m 0,0,1
 143 -6 143 -6 135 2.5 c 128,-1,2
 127 11 127 11 127 26 c 2,3,-1
 127 544 l 1,4,-1
 8 544 l 2,5,6
 -6 544 -6 544 -12.5 550.5 c 128,-1,7
 -19 557 -19 557 -19 569 c 256,8,9
 -19 581 -19 581 -12.5 588 c 128,-1,10
 -6 595 -6 595 8 595 c 2,11,-1
 138 595 l 1,12,-1
 127 569 l 1,13,-1
 127 680 l 2,14,15
 127 695 127 695 135 703 c 128,-1,16
 143 711 143 711 158 711 c 256,17,18
 173 711 173 711 181 703 c 128,-1,19
 189 695 189 695 189 680 c 2,20,-1
 189 569 l 1,21,-1
 179 595 l 1,22,-1
 309 595 l 2,23,24
 322 595 322 595 329 588 c 128,-1,25
 336 581 336 581 336 569 c 256,26,27
 336 557 336 557 329 550.5 c 128,-1,28
 322 544 322 544 309 544 c 2,29,-1
 189 544 l 1,30,-1
 189 384 l 1,31,-1
 333 384 l 1,32,-1
 308 367 l 1,33,-1
 530 695 l 2,34,35
 537 705 537 705 546.5 708.5 c 128,-1,36
 556 712 556 712 565 710 c 128,-1,37
 574 708 574 708 580 701.5 c 128,-1,38
 586 695 586 695 587 686 c 128,-1,39
 588 677 588 677 581 666 c 2,40,-1
 370 358 l 1,41,-1
 346 382 l 1,42,43
 385 378 385 378 416.5 361 c 128,-1,44
 448 344 448 344 474 314.5 c 128,-1,45
 500 285 500 285 520 242 c 2,46,-1
 622 36 l 2,47,48
 628 25 628 25 625.5 15.5 c 128,-1,49
 623 6 623 6 615.5 1 c 128,-1,50
 608 -4 608 -4 598.5 -5 c 128,-1,51
 589 -6 589 -6 580 -1.5 c 128,-1,52
 571 3 571 3 566 14 c 2,53,-1
 472 208 l 2,54,55
 440 274 440 274 400.5 302 c 128,-1,56
 361 330 361 330 304 330 c 2,57,-1
 189 330 l 1,58,-1
 189 26 l 2,59,60
 189 11 189 11 181.5 2.5 c 128,-1,61
 174 -6 174 -6 158 -6 c 0,0,1
EndSplineSet
EndChar

StartChar: uni04A0
Encoding: 1184 1184 593
Width: 754
GlyphClass: 1
Flags: W
LayerCount: 2
Fore
SplineSet
251 -6 m 0,0,1
 236 -6 236 -6 228 2.5 c 128,-1,2
 220 11 220 11 220 26 c 2,3,-1
 220 651 l 1,4,-1
 27 651 l 2,5,6
 13 651 13 651 5 658.5 c 128,-1,7
 -3 666 -3 666 -3 678 c 0,8,9
 -3 691 -3 691 5 698 c 128,-1,10
 13 705 13 705 27 705 c 2,11,-1
 251 705 l 2,12,13
 266 705 266 705 274 697 c 128,-1,14
 282 689 282 689 282 673 c 2,15,-1
 282 384 l 1,16,-1
 430 384 l 1,17,-1
 406 369 l 1,18,-1
 625 695 l 2,19,20
 632 705 632 705 641.5 708.5 c 128,-1,21
 651 712 651 712 659.5 710 c 128,-1,22
 668 708 668 708 674.5 701.5 c 128,-1,23
 681 695 681 695 682 686 c 128,-1,24
 683 677 683 677 676 666 c 2,25,-1
 469 360 l 1,26,-1
 447 382 l 1,27,28
 505 376 505 376 548 340.5 c 128,-1,29
 591 305 591 305 622 242 c 2,30,-1
 723 36 l 2,31,32
 729 25 729 25 726.5 15.5 c 128,-1,33
 724 6 724 6 716.5 1 c 128,-1,34
 709 -4 709 -4 700 -5 c 128,-1,35
 691 -6 691 -6 682 -1.5 c 128,-1,36
 673 3 673 3 667 14 c 2,37,-1
 574 208 l 2,38,39
 542 274 542 274 502 302 c 128,-1,40
 462 330 462 330 406 330 c 2,41,-1
 282 330 l 1,42,-1
 282 26 l 2,43,44
 282 11 282 11 274.5 2.5 c 128,-1,45
 267 -6 267 -6 251 -6 c 0,0,1
EndSplineSet
EndChar

StartChar: uni04A2
Encoding: 1186 1186 594
Width: 793
GlyphClass: 1
Flags: W
LayerCount: 2
Fore
SplineSet
736 -160 m 256,0,1
 722 -160 722 -160 714.5 -152 c 128,-1,2
 707 -144 707 -144 707 -130 c 2,3,-1
 707 0 l 1,4,-1
 634 0 l 2,5,6
 619 0 619 0 611 7.5 c 128,-1,7
 603 15 603 15 603 32 c 2,8,-1
 603 330 l 1,9,-1
 153 330 l 1,10,-1
 153 26 l 2,11,12
 153 11 153 11 145.5 2.5 c 128,-1,13
 138 -6 138 -6 122 -6 c 0,14,15
 108 -6 108 -6 100 2.5 c 128,-1,16
 92 11 92 11 92 26 c 2,17,-1
 92 679 l 2,18,19
 92 695 92 695 100 703 c 128,-1,20
 108 711 108 711 122 711 c 0,21,22
 137 711 137 711 145 703 c 128,-1,23
 153 695 153 695 153 679 c 2,24,-1
 153 385 l 1,25,-1
 603 385 l 1,26,-1
 603 679 l 2,27,28
 603 695 603 695 611 703 c 128,-1,29
 619 711 619 711 634 711 c 0,30,31
 648 711 648 711 656 703 c 128,-1,32
 664 695 664 695 664 679 c 2,33,-1
 664 26 l 1,34,-1
 636 54 l 1,35,-1
 731 54 l 2,36,37
 747 54 747 54 755.5 45.5 c 128,-1,38
 764 37 764 37 764 21 c 2,39,-1
 764 -130 l 2,40,41
 764 -144 764 -144 757 -152 c 128,-1,42
 750 -160 750 -160 736 -160 c 256,0,1
EndSplineSet
EndChar

StartChar: uni04A4
Encoding: 1188 1188 595
Width: 931
GlyphClass: 1
Flags: W
LayerCount: 2
Fore
SplineSet
122 -6 m 0,0,1
 108 -6 108 -6 100 2.5 c 128,-1,2
 92 11 92 11 92 26 c 2,3,-1
 92 679 l 2,4,5
 92 695 92 695 100 703 c 128,-1,6
 108 711 108 711 122 711 c 0,7,8
 137 711 137 711 145 703 c 128,-1,9
 153 695 153 695 153 679 c 2,10,-1
 153 385 l 1,11,-1
 603 385 l 1,12,-1
 603 673 l 2,13,14
 603 689 603 689 611.5 697 c 128,-1,15
 620 705 620 705 635 705 c 2,16,-1
 904 705 l 2,17,18
 919 705 919 705 926.5 698 c 128,-1,19
 934 691 934 691 934 678 c 256,20,21
 934 665 934 665 926.5 657.5 c 128,-1,22
 919 650 919 650 904 650 c 2,23,-1
 664 650 l 1,24,-1
 664 26 l 2,25,26
 664 11 664 11 656 2.5 c 128,-1,27
 648 -6 648 -6 634 -6 c 0,28,29
 619 -6 619 -6 611 2.5 c 128,-1,30
 603 11 603 11 603 26 c 2,31,-1
 603 330 l 1,32,-1
 153 330 l 1,33,-1
 153 26 l 2,34,35
 153 11 153 11 145.5 2.5 c 128,-1,36
 138 -6 138 -6 122 -6 c 0,0,1
EndSplineSet
EndChar

StartChar: uni0524
Encoding: 1316 1316 596
Width: 787
GlyphClass: 1
Flags: W
LayerCount: 2
Fore
SplineSet
731 -160 m 256,0,1
 717 -160 717 -160 709.5 -152 c 128,-1,2
 702 -144 702 -144 702 -130 c 2,3,-1
 702 0 l 1,4,-1
 628 0 l 2,5,6
 614 0 614 0 605.5 7.5 c 128,-1,7
 597 15 597 15 597 32 c 2,8,-1
 597 650 l 1,9,-1
 153 650 l 1,10,-1
 153 26 l 2,11,12
 153 11 153 11 145.5 2.5 c 128,-1,13
 138 -6 138 -6 122 -6 c 0,14,15
 108 -6 108 -6 100 2.5 c 128,-1,16
 92 11 92 11 92 26 c 2,17,-1
 92 670 l 2,18,19
 92 687 92 687 101 696 c 128,-1,20
 110 705 110 705 126 705 c 2,21,-1
 624 705 l 2,22,23
 641 705 641 705 650 696 c 128,-1,24
 659 687 659 687 659 670 c 2,25,-1
 659 26 l 1,26,-1
 631 54 l 1,27,-1
 726 54 l 2,28,29
 742 54 742 54 750.5 45.5 c 128,-1,30
 759 37 759 37 759 21 c 2,31,-1
 759 -130 l 2,32,33
 759 -144 759 -144 752 -152 c 128,-1,34
 745 -160 745 -160 731 -160 c 256,0,1
EndSplineSet
EndChar

StartChar: uni04A8
Encoding: 1192 1192 597
Width: 794
GlyphClass: 1
Flags: W
LayerCount: 2
Fore
SplineSet
379 -8 m 0,0,1
 282 -8 282 -8 211 36 c 128,-1,2
 140 80 140 80 102 160.5 c 128,-1,3
 64 241 64 241 64 351 c 0,4,5
 64 437 64 437 85.5 504 c 128,-1,6
 107 571 107 571 148 617.5 c 128,-1,7
 189 664 189 664 246.5 688.5 c 128,-1,8
 304 713 304 713 377 713 c 0,9,10
 388 713 388 713 399.5 713 c 128,-1,11
 411 713 411 713 421 711 c 0,12,13
 437 710 437 710 443.5 701 c 128,-1,14
 450 692 450 692 448 680 c 0,15,16
 448 671 448 671 443 665 c 128,-1,17
 438 659 438 659 430.5 656.5 c 128,-1,18
 423 654 423 654 414 655 c 0,19,20
 404 657 404 657 393.5 657 c 128,-1,21
 383 657 383 657 373 657 c 0,22,23
 296 656 296 656 241.5 620 c 128,-1,24
 187 584 187 584 158 516.5 c 128,-1,25
 129 449 129 449 129 353 c 0,26,27
 129 255 129 255 158.5 186.5 c 128,-1,28
 188 118 188 118 244.5 82 c 128,-1,29
 301 46 301 46 381 46 c 0,30,31
 442 46 442 46 490.5 66 c 128,-1,32
 539 86 539 86 574 122.5 c 128,-1,33
 609 159 609 159 628 211 c 128,-1,34
 647 263 647 263 647 326 c 0,35,36
 647 410 647 410 614.5 455 c 128,-1,37
 582 500 582 500 524 500 c 0,38,39
 485 500 485 500 457.5 479.5 c 128,-1,40
 430 459 430 459 415.5 421 c 128,-1,41
 401 383 401 383 401 326 c 0,42,43
 401 241 401 241 434 178.5 c 128,-1,44
 467 116 467 116 526 81 c 128,-1,45
 585 46 585 46 666 46 c 0,46,47
 697 46 697 46 723 51 c 128,-1,48
 749 56 749 56 771 65 c 0,49,50
 784 70 784 70 792 67.5 c 128,-1,51
 800 65 800 65 804.5 59 c 128,-1,52
 809 53 809 53 809.5 44 c 128,-1,53
 810 35 810 35 805.5 27.5 c 128,-1,54
 801 20 801 20 791 15 c 0,55,56
 765 2 765 2 733.5 -3 c 128,-1,57
 702 -8 702 -8 664 -8 c 0,58,59
 595 -8 595 -8 535.5 16.5 c 128,-1,60
 476 41 476 41 432 85.5 c 128,-1,61
 388 130 388 130 363.5 191.5 c 128,-1,62
 339 253 339 253 339 327 c 0,63,64
 339 398 339 398 361 449 c 128,-1,65
 383 500 383 500 424.5 527.5 c 128,-1,66
 466 555 466 555 524 555 c 256,67,68
 582 555 582 555 623 527.5 c 128,-1,69
 664 500 664 500 686 449 c 128,-1,70
 708 398 708 398 708 327 c 0,71,72
 708 253 708 253 683.5 191 c 128,-1,73
 659 129 659 129 614.5 84.5 c 128,-1,74
 570 40 570 40 509.5 16 c 128,-1,75
 449 -8 449 -8 379 -8 c 0,0,1
EndSplineSet
EndChar

StartChar: uni04AA
Encoding: 1194 1194 598
Width: 670
GlyphClass: 2
Flags: W
AnchorPoint: "Anchor-2" 380 0 basechar 0
AnchorPoint: "Anchor-0" 384 705 basechar 0
LayerCount: 2
Fore
SplineSet
378 -160 m 256,0,1
 364 -160 364 -160 357 -151.5 c 128,-1,2
 350 -143 350 -143 350 -129 c 2,3,-1
 350 24 l 1,4,-1
 407 24 l 1,5,-1
 407 -129 l 2,6,7
 407 -143 407 -143 399.5 -151.5 c 128,-1,8
 392 -160 392 -160 378 -160 c 256,0,1
386 -8 m 0,9,10
 285 -8 285 -8 213 35.5 c 128,-1,11
 141 79 141 79 102.5 160 c 128,-1,12
 64 241 64 241 64 353 c 0,13,14
 64 437 64 437 85.5 503.5 c 128,-1,15
 107 570 107 570 148.5 616.5 c 128,-1,16
 190 663 190 663 250.5 688 c 128,-1,17
 311 713 311 713 386 713 c 0,18,19
 452 713 452 713 509 694 c 128,-1,20
 566 675 566 675 607 638 c 0,21,22
 617 629 617 629 620 619 c 128,-1,23
 623 609 623 609 620.5 600.5 c 128,-1,24
 618 592 618 592 611 586.5 c 128,-1,25
 604 581 604 581 594.5 581.5 c 128,-1,26
 585 582 585 582 574 591 c 0,27,28
 536 624 536 624 489.5 640 c 128,-1,29
 443 656 443 656 387 656 c 0,30,31
 304 656 304 656 246.5 620.5 c 128,-1,32
 189 585 189 585 159.5 517 c 128,-1,33
 130 449 130 449 130 353 c 0,34,35
 130 256 130 256 159.5 188 c 128,-1,36
 189 120 189 120 246.5 84.5 c 128,-1,37
 304 49 304 49 387 49 c 0,38,39
 442 49 442 49 489 65.5 c 128,-1,40
 536 82 536 82 575 115 c 0,41,42
 586 124 586 124 595.5 124 c 128,-1,43
 605 124 605 124 611.5 118.5 c 128,-1,44
 618 113 618 113 621 104.5 c 128,-1,45
 624 96 624 96 621.5 87 c 128,-1,46
 619 78 619 78 610 70 c 0,47,48
 567 31 567 31 510.5 11.5 c 128,-1,49
 454 -8 454 -8 386 -8 c 0,9,10
EndSplineSet
Substitution2: "'locl' Localized Forms in Cyrillic lookup 17 subtable" uni04AA.loclCHU
Substitution2: "'locl' Localized Forms in Cyrillic lookup 16 subtable" uni04AA.loclBSH
AlternateSubs2: "'aalt' Access All Alternates lookup 1 subtable" uni04AA.loclBSH uni04AA.loclCHU
EndChar

StartChar: uni04AC
Encoding: 1196 1196 599
Width: 574
GlyphClass: 1
Flags: W
LayerCount: 2
Fore
SplineSet
389 -160 m 0,0,1
 375 -160 375 -160 368 -152 c 128,-1,2
 361 -144 361 -144 361 -130 c 2,3,-1
 361 0 l 1,4,-1
 291 0 l 2,5,6
 274 0 274 0 265 9 c 128,-1,7
 256 18 256 18 256 35 c 2,8,-1
 256 650 l 1,9,-1
 25 650 l 2,10,11
 11 650 11 650 3 658 c 128,-1,12
 -5 666 -5 666 -5 678 c 0,13,14
 -5 691 -5 691 3 698 c 128,-1,15
 11 705 11 705 25 705 c 2,16,-1
 557 705 l 2,17,18
 572 705 572 705 579.5 698 c 128,-1,19
 587 691 587 691 587 678 c 256,20,21
 587 665 587 665 579.5 657.5 c 128,-1,22
 572 650 572 650 557 650 c 2,23,-1
 318 650 l 1,24,-1
 318 27 l 1,25,-1
 290 54 l 1,26,-1
 385 54 l 2,27,28
 401 54 401 54 409.5 45.5 c 128,-1,29
 418 37 418 37 418 22 c 2,30,-1
 418 -130 l 2,31,32
 418 -160 418 -160 389 -160 c 0,0,1
EndSplineSet
EndChar

StartChar: uni04B2
Encoding: 1202 1202 602
Width: 644
GlyphClass: 1
Flags: W
LayerCount: 2
Fore
SplineSet
628 -160 m 256,0,1
 614 -160 614 -160 607 -152 c 128,-1,2
 600 -144 600 -144 600 -130 c 2,3,-1
 600 18 l 1,4,-1
 618 0 l 1,5,-1
 573 0 l 2,6,7
 564 0 564 0 554.5 3 c 128,-1,8
 545 6 545 6 537 17 c 2,9,-1
 307 331 l 1,10,-1
 333 331 l 1,11,-1
 101 14 l 2,12,13
 94 4 94 4 85 -1 c 128,-1,14
 76 -6 76 -6 67 -6 c 0,15,16
 54 -6 54 -6 46.5 0.5 c 128,-1,17
 39 7 39 7 38 16.5 c 128,-1,18
 37 26 37 26 44 36 c 2,19,-1
 292 371 l 1,20,-1
 292 351 l 1,21,-1
 60 666 l 2,22,23
 52 678 52 678 52.5 688 c 128,-1,24
 53 698 53 698 61 704.5 c 128,-1,25
 69 711 69 711 80 711 c 256,26,27
 91 711 91 711 98 708 c 128,-1,28
 105 705 105 705 112 694 c 2,29,-1
 331 395 l 1,30,-1
 312 395 l 1,31,-1
 527 691 l 2,32,33
 534 702 534 702 542 706.5 c 128,-1,34
 550 711 550 711 561 711 c 0,35,36
 573 711 573 711 580.5 705 c 128,-1,37
 588 699 588 699 588.5 688.5 c 128,-1,38
 589 678 589 678 581 666 c 2,39,-1
 348 351 l 1,40,-1
 348 371 l 1,41,-1
 600 31 l 1,42,-1
 562 54 l 1,43,-1
 623 54 l 2,44,45
 639 54 639 54 648 45.5 c 128,-1,46
 657 37 657 37 657 21 c 2,47,-1
 657 -130 l 2,48,49
 657 -144 657 -144 649.5 -152 c 128,-1,50
 642 -160 642 -160 628 -160 c 256,0,1
EndSplineSet
EndChar

StartChar: uni04B4
Encoding: 1204 1204 603
Width: 911
GlyphClass: 1
Flags: W
LayerCount: 2
Fore
SplineSet
857 -159 m 0,0,1
 843 -159 843 -159 836 -151 c 128,-1,2
 829 -143 829 -143 829 -129 c 2,3,-1
 829 1 l 1,4,-1
 253 1 l 2,5,6
 236 1 236 1 227 10 c 128,-1,7
 218 19 218 19 218 36 c 2,8,-1
 218 651 l 1,9,-1
 24 651 l 2,10,11
 10 651 10 651 2 658.5 c 128,-1,12
 -6 666 -6 666 -6 679 c 256,13,14
 -6 692 -6 692 2 699 c 128,-1,15
 10 706 10 706 24 706 c 2,16,-1
 473 706 l 2,17,18
 488 706 488 706 495 699 c 128,-1,19
 502 692 502 692 502 679 c 0,20,21
 502 665 502 665 495 658 c 128,-1,22
 488 651 488 651 473 651 c 2,23,-1
 279 651 l 1,24,-1
 279 55 l 1,25,-1
 724 55 l 1,26,-1
 724 679 l 2,27,28
 724 695 724 695 732 703 c 128,-1,29
 740 711 740 711 755 711 c 0,30,31
 769 711 769 711 777 703 c 128,-1,32
 785 695 785 695 785 679 c 2,33,-1
 785 27 l 1,34,-1
 758 55 l 1,35,-1
 852 55 l 2,36,37
 868 55 868 55 876.5 46.5 c 128,-1,38
 885 38 885 38 885 23 c 2,39,-1
 885 -129 l 2,40,41
 885 -159 885 -159 857 -159 c 0,0,1
EndSplineSet
EndChar

StartChar: uni04B6
Encoding: 1206 1206 604
Width: 702
GlyphClass: 1
Flags: W
LayerCount: 2
Fore
SplineSet
513 308 m 1,0,1
 480 289 480 289 430.5 279 c 128,-1,2
 381 269 381 269 331 269 c 0,3,4
 243 269 243 269 182.5 301.5 c 128,-1,5
 122 334 122 334 91 397.5 c 128,-1,6
 60 461 60 461 60 555 c 2,7,-1
 60 679 l 2,8,9
 60 695 60 695 68 703 c 128,-1,10
 76 711 76 711 91 711 c 256,11,12
 106 711 106 711 114 703 c 128,-1,13
 122 695 122 695 122 679 c 2,14,-1
 122 561 l 2,15,16
 122 440 122 440 175.5 383 c 128,-1,17
 229 326 229 326 334 326 c 0,18,19
 383 326 383 326 428 336 c 128,-1,20
 473 346 473 346 513 369 c 1,21,-1
 513 679 l 2,22,23
 513 695 513 695 521 703 c 128,-1,24
 529 711 529 711 544 711 c 0,25,26
 558 711 558 711 566.5 703 c 128,-1,27
 575 695 575 695 575 679 c 2,28,-1
 575 26 l 1,29,-1
 547 54 l 1,30,-1
 641 54 l 2,31,32
 657 54 657 54 666 45.5 c 128,-1,33
 675 37 675 37 675 21 c 2,34,-1
 675 -130 l 2,35,36
 675 -144 675 -144 667.5 -152 c 128,-1,37
 660 -160 660 -160 646 -160 c 256,38,39
 632 -160 632 -160 625 -152 c 128,-1,40
 618 -144 618 -144 618 -130 c 2,41,-1
 618 0 l 1,42,-1
 544 0 l 2,43,44
 529 0 529 0 521 7.5 c 128,-1,45
 513 15 513 15 513 32 c 2,46,-1
 513 308 l 1,0,1
EndSplineSet
EndChar

StartChar: uni04B8
Encoding: 1208 1208 605
Width: 666
GlyphClass: 1
Flags: W
LayerCount: 2
Fore
SplineSet
544 -6 m 256,0,1
 529 -6 529 -6 521 2.5 c 128,-1,2
 513 11 513 11 513 26 c 2,3,-1
 513 308 l 1,4,5
 481 289 481 289 432.5 279.5 c 128,-1,6
 384 270 384 270 337 269 c 1,7,-1
 349 280 l 1,8,-1
 349 133 l 2,9,10
 349 106 349 106 325 106 c 0,11,12
 314 106 314 106 307.5 113 c 128,-1,13
 301 120 301 120 301 133 c 2,14,-1
 301 280 l 1,15,-1
 314 269 l 1,16,17
 232 274 232 274 175.5 305.5 c 128,-1,18
 119 337 119 337 89.5 399 c 128,-1,19
 60 461 60 461 60 555 c 2,20,-1
 60 679 l 2,21,22
 60 695 60 695 68 703 c 128,-1,23
 76 711 76 711 91 711 c 256,24,25
 106 711 106 711 114 703 c 128,-1,26
 122 695 122 695 122 679 c 2,27,-1
 122 561 l 2,28,29
 122 442 122 442 173 386.5 c 128,-1,30
 224 331 224 331 317 326 c 1,31,-1
 301 316 l 1,32,-1
 301 483 l 2,33,34
 301 510 301 510 325 510 c 0,35,36
 336 510 336 510 342.5 503.5 c 128,-1,37
 349 497 349 497 349 483 c 2,38,-1
 349 316 l 1,39,-1
 336 326 l 1,40,41
 383 326 383 326 428.5 336 c 128,-1,42
 474 346 474 346 513 369 c 1,43,-1
 513 679 l 2,44,45
 513 695 513 695 521 703 c 128,-1,46
 529 711 529 711 544 711 c 0,47,48
 558 711 558 711 566.5 703 c 128,-1,49
 575 695 575 695 575 679 c 2,50,-1
 575 26 l 2,51,52
 575 11 575 11 567 2.5 c 128,-1,53
 559 -6 559 -6 544 -6 c 256,0,1
EndSplineSet
EndChar

StartChar: uni04BA
Encoding: 1210 1210 606
Width: 666
GlyphClass: 2
Flags: W
LayerCount: 2
Fore
SplineSet
122 -6 m 0,0,1
 108 -6 108 -6 100 2.5 c 128,-1,2
 92 11 92 11 92 26 c 2,3,-1
 92 679 l 2,4,5
 92 695 92 695 100 703 c 128,-1,6
 108 711 108 711 122 711 c 0,7,8
 137 711 137 711 145 703 c 128,-1,9
 153 695 153 695 153 679 c 2,10,-1
 153 397 l 1,11,12
 187 416 187 416 236 426 c 128,-1,13
 285 436 285 436 335 436 c 0,14,15
 423 436 423 436 483.5 404 c 128,-1,16
 544 372 544 372 575 308.5 c 128,-1,17
 606 245 606 245 606 150 c 2,18,-1
 606 26 l 2,19,20
 606 11 606 11 598 2.5 c 128,-1,21
 590 -6 590 -6 575 -6 c 256,22,23
 560 -6 560 -6 552.5 2.5 c 128,-1,24
 545 11 545 11 545 26 c 2,25,-1
 545 144 l 2,26,27
 545 266 545 266 491 322.5 c 128,-1,28
 437 379 437 379 332 379 c 0,29,30
 283 379 283 379 238 369.5 c 128,-1,31
 193 360 193 360 153 336 c 1,32,-1
 153 26 l 2,33,34
 153 11 153 11 145 2.5 c 128,-1,35
 137 -6 137 -6 122 -6 c 0,0,1
EndSplineSet
EndChar

StartChar: uni0526
Encoding: 1318 1318 607
Width: 702
GlyphClass: 1
Flags: W
LayerCount: 2
Fore
SplineSet
545 144 m 2,0,1
 545 266 545 266 491 322.5 c 128,-1,2
 437 379 437 379 332 379 c 0,3,4
 283 379 283 379 238 369.5 c 128,-1,5
 193 360 193 360 153 336 c 1,6,-1
 153 26 l 2,7,8
 153 11 153 11 145 2.5 c 128,-1,9
 137 -6 137 -6 122 -6 c 0,10,11
 108 -6 108 -6 100 2.5 c 128,-1,12
 92 11 92 11 92 26 c 2,13,-1
 92 679 l 2,14,15
 92 695 92 695 100 703 c 128,-1,16
 108 711 108 711 122 711 c 0,17,18
 137 711 137 711 145 703 c 128,-1,19
 153 695 153 695 153 679 c 2,20,-1
 153 397 l 1,21,22
 187 416 187 416 236 426 c 128,-1,23
 285 436 285 436 335 436 c 0,24,25
 423 436 423 436 483.5 404 c 128,-1,26
 544 372 544 372 575 308.5 c 128,-1,27
 606 245 606 245 606 150 c 2,28,-1
 606 26 l 1,29,-1
 578 54 l 1,30,-1
 673 54 l 2,31,32
 689 54 689 54 697.5 45.5 c 128,-1,33
 706 37 706 37 706 21 c 2,34,-1
 706 -130 l 2,35,36
 706 -144 706 -144 699 -152 c 128,-1,37
 692 -160 692 -160 678 -160 c 256,38,39
 664 -160 664 -160 656.5 -152 c 128,-1,40
 649 -144 649 -144 649 -130 c 2,41,-1
 649 0 l 1,42,-1
 575 0 l 2,43,44
 561 0 561 0 553 7.5 c 128,-1,45
 545 15 545 15 545 32 c 2,46,-1
 545 144 l 2,0,1
EndSplineSet
EndChar

StartChar: uni04BC
Encoding: 1212 1212 608
Width: 905
GlyphClass: 2
Flags: W
AnchorPoint: "Anchor-3" 596 0 basechar 0
LayerCount: 2
Fore
SplineSet
567 -8 m 0,0,1
 455 -8 455 -8 376 34.5 c 128,-1,2
 297 77 297 77 254.5 155.5 c 128,-1,3
 212 234 212 234 210 343 c 1,4,-1
 222 322 l 1,5,-1
 191 322 l 2,6,7
 136 322 136 322 98 340.5 c 128,-1,8
 60 359 60 359 41 394.5 c 128,-1,9
 22 430 22 430 22 480 c 2,10,-1
 22 517 l 2,11,12
 22 549 22 549 54 549 c 0,13,14
 70 549 70 549 77 541 c 128,-1,15
 84 533 84 533 84 519 c 0,16,17
 84 509 84 509 84 500 c 128,-1,18
 84 491 84 491 84 482 c 0,19,20
 85 426 85 426 112 401 c 128,-1,21
 139 376 139 376 194 376 c 2,22,-1
 222 376 l 1,23,-1
 210 354 l 1,24,25
 211 437 211 437 233 503.5 c 128,-1,26
 255 570 255 570 296.5 617 c 128,-1,27
 338 664 338 664 397.5 688.5 c 128,-1,28
 457 713 457 713 532 713 c 0,29,30
 594 713 594 713 643.5 696.5 c 128,-1,31
 693 680 693 680 730 648.5 c 128,-1,32
 767 617 767 617 791.5 572.5 c 128,-1,33
 816 528 816 528 828.5 473.5 c 128,-1,34
 841 419 841 419 841 356 c 0,35,36
 841 344 841 344 837 336.5 c 128,-1,37
 833 329 833 329 825 325.5 c 128,-1,38
 817 322 817 322 805 322 c 2,39,-1
 264 322 l 1,40,-1
 276 344 l 1,41,42
 278 250 278 250 311 183.5 c 128,-1,43
 344 117 344 117 409 82.5 c 128,-1,44
 474 48 474 48 569 48 c 0,45,46
 625 48 625 48 674 63 c 128,-1,47
 723 78 723 78 769 112 c 0,48,49
 780 121 780 121 789 120.5 c 128,-1,50
 798 120 798 120 804 114 c 128,-1,51
 810 108 810 108 812 99.5 c 128,-1,52
 814 91 814 91 811 81.5 c 128,-1,53
 808 72 808 72 799 65 c 0,54,55
 751 29 751 29 693 10.5 c 128,-1,56
 635 -8 635 -8 567 -8 c 0,0,1
533 658 m 0,57,58
 451 658 451 658 393.5 622 c 128,-1,59
 336 586 336 586 306 517.5 c 128,-1,60
 276 449 276 449 275 352 c 1,61,-1
 264 376 l 1,62,-1
 794 376 l 1,63,-1
 779 352 l 1,64,65
 779 452 779 452 751 519.5 c 128,-1,66
 723 587 723 587 668.5 622.5 c 128,-1,67
 614 658 614 658 533 658 c 0,57,58
EndSplineSet
EndChar

StartChar: uni04C3
Encoding: 1219 1219 612
Width: 655
GlyphClass: 1
Flags: W
LayerCount: 2
Fore
SplineSet
399 -188 m 0,0,1
 374 -188 374 -188 348.5 -184 c 128,-1,2
 323 -180 323 -180 303 -174 c 0,3,4
 293 -171 293 -171 287.5 -164 c 128,-1,5
 282 -157 282 -157 282.5 -148.5 c 128,-1,6
 283 -140 283 -140 286.5 -133.5 c 128,-1,7
 290 -127 290 -127 298 -123.5 c 128,-1,8
 306 -120 306 -120 317 -124 c 0,9,10
 336 -130 336 -130 354.5 -132.5 c 128,-1,11
 373 -135 373 -135 394 -135 c 0,12,13
 461 -135 461 -135 497 -90 c 128,-1,14
 533 -45 533 -45 533 45 c 2,15,-1
 533 94 l 2,16,17
 533 174 533 174 509.5 227 c 128,-1,18
 486 280 486 280 436 305.5 c 128,-1,19
 386 331 386 331 304 331 c 2,20,-1
 153 331 l 1,21,-1
 153 26 l 2,22,23
 153 11 153 11 145.5 2.5 c 128,-1,24
 138 -6 138 -6 122 -6 c 0,25,26
 108 -6 108 -6 100 2.5 c 128,-1,27
 92 11 92 11 92 26 c 2,28,-1
 92 680 l 2,29,30
 92 695 92 695 100 703 c 128,-1,31
 108 711 108 711 122 711 c 0,32,33
 137 711 137 711 145 703 c 128,-1,34
 153 695 153 695 153 680 c 2,35,-1
 153 386 l 1,36,-1
 304 386 l 1,37,-1
 279 369 l 1,38,-1
 499 695 l 2,39,40
 506 705 506 705 515 708.5 c 128,-1,41
 524 712 524 712 533.5 710 c 128,-1,42
 543 708 543 708 549 701.5 c 128,-1,43
 555 695 555 695 556 686 c 128,-1,44
 557 677 557 677 550 666 c 2,45,-1
 342 360 l 1,46,-1
 334 384 l 1,47,48
 421 382 421 382 479 350.5 c 128,-1,49
 537 319 537 319 566 256.5 c 128,-1,50
 595 194 595 194 595 100 c 2,51,-1
 595 47 l 2,52,53
 595 -29 595 -29 572 -81.5 c 128,-1,54
 549 -134 549 -134 505 -161 c 128,-1,55
 461 -188 461 -188 399 -188 c 0,0,1
EndSplineSet
EndChar

StartChar: uni04C5
Encoding: 1221 1221 613
Width: 749
GlyphClass: 1
Flags: W
LayerCount: 2
Fore
SplineSet
690 -139 m 2,0,1
 686 -149 686 -149 679 -154 c 128,-1,2
 672 -159 672 -159 663.5 -159 c 128,-1,3
 655 -159 655 -159 648.5 -155 c 128,-1,4
 642 -151 642 -151 639.5 -143 c 128,-1,5
 637 -135 637 -135 640 -124 c 2,6,-1
 687 17 l 1,7,-1
 699 0 l 1,8,-1
 613 0 l 2,9,10
 599 0 599 0 590.5 7.5 c 128,-1,11
 582 15 582 15 582 30 c 2,12,-1
 582 650 l 1,13,-1
 249 650 l 1,14,-1
 249 479 l 2,15,16
 249 372 249 372 237.5 293 c 128,-1,17
 226 214 226 214 203.5 157.5 c 128,-1,18
 181 101 181 101 147.5 63 c 128,-1,19
 114 25 114 25 69 -2 c 0,20,21
 56 -10 56 -10 44.5 -7.5 c 128,-1,22
 33 -5 33 -5 26 7 c 0,23,24
 20 20 20 20 23.5 30.5 c 128,-1,25
 27 41 27 41 40 49 c 0,26,27
 75 70 75 70 103 101.5 c 128,-1,28
 131 133 131 133 150.5 183 c 128,-1,29
 170 233 170 233 180.5 308.5 c 128,-1,30
 191 384 191 384 191 494 c 2,31,-1
 191 670 l 2,32,33
 191 687 191 687 200 696 c 128,-1,34
 209 705 209 705 226 705 c 2,35,-1
 609 705 l 2,36,37
 626 705 626 705 635 696 c 128,-1,38
 644 687 644 687 644 670 c 2,39,-1
 644 33 l 1,40,-1
 623 54 l 1,41,-1
 711 54 l 2,42,43
 731 54 731 54 739.5 44.5 c 128,-1,44
 748 35 748 35 741 16 c 2,45,-1
 690 -139 l 2,0,1
EndSplineSet
EndChar

StartChar: uni04C7
Encoding: 1223 1223 614
Width: 756
GlyphClass: 1
Flags: W
LayerCount: 2
Fore
SplineSet
491 -192 m 0,0,1
 476 -192 476 -192 468.5 -185 c 128,-1,2
 461 -178 461 -178 460 -168 c 128,-1,3
 459 -158 459 -158 465.5 -150 c 128,-1,4
 472 -142 472 -142 485 -141 c 0,5,6
 544 -139 544 -139 573.5 -110.5 c 128,-1,7
 603 -82 603 -82 603 -19 c 2,8,-1
 603 330 l 1,9,-1
 153 330 l 1,10,-1
 153 26 l 2,11,12
 153 11 153 11 145.5 2.5 c 128,-1,13
 138 -6 138 -6 122 -6 c 0,14,15
 108 -6 108 -6 100 2.5 c 128,-1,16
 92 11 92 11 92 26 c 2,17,-1
 92 679 l 2,18,19
 92 695 92 695 100 703 c 128,-1,20
 108 711 108 711 122 711 c 0,21,22
 137 711 137 711 145 703 c 128,-1,23
 153 695 153 695 153 679 c 2,24,-1
 153 385 l 1,25,-1
 603 385 l 1,26,-1
 603 679 l 2,27,28
 603 695 603 695 611 703 c 128,-1,29
 619 711 619 711 634 711 c 0,30,31
 648 711 648 711 656 703 c 128,-1,32
 664 695 664 695 664 679 c 2,33,-1
 664 -16 l 2,34,35
 664 -75 664 -75 643.5 -114 c 128,-1,36
 623 -153 623 -153 584 -171.5 c 128,-1,37
 545 -190 545 -190 491 -192 c 0,0,1
EndSplineSet
EndChar

StartChar: uni04C9
Encoding: 1225 1225 615
Width: 770
GlyphClass: 1
Flags: W
LayerCount: 2
Fore
SplineSet
710 -139 m 2,0,1
 706 -149 706 -149 699 -154 c 128,-1,2
 692 -159 692 -159 684 -159 c 128,-1,3
 676 -159 676 -159 669.5 -155 c 128,-1,4
 663 -151 663 -151 660 -143 c 128,-1,5
 657 -135 657 -135 661 -124 c 2,6,-1
 708 17 l 1,7,-1
 719 0 l 1,8,-1
 634 0 l 2,9,10
 619 0 619 0 611 7.5 c 128,-1,11
 603 15 603 15 603 30 c 2,12,-1
 603 330 l 1,13,-1
 153 330 l 1,14,-1
 153 26 l 2,15,16
 153 11 153 11 145.5 2.5 c 128,-1,17
 138 -6 138 -6 122 -6 c 0,18,19
 108 -6 108 -6 100 2.5 c 128,-1,20
 92 11 92 11 92 26 c 2,21,-1
 92 679 l 2,22,23
 92 695 92 695 100 703 c 128,-1,24
 108 711 108 711 122 711 c 0,25,26
 137 711 137 711 145 703 c 128,-1,27
 153 695 153 695 153 679 c 2,28,-1
 153 385 l 1,29,-1
 603 385 l 1,30,-1
 603 679 l 2,31,32
 603 695 603 695 611 703 c 128,-1,33
 619 711 619 711 634 711 c 0,34,35
 648 711 648 711 656 703 c 128,-1,36
 664 695 664 695 664 679 c 2,37,-1
 664 26 l 1,38,-1
 636 54 l 1,39,-1
 731 54 l 2,40,41
 751 54 751 54 759.5 44.5 c 128,-1,42
 768 35 768 35 762 16 c 2,43,-1
 710 -139 l 2,0,1
EndSplineSet
EndChar

StartChar: uni04CB
Encoding: 1227 1227 616
Width: 670
GlyphClass: 1
Flags: W
LayerCount: 2
Fore
SplineSet
441 -160 m 256,0,1
 427 -160 427 -160 420 -152 c 128,-1,2
 413 -144 413 -144 413 -130 c 2,3,-1
 413 21 l 2,4,5
 413 37 413 37 421.5 45.5 c 128,-1,6
 430 54 430 54 446 54 c 2,7,-1
 541 54 l 1,8,-1
 513 26 l 1,9,-1
 513 308 l 1,10,11
 480 289 480 289 430.5 279 c 128,-1,12
 381 269 381 269 331 269 c 0,13,14
 243 269 243 269 182.5 301.5 c 128,-1,15
 122 334 122 334 91 397.5 c 128,-1,16
 60 461 60 461 60 555 c 2,17,-1
 60 679 l 2,18,19
 60 695 60 695 68 703 c 128,-1,20
 76 711 76 711 91 711 c 256,21,22
 106 711 106 711 114 703 c 128,-1,23
 122 695 122 695 122 679 c 2,24,-1
 122 561 l 2,25,26
 122 440 122 440 175.5 383 c 128,-1,27
 229 326 229 326 334 326 c 0,28,29
 383 326 383 326 428 336 c 128,-1,30
 473 346 473 346 513 369 c 1,31,-1
 513 679 l 2,32,33
 513 695 513 695 521 703 c 128,-1,34
 529 711 529 711 544 711 c 0,35,36
 558 711 558 711 566.5 703 c 128,-1,37
 575 695 575 695 575 679 c 2,38,-1
 575 32 l 2,39,40
 575 15 575 15 566.5 7.5 c 128,-1,41
 558 0 558 0 544 0 c 2,42,-1
 470 0 l 1,43,-1
 470 -130 l 2,44,45
 470 -144 470 -144 462.5 -152 c 128,-1,46
 455 -160 455 -160 441 -160 c 256,0,1
EndSplineSet
EndChar

StartChar: uni04CD
Encoding: 1229 1229 617
Width: 863
GlyphClass: 1
Flags: W
LayerCount: 2
Fore
SplineSet
801 -139 m 2,0,1
 798 -149 798 -149 790.5 -154 c 128,-1,2
 783 -159 783 -159 775 -159 c 128,-1,3
 767 -159 767 -159 760.5 -155 c 128,-1,4
 754 -151 754 -151 751 -143 c 128,-1,5
 748 -135 748 -135 752 -124 c 2,6,-1
 799 17 l 1,7,-1
 811 0 l 1,8,-1
 730 0 l 2,9,10
 715 0 715 0 707 7.5 c 128,-1,11
 699 15 699 15 699 30 c 2,12,-1
 699 631 l 1,13,-1
 723 631 l 1,14,-1
 455 123 l 2,15,16
 450 113 450 113 444 108 c 128,-1,17
 438 103 438 103 427 103 c 0,18,19
 415 103 415 103 408.5 108.5 c 128,-1,20
 402 114 402 114 397 123 c 2,21,-1
 126 632 l 1,22,-1
 150 632 l 1,23,-1
 150 24 l 2,24,25
 150 10 150 10 143 2 c 128,-1,26
 136 -6 136 -6 122 -6 c 0,27,28
 109 -6 109 -6 101.5 2 c 128,-1,29
 94 10 94 10 94 24 c 2,30,-1
 94 681 l 2,31,32
 94 696 94 696 101.5 703.5 c 128,-1,33
 109 711 109 711 121 711 c 0,34,35
 134 711 134 711 141 706 c 128,-1,36
 148 701 148 701 154 690 c 2,37,-1
 440 147 l 1,38,-1
 412 147 l 1,39,-1
 696 690 l 2,40,41
 703 701 703 701 709.5 706 c 128,-1,42
 716 711 716 711 729 711 c 0,43,44
 741 711 741 711 748.5 703.5 c 128,-1,45
 756 696 756 696 756 681 c 2,46,-1
 756 33 l 1,47,-1
 735 54 l 1,48,-1
 823 54 l 2,49,50
 843 54 843 54 851.5 44.5 c 128,-1,51
 860 35 860 35 853 16 c 2,52,-1
 801 -139 l 2,0,1
EndSplineSet
EndChar

StartChar: uni04E0
Encoding: 1248 1248 626
Width: 643
GlyphClass: 1
Flags: W
LayerCount: 2
Fore
SplineSet
316 -8 m 0,0,1
 234 -8 234 -8 167.5 13 c 128,-1,2
 101 34 101 34 58 73 c 0,3,4
 50 80 50 80 47.5 89 c 128,-1,5
 45 98 45 98 47 106.5 c 128,-1,6
 49 115 49 115 55.5 120.5 c 128,-1,7
 62 126 62 126 70.5 126.5 c 128,-1,8
 79 127 79 127 89 120 c 0,9,10
 137 84 137 84 190.5 66 c 128,-1,11
 244 48 244 48 313 48 c 256,12,13
 382 48 382 48 426 64 c 128,-1,14
 470 80 470 80 491.5 112.5 c 128,-1,15
 513 145 513 145 513 192 c 256,16,17
 513 239 513 239 493 269.5 c 128,-1,18
 473 300 473 300 430.5 315 c 128,-1,19
 388 330 388 330 320 330 c 2,20,-1
 242 330 l 2,21,22
 232 330 232 330 225.5 334.5 c 128,-1,23
 219 339 219 339 216.5 347 c 128,-1,24
 214 355 214 355 217 364 c 128,-1,25
 220 373 220 373 227 382 c 2,26,-1
 487 673 l 1,27,-1
 487 651 l 1,28,-1
 83 651 l 2,29,30
 69 651 69 651 61 658.5 c 128,-1,31
 53 666 53 666 53 678 c 0,32,33
 53 691 53 691 61 698 c 128,-1,34
 69 705 69 705 83 705 c 2,35,-1
 529 705 l 2,36,37
 538 705 538 705 544.5 700.5 c 128,-1,38
 551 696 551 696 553.5 688.5 c 128,-1,39
 556 681 556 681 552.5 671.5 c 128,-1,40
 549 662 549 662 540 652 c 2,41,-1
 284 364 l 1,42,-1
 278 383 l 1,43,-1
 336 383 l 2,44,45
 411 383 411 383 464.5 362.5 c 128,-1,46
 518 342 518 342 547 300.5 c 128,-1,47
 576 259 576 259 576 195 c 256,48,49
 576 131 576 131 548 85.5 c 128,-1,50
 520 40 520 40 462 16 c 128,-1,51
 404 -8 404 -8 316 -8 c 0,0,1
EndSplineSet
EndChar

StartChar: uni04E8
Encoding: 1256 1256 630
Width: 759
GlyphClass: 2
Flags: W
AnchorPoint: "Anchor-5" 380 353 basechar 0
AnchorPoint: "Anchor-3" 435 0 basechar 0
AnchorPoint: "Anchor-2" 379 0 basechar 0
AnchorPoint: "Anchor-1" 451 705 basechar 0
AnchorPoint: "Anchor-0" 379 705 basechar 0
LayerCount: 2
Fore
SplineSet
100 332 m 1,0,-1
 100 384 l 1,1,-1
 665 384 l 1,2,-1
 665 332 l 1,3,-1
 100 332 l 1,0,-1
379 -8 m 0,4,5
 283 -8 283 -8 212 36 c 128,-1,6
 141 80 141 80 102.5 161 c 128,-1,7
 64 242 64 242 64 353 c 0,8,9
 64 437 64 437 85.5 503.5 c 128,-1,10
 107 570 107 570 148 616.5 c 128,-1,11
 189 663 189 663 247.5 688 c 128,-1,12
 306 713 306 713 379 713 c 0,13,14
 477 713 477 713 548 669.5 c 128,-1,15
 619 626 619 626 657 545.5 c 128,-1,16
 695 465 695 465 695 354 c 0,17,18
 695 270 695 270 673 203 c 128,-1,19
 651 136 651 136 610 89 c 128,-1,20
 569 42 569 42 510.5 17 c 128,-1,21
 452 -8 452 -8 379 -8 c 0,4,5
379 48 m 0,22,23
 459 48 459 48 515 84 c 128,-1,24
 571 120 571 120 600.5 188 c 128,-1,25
 630 256 630 256 630 353 c 0,26,27
 630 498 630 498 564.5 577.5 c 128,-1,28
 499 657 499 657 379 657 c 0,29,30
 300 657 300 657 244 621 c 128,-1,31
 188 585 188 585 158.5 517 c 128,-1,32
 129 449 129 449 129 353 c 0,33,34
 129 209 129 209 195 128.5 c 128,-1,35
 261 48 261 48 379 48 c 0,22,23
EndSplineSet
EndChar

StartChar: uni04FA
Encoding: 1274 1274 638
Width: 568
GlyphClass: 1
Flags: W
LayerCount: 2
Fore
SplineSet
115 -180 m 2,0,1
 101 -181 101 -181 93 -174.5 c 128,-1,2
 85 -168 85 -168 84 -158 c 0,3,4
 83 -147 83 -147 89.5 -139 c 128,-1,5
 96 -131 96 -131 114 -130 c 2,6,-1
 126 -129 l 2,7,8
 184 -124 184 -124 207 -93 c 128,-1,9
 230 -62 230 -62 230 0 c 1,10,-1
 158 0 l 2,11,12
 142 0 142 0 133.5 8.5 c 128,-1,13
 125 17 125 17 125 33 c 2,14,-1
 125 330 l 1,15,-1
 55 330 l 2,16,17
 42 330 42 330 34 336.5 c 128,-1,18
 26 343 26 343 26 355 c 256,19,20
 26 367 26 367 34 373.5 c 128,-1,21
 42 380 42 380 55 380 c 2,22,-1
 125 380 l 1,23,-1
 125 673 l 2,24,25
 125 689 125 689 133.5 697 c 128,-1,26
 142 705 142 705 157 705 c 2,27,-1
 531 705 l 2,28,29
 546 705 546 705 553.5 698 c 128,-1,30
 561 691 561 691 561 677 c 0,31,32
 561 665 561 665 553.5 657.5 c 128,-1,33
 546 650 546 650 531 650 c 2,34,-1
 187 650 l 1,35,-1
 187 380 l 1,36,-1
 346 380 l 2,37,38
 360 380 360 380 367.5 373.5 c 128,-1,39
 375 367 375 367 375 355 c 256,40,41
 375 343 375 343 367.5 336.5 c 128,-1,42
 360 330 360 330 346 330 c 2,43,-1
 187 330 l 1,44,-1
 187 26 l 1,45,-1
 159 54 l 1,46,-1
 254 54 l 2,47,48
 270 54 270 54 278.5 45.5 c 128,-1,49
 287 37 287 37 287 21 c 2,50,-1
 287 6 l 2,51,52
 287 -54 287 -54 270 -94 c 128,-1,53
 253 -134 253 -134 218.5 -155 c 128,-1,54
 184 -176 184 -176 131 -179 c 2,55,-1
 115 -180 l 2,0,1
EndSplineSet
EndChar

StartChar: uni04FC
Encoding: 1276 1276 639
Width: 640
GlyphClass: 1
Flags: W
LayerCount: 2
Fore
SplineSet
437 -180 m 0,0,1
 422 -183 422 -183 411.5 -177 c 128,-1,2
 401 -171 401 -171 398 -159 c 0,3,4
 396 -147 396 -147 402 -139.5 c 128,-1,5
 408 -132 408 -132 422 -129 c 0,6,7
 478 -119 478 -119 501.5 -92.5 c 128,-1,8
 525 -66 525 -66 525 -18 c 0,9,10
 525 6 525 6 507.5 43.5 c 128,-1,11
 490 81 490 81 457 126 c 2,12,-1
 307 331 l 1,13,-1
 333 331 l 1,14,-1
 101 14 l 2,15,16
 94 4 94 4 85 -1 c 128,-1,17
 76 -6 76 -6 67 -6 c 0,18,19
 54 -6 54 -6 46.5 0.5 c 128,-1,20
 39 7 39 7 38 16.5 c 128,-1,21
 37 26 37 26 44 36 c 2,22,-1
 292 371 l 1,23,-1
 292 351 l 1,24,-1
 60 666 l 2,25,26
 52 678 52 678 52.5 688 c 128,-1,27
 53 698 53 698 61 704.5 c 128,-1,28
 69 711 69 711 80 711 c 256,29,30
 91 711 91 711 98.5 706.5 c 128,-1,31
 106 702 106 702 114 691 c 2,32,-1
 331 395 l 1,33,-1
 312 395 l 1,34,-1
 527 691 l 2,35,36
 534 702 534 702 542 706.5 c 128,-1,37
 550 711 550 711 561 711 c 0,38,39
 573 711 573 711 580.5 705 c 128,-1,40
 588 699 588 699 588.5 688.5 c 128,-1,41
 589 678 589 678 581 666 c 2,42,-1
 348 351 l 1,43,-1
 348 371 l 1,44,-1
 515 145 l 2,45,46
 553 94 553 94 569.5 52.5 c 128,-1,47
 586 11 586 11 586 -21 c 0,48,49
 586 -88 586 -88 549.5 -127 c 128,-1,50
 513 -166 513 -166 437 -180 c 0,0,1
EndSplineSet
EndChar

StartChar: uni0510
Encoding: 1296 1296 641
Width: 643
GlyphClass: 1
Flags: W
LayerCount: 2
Fore
SplineSet
327 -8 m 0,0,1
 238 -8 238 -8 180.5 15.5 c 128,-1,2
 123 39 123 39 95 84.5 c 128,-1,3
 67 130 67 130 67 192 c 0,4,5
 67 243 67 243 86.5 279.5 c 128,-1,6
 106 316 106 316 142.5 338 c 128,-1,7
 179 360 179 360 229 366 c 1,8,-1
 229 352 l 1,9,10
 163 366 163 366 123 410 c 128,-1,11
 83 454 83 454 83 520 c 0,12,13
 83 580 83 580 110.5 623 c 128,-1,14
 138 666 138 666 193 689.5 c 128,-1,15
 248 713 248 713 327 713 c 0,16,17
 372 713 372 713 414 704.5 c 128,-1,18
 456 696 456 696 495.5 678.5 c 128,-1,19
 535 661 535 661 567 635 c 0,20,21
 577 628 577 628 579.5 619 c 128,-1,22
 582 610 582 610 579.5 601.5 c 128,-1,23
 577 593 577 593 570.5 587.5 c 128,-1,24
 564 582 564 582 555.5 582 c 128,-1,25
 547 582 547 582 536 589 c 0,26,27
 492 625 492 625 439 641 c 128,-1,28
 386 657 386 657 329 657 c 0,29,30
 238 657 238 657 192 620 c 128,-1,31
 146 583 146 583 146 517 c 0,32,33
 146 452 146 452 189.5 417.5 c 128,-1,34
 233 383 233 383 318 383 c 2,35,-1
 452 383 l 2,36,37
 466 383 466 383 473.5 376.5 c 128,-1,38
 481 370 481 370 481 357 c 0,39,40
 481 345 481 345 473.5 337.5 c 128,-1,41
 466 330 466 330 452 330 c 2,42,-1
 302 330 l 2,43,44
 216 330 216 330 172.5 296.5 c 128,-1,45
 129 263 129 263 129 193 c 0,46,47
 129 121 129 121 177.5 84.5 c 128,-1,48
 226 48 226 48 329 48 c 0,49,50
 398 48 398 48 452 65.5 c 128,-1,51
 506 83 506 83 554 119 c 0,52,53
 564 126 564 126 572.5 126 c 128,-1,54
 581 126 581 126 587 120.5 c 128,-1,55
 593 115 593 115 595.5 106.5 c 128,-1,56
 598 98 598 98 595.5 89 c 128,-1,57
 593 80 593 80 584 73 c 0,58,59
 542 34 542 34 475 13 c 128,-1,60
 408 -8 408 -8 327 -8 c 0,0,1
EndSplineSet
EndChar

